<svg id="SvgjsSvg1273" width="2048" height="2048" xmlns="http://www.w3.org/2000/svg" version="1.1" xmlns:xlink="http://www.w3.org/1999/xlink" xmlns:svgjs="http://svgjs.com/svgjs"><defs id="SvgjsDefs1274"></defs><!--?xml version="1.0" encoding="iso-8859-1"?-->
<!-- Generator: Adobe Illustrator 16.0.0, SVG Export Plug-In . SVG Version: 6.00 Build 0)  -->

<svg version="1.1" xmlns="http://www.w3.org/2000/svg" xmlns:xlink="http://www.w3.org/1999/xlink" x="0px" y="0px" width="2048px" height="2048px" viewBox="0 0 2048 2048" xml:space="preserve">
<g id="color01" opacity="100" fill="#2e7e45">
	<path id="cut" d="M610.2,107.9c204.76-0.3,409.52-0.12,614.28-0.08c0.279,16,0.319,32.02,0.02,48.02
		c-204.78,0.16-409.56-0.04-614.32,0.1C610.12,139.94,610.1,123.92,610.2,107.9z M1325.18,233.2
		c-29.859,20.64-52.58,49.7-72.1,79.92c-24.16,37-43.7,77.38-73.58,110.34c-20.24,22.4-47.28,36.62-73.16,51.34
		c-1.5,4.32,0.94,8.92,1.58,13.28c16.46,66.88,32.18,134.08,41.52,202.38c3.061,25.82,6.641,51.64,6.86,77.68
		c2.681,33.2,1.78,66.601-0.12,99.841c0.641,21.42-2.52,42.68-2.279,64.1c-1.78,13.02-1.7,26.16-2.381,39.26
		c-2.42,14.9-1.039,30.04-3.159,44.98c0.02,18.279-2.761,36.399-2.761,54.699c-1.88,16.881-1.439,33.921-3.399,50.82
		c0.38,17.18-3.5,34.16-1.92,51.32c11.54,1.359,22.92,4.22,33.399,9.32c28.561,13.899,51.061,36.96,77.2,54.579
		c33.38,23.32,73.46,34.5,113.22,40.82c27.82,4.061,55.9,6.28,84.021,6.26c19.38,1,38.78,1.82,58.16,0.2
		c34.04-0.18,68.08-2.52,101.62-8.399c30.42-5.921,60.8-14.54,87.739-30.261c23.28-13.34,42.96-31.779,64.721-47.279
		c17.42-12.86,37.359-23.28,59.26-25.2c1.8-16.44-1.5-32.76-1.72-49.181c-4.2-74.76-9.24-149.439-12.801-224.239
		c-2-17.24-0.56-34.62-1.859-51.9c-1.301-22.56-1.34-45.16,0.04-67.72c2.54-100.78,26.64-199.34,50.08-296.92
		c0.199-3.02,2.819-7.56-0.96-9.34c-24.341-13.6-49.301-27.2-68.92-47.38c-22.061-23.5-38.74-51.32-55.101-78.92
		c-20.52-33.82-41.1-68.46-70.24-95.68c-25.52-23.34-55.84-40.6-86.42-56.3c-8.64-0.22-17,2.54-25.62,2.42
		c-38.699,0.2-77.399,0-116.1,0.08c-9.6-0.06-19.28,0.54-28.74-1.32c-5.779-0.76-12.22-2.7-17.42,0.94
		C1363.86,208.84,1343.58,219.58,1325.18,233.2z M280.02,430c-11.82,12.44-25.26,23.66-40.72,31.32
		c-10.1,4.979-21,7.939-31.72,11.26c0.3,3.46,0.7,6.92,1.5,10.3C235.92,591.98,262.38,702.92,260.1,816
		c-0.12,17.94,0.52,35.92-1.34,53.8c-1.2,11.22,0.06,22.561-1.5,33.761c-1.94,12.859-0.42,25.979-2.82,38.819
		c-3.34,58.521-6.62,117.061-10.3,175.58c0.3,17.44-3.56,34.7-2.04,52.16c227.24,0.22,454.5,0.28,681.74-0.021
		c0.061-7,0.36-14.04-0.78-20.96c-1.859-11.04-0.479-22.3-2.079-33.359c-1.681-12.38-0.261-24.92-2.2-37.261
		c-1.46-10.939-0.2-22.06-1.86-33c-1.82-12.5-0.24-25.22-2.3-37.699c-2.44-50.641-6.78-101.16-8.74-151.82
		c0.4-18.68-1.2-37.32-0.36-55.98c0.721-15.72-0.52-31.539,1.4-47.199c4.28-67.301,17.46-133.681,32.44-199.32
		c5.92-27.04,13.38-53.72,18.88-80.82c-25.4-6.12-49.3-18.5-67.78-37.14c-23.1-23.76-39.82-52.62-57.82-80.18
		c-17.279-27.26-37.54-52.92-62.62-73.4c-22.56-17.26-46.92-32.02-72.039-45.2c-8.08,9.7-14.94,20.4-23.74,29.48
		c-11.48,10.82-24.04,20.68-38.24,27.7c-16.64,8.68-35.42,12.08-53.92,13.86c-14.86-1.92-29.96-4.08-43.88-9.92
		c-14.9-5.96-28.28-15.2-40.52-25.52c-11.96-10.22-20.62-23.5-29.96-35.98c-37.76,21.04-76.62,42.98-104.3,77
		C332.1,349.72,312.36,394.5,280.02,430z M241.9,1247.92c18.7,0.66,37.4,0.18,56.12,0.32c208.6-0.16,417.22,0.24,625.84-0.2
		c0.56-10.92-0.801-21.76-2.16-32.56c-226.101-0.48-452.22,0.18-678.32-0.32C241.82,1226,241.66,1236.98,241.9,1247.92z
		 M1140.12,1273.9c10.979,2.58,22.26,4.319,32.439,9.479c31.4,14.92,55.521,40.82,84.62,59.34
		c33.84,21.36,73.34,31.86,112.641,37.36c21.199,3.479,42.699,3.74,64.04,5.62c32.64,0.62,65.34,1,97.96-0.32
		c12.779-1.86,25.76-0.96,38.54-2.88c53.5-5.18,108.5-18.74,151.26-52.94c22.72-16.819,43.74-36.76,70.06-47.979
		c8.96-4.1,18.82-5.08,28.24-7.66c0.32-11.18,0.561-22.479-1.76-33.479c-6.12,1.119-12.28,2.06-18.34,3.399
		c-19.4,4.141-37.101,13.72-53.44,24.68c-22.08,15.021-41.58,33.62-64.399,47.62c-23.801,14.521-50.94,22.44-78.12,27.761
		c-47.421,8.54-95.801,9.18-143.82,8.38c-14.28-0.521-28.62,0.6-42.78-1.46c-51.04-3.061-104.56-10.92-147.72-40.301
		c-28.74-20-54.14-45.439-86.74-59.38c-12.899-5.92-26.96-8.38-40.84-10.84C1140.16,1251.4,1139.46,1262.66,1140.12,1273.9z
		 M408.6,1586.46c-20.76,31.78-46.4,60.66-77.16,83.06c-12.84,9.601-26.42,18.101-39.64,27.141
		c12.8,51.26,27.66,101.979,40.68,153.18c140.46,0.04,280.96,0.12,421.4-0.02c8.5-29.82,16.16-59.86,24.24-89.78
		c5.479-21.18,12.08-42.14,16.399-63.58c-21.039-12.78-42.539-25.38-60.06-42.92c-15.92-15.2-28.4-33.56-39.5-52.44
		c-18.56-33.22-33.54-68.34-45.66-104.38C637.36,1462.82,628.4,1428,617.8,1393.7c-20.7,5.18-42.3,11.92-63.68,6.399
		c-16.5-2.08-30.28-13.42-39.1-27c-2.64-4-4.18-8.899-8.18-11.779C480.54,1438.84,454.52,1517.88,408.6,1586.46z M1123.54,1397.36
		c-7.021,2.1-14.26,3.5-21.5,4.439c-18.26,1.92-35.98-3.84-53.46-8.12c-18.78,64.38-36.66,129.66-67.46,189.58
		c-16.12,31.9-36.76,62.38-65.36,84.42c-13.74,11-29.14,19.641-44.04,28.94c12.761,51.28,27.181,102.16,40.74,153.24
		c140.4,0.02,280.8,0.06,421.2-0.021c8.2-29.939,16.34-59.88,24.3-89.88c5.38-21.16,12.22-42.02,16.28-63.46
		c-19.101-13-38.66-25.42-56.301-40.36c-24.039-20.859-44.56-45.54-61.859-72.199c-41.3-63.04-66.9-134.521-90.58-205.601
		c-1.92-5.88-3.52-11.939-6.88-17.2C1150.5,1376.04,1139.96,1390.98,1123.54,1397.36z M332.92,1943.48
		c140.26,0.52,280.54,0.02,420.8,0.26c3.141-11.08,6.58-22.12,8.66-33.44c-61.439-0.819-122.939-0.24-184.38-0.42
		c-84.7,0.3-169.4-0.58-254.08,0.44C326.8,1921.4,329.76,1932.46,332.92,1943.48z M912.54,1943.7
		c140.26-0.12,280.52,0.28,420.78-0.22c3.38-10.961,6.479-22.021,9.02-33.221c-24.76-0.819-49.56-0.16-74.34-0.38
		c-121.44,0.22-242.88-0.439-364.3,0.34C906.32,1921.46,909.66,1932.5,912.54,1943.7z"></path>
	<path id="ChestRightChest1" d="M500.022,425.599H365.809v-93.897h134.214V425.599z"></path>
	<path id="ChestLeftChest1" d="M800.495,425.599H666.28v-93.897h134.215V425.599z"></path>
	<path id="ChestLeftChest" d="M800.495,397.429H666.28v-37.56h134.215V397.429z"></path>
	<path id="ChestRightChest" d="M500.022,397.429H365.809v-37.56h134.214V397.429z"></path>
	<path id="ChestUpperFront1" d="M800.528,653.58H365.813V465.786h434.716V653.58z"></path>
	<path id="ChestUpperFront" d="M800.528,578.463H365.813V465.786h434.716V578.463z"></path>
	<path id="ChestCenterFront" d="M800.514,730.922H365.827V618.246h434.687V730.922z"></path>
	<path id="BackCenterBack" d="M1703.478,645.015h-446.805V344.542h446.805V645.015z"></path>
	<path id="BackLowerBack" d="M1703.478,765.203h-446.805v-75.117h446.805V765.203z"></path>
	<path id="BackCenterBack1" d="M1703.478,694.05h-446.805V393.578h446.805V694.05z"></path>
	<path id="BackUpperBack" d="M1632.747,349.317h-305.344v-75.118h305.344V349.317z"></path>
	<path id="SleeveLowerLeftSleeve" d="M1242.029,1787.956H1003.91v-112.677h238.119V1787.956z"></path>
	<path id="SleeveLowerLeftSleeve1" d="M1242.029,1787.956H1003.91v-37.559h238.119V1787.956z"></path>
	<path id="SleeveLowerRightSleeve" d="M662.331,1789.179H424.211v-112.678h238.119V1789.179z"></path>
	<path id="SleeveLowerRightSleeve1" d="M662.331,1789.179H424.211v-37.561h238.119V1789.179z"></path>
</g>
<g id="color02" opacity="100" fill="#ef60ae">
	<path d="M502.461,683.747c-15.769,4.875-23.925,15.192-24.246,30.661
		c-0.266,12.677-6.527,21.896-18.595,27.426c-16.022,7.336-23.403,19.093-22.561,35.947c0.742,14.86-6.582,24.711-23.026,31.027
		c-17.465,6.693-26.274,18.96-24.812,34.518c0.377,4.056-0.764,5.773-4.688,7.081c-7.856,2.615-11.114,1.341-13.663-1.329
		l-2.504-2.638c-16.511-17.387-32.257-33.964-41.964-53.732c7.125,9.086,15.425,17.408,23.614,25.608l2.902,2.914
		c2.604,2.615,6.228,3.258,9.43,3.823c0.987,0.166,1.962,0.332,2.849,0.576l9.585,2.682l-2.57-9.618
		c-0.244-0.875-0.366-1.851-0.499-2.814c-0.433-3.158-0.986-7.093-4.022-10.029c-16.844-16.256-30.806-35.559-41.499-57.378
		c-0.089-0.166-0.166-0.332-0.255-0.51c2.615,4.2,5.529,8.289,8.82,12.268c8.998,10.903,20.024,20.09,32.457,30.118
		c5.64,4.554,11.857,6.062,17.508,4.199c5.452-1.795,9.586-6.626,11.336-13.275c4.001-15.225-4.288-27.525-10.87-35.448
		c-4.311-5.197-8.688-10.36-13.064-15.524c-11.99-14.14-24.39-28.768-35.161-43.771c-15.458-21.553-23.88-45.355-25.442-72.161
		c3.957,16.566,10.793,32.191,17.785,47.129c12.412,26.495,32.202,48.701,58.819,65.999c10.006,6.505,23.725,8.188,31.006,8.61
		c13.086,0.687,24.057-6.571,28.722-19.148c5.386-14.494,1.54-27.515-10.561-35.692c-15.236-10.306-30.429-19.17-45.155-26.329
		c-38.641-18.805-61.501-44.745-69.89-79.308c-0.575-2.36-1.03-4.731-1.396-7.147c5.895,20.224,17.064,37.531,33.343,51.627
		c29.498,25.542,64.26,34.274,103.243,25.875l2.383-0.576c0.842-0.223,1.685-0.455,2.549-0.599
		c28.622-4.897,51.35-18.916,69.457-42.862c0.465-0.609,0.919-1.241,1.528-1.806c0.998-0.953,1.917-2.095,2.804-3.258
		c0.621-0.81,1.662-2.161,2.095-2.339c0.011,0,0.344-0.044,0.709-0.011c1.285,1.318,1.795,6.715,0.787,8.101
		c-7.669,8.92-15.514,17.707-23.359,26.495l-7.568,8.477c-1.929,2.15-3.911,4.267-5.896,6.383l-6.749,7.236l11.536,8.887
		l40.247-34.119c1.196,1.851,1.739,3.624,1.573,5.197c-0.365,3.469-4.022,6.339-7.025,8.145
		c-9.43,5.641-20.732,14.129-24.323,29.809C516.202,677.807,508.534,681.862,502.461,683.747z M784.41,725.124
		c-4.554,3.436-10.504,6.283-18.716,8.976c-17.253,5.662-33.354,1.518-41.931-10.838c-4.732-6.804-6.527-14.937-5.042-22.904
		c1.463-7.901,6.095-14.849,13.031-19.548c15.88-10.748,29.531-18.715,42.939-25.076c24.146-11.436,42.508-26.24,56.115-45.244
		c9.408-13.165,14.971-27.681,17.375-46.209c-9.064,32.479-27.038,54.963-55.794,70.232
		c-44.567,23.67-104.717,16.844-139.921-15.868c-4.843-4.499-9.176-9.386-13.375-14.117c-2.516-2.837-5.043-5.685-7.669-8.433
		c-0.697-0.721-1.229-1.196-1.64-1.507c-3.113,5.474-2.549,6.98-0.742,8.876c8.875,9.363,17.574,18.871,26.273,28.367l6.149,6.716
		c1.784,1.939,3.479,3.955,5.164,5.973l6.117,7.214l-11.713,8.256l-40.025-33.321l-2.781,5.596c0.454,0.332,0.897,0.676,1.341,1.008
		c4.022,3.004,8.167,6.106,11.746,9.807l2.326,2.383c5.764,5.852,11.702,11.901,14.639,19.37c4.3,10.971,9.53,16.355,18.617,19.204
		c15.114,4.742,23.203,15.025,23.381,29.741c0.166,13.087,6.017,22.151,17.896,27.715c16.588,7.756,24.2,19.935,23.292,37.243
		c-0.742,14.096,6.35,23.592,22.317,29.875c23.005,9.031,26.318,24.079,25.055,35.105c-0.277,2.415,0.089,4.875,4.587,6.526
		c8.521,3.103,11.192,1.739,12.678-0.011c3.878-4.61,7.89-9.187,11.89-13.763c11.868-13.542,24.124-27.526,32.923-42.441
		c-7.813,9.807-16.977,18.738-25.997,27.537c-2.704,2.614-6.116,3.18-9.142,3.679c-0.897,0.144-1.795,0.288-2.604,0.498
		l-8.388,2.261l1.307-8.588c0.111-0.731,0.134-1.507,0.167-2.282c0.121-2.727,0.266-6.117,2.481-9.109
		c2.25-3.036,4.92-5.629,7.491-8.134c1.784-1.728,3.579-3.468,5.163-5.318c13.397-15.769,23.991-31.748,31.893-48.181
		c-10.184,17.63-23.824,32.102-41.123,43.692c-7.08,4.743-13.419,6.173-18.893,4.223c-5.064-1.817-8.699-6.239-10.793-13.153
		c-1.175-3.846-1.308-8.4-0.433-13.918c1.884-11.791,9.607-19.979,17.076-27.913c1.474-1.563,2.959-3.125,4.377-4.721
		c25.642-28.723,54.708-61.269,60.26-102.246c0.487-3.646,0.831-7.358,1.063-11.093c-3.225,10.882-7.513,21.42-11.724,31.759
		C832.003,680.278,812.833,703.781,784.41,725.124z M551.55,394.462c5.23,11.491,4.632,21.497-1.795,29.752
		c-7.28,9.342-7.602,18.439-1.042,29.521c5.33,8.964,4.389,18.316-2.648,26.317c-5.484,6.228-5.828,12.345-1.085,19.259
		c8.089,11.769,4.365,21.464,0.221,28.601c-4.012,6.915-3.446,13.319,1.773,20.179c2.648,3.491,3.18,7.713,3.612,11.104
		c0.144,1.086,0.277,2.172,0.487,3.202c0.443,2.095,0.654,4.322,0.864,6.549c0.311,3.514,0.621,6.838,1.973,8.478
		c4.909,5.939,9.906,13.043,7.535,22.351c-0.343,16.001,6.671,29.853,21.442,42.33c0.964,0.82,1.43,0.953,1.507,0.975
		c0-0.021,0.377-0.144,1.108-0.764c15.99-13.52,22.871-27.647,21.675-44.447c-0.443-6.183,1.828-13.042,5.807-17.485
		c4.698-5.22,6.039-9.464,4.82-15.138c-0.998-4.62-0.742-11.679,3.225-16.389c5.995-7.125,6.582-13.896,1.928-21.963
		c-3.567-6.149-7.425-15.602,0.166-26.572c6.339-9.153,4.344-13.696,1.884-16.634c-9.242-11.036-10.25-22.395-3.047-34.728
		c4.51-7.724,4.089-14.594-1.33-21.608c-8.3-10.793-9.009-23.16-2.05-35.76c2.515-4.554,4.344-9.451,6.271-14.648l1.33-3.568
		c3.169-8.355,2.56-16.478-1.861-24.821c-3.956-7.458-12.91-10.195-20.356-6.294c-13.131,6.914-25.686,6.859-39.538-0.156
		c-7.213-3.701-15.934-0.919-19.846,6.195c-4.765,8.676-5.419,16.954-1.995,25.287C545.445,380.588,548.381,387.559,551.55,394.462z
		 M799.614,560.524l-7.203,2.593c-22.295,8.012-45.344,16.3-68.404,23.681c-7.557,2.404-17.319,2.338-24.312-0.134
		c-11.126-3.934-21.409-9.696-31.825-15.757c-7.137-4.145-13.918-8.754-20.478-13.209c-1.63-1.108-3.259-2.216-4.888-3.302
		c-3.146,3.347-5.928,7.612-5.784,12.156c0.155,5.396,4.478,9.796,8.067,12.543c2.315,1.763,4.599,3.558,6.87,5.364
		c5.74,4.543,11.17,8.831,17.143,12.488c10.971,6.737,22.329,13.729,36.103,10.471c43.139-10.083,79.496-25.154,111.144-46.053
		c13.298-8.776,21.62-19.226,25.454-31.925c3.668-12.178,4.056-22.562,1.086-31.881c-0.454,2.338-0.887,4.677-1.286,7.015
		C837.588,526.15,829.744,549.687,799.614,560.524z M352.954,561.788c30.03,19.38,64.492,33.952,105.327,44.523
		c11.347,2.959,20.521,2.128,28.023-2.571c14.295-8.931,28.124-19.004,41.499-28.744l3.358-2.438
		c0.354-0.311,0.864-1.43,0.886-1.939c-1.385-5.74-3.768-11.613-5.939-16.6c-0.188,0.11-0.388,0.243-0.62,0.41l-3.479,2.481
		c-8.765,6.25-17.818,12.711-27.647,18.074c-1.807,0.986-3.612,2.027-5.43,3.08c-12.09,6.959-25.786,14.859-43.316,9.076
		c-27.647-9.153-55.473-19.082-82.699-29.532c-15.425-5.917-25.985-17.331-30.562-33.011c-1.729-5.906-2.98-11.935-4.233-17.962
		c-0.598-2.849-1.186-5.696-1.839-8.533c-0.831,3.258-1.485,6.416-1.674,9.541C323.19,531.182,332.188,548.379,352.954,561.788z
		 M743.033,496.93c-21.541,1.617-43.472,2.238-64.681,2.837l-21.209,0.642c-6.859,0.223-11.923,2.305-14.262,5.84
		c-2.415,3.646-1.44,8.256-0.188,11.48c0.81,2.139,1.064,2.692,4.101,2.526c7.247-0.222,14.516-0.166,21.763-0.144l14.506,0.133
		l3.036,0.011c6.306,0.056,12.577,0.101,18.85-0.088c39.56-1.108,74.398-10.86,103.575-28.989
		c9.475-5.884,21.188-15.701,23.182-29.011c0.897-5.994-0.288-12.166-3.513-18.472c1.995,12.278-3.956,21.32-18.771,30.008
		C794.095,482.679,770.547,494.846,743.033,496.93z M404.847,510.781c34.03,10.937,70.531,10.194,105.958,9.485l12.722-0.244
		c0.221,0,0.608-0.089,0.941-0.199c2.947-5.297,3.003-9.885,0.222-15.148c-1.784-3.38-4.277-3.967-11.358-4.111
		c-15.06-0.332-30.097-0.554-45.134-0.775l-16.644-0.244c-34.44-0.543-65.845-9.419-93.337-26.395
		c-8.134-5.031-20.411-12.621-17.696-27.083c0.321-1.729,0.698-3.435,1.13-5.13c-6.039,10.727-7.546,23.603,1.796,35.482
		C357.664,494.48,379.67,502.669,404.847,510.781z M800.489,404.646c-0.311,6.527-5.585,11.114-10.139,14.395
		c-7.923,5.685-17.42,10.837-28.235,15.313c-34.063,14.118-70.154,17.132-107.222,19.192c-11.535,0.644-11.535,0.644-14.871,9.563
		c-1.917,5.12-1.661,9.552,0.677,12.167c2.571,2.881,7.568,3.635,13.773,2.084c39.593-10.007,80.173-21.143,120.618-33.111
		c13.431-3.979,24.557-13.152,33.056-27.293c1.263-2.094,5.098-8.477-3.147-16.976c-2.448-2.516-5.318-4.488-8.532-5.896
		C798.893,397.099,800.689,400.634,800.489,404.646z M400.115,446.953c28.28,8.344,58.221,16.811,89.016,25.165
		c6.427,1.74,12.987,2.904,19.935,4.145c3.68,0.654,7.347,1.308,10.993,2.039c2.814,0.609,4.765,0.166,7.413-3.579
		c3.745-5.274,2.914-10.206-3.214-18.839c-0.487-0.642-2.582-1.795-4.155-1.961c-4.976-0.51-9.984-0.72-14.992-0.93
		c-4.81-0.2-9.619-0.41-14.395-0.854c-29.011-2.727-59.706-6.449-88.018-19.148c-9.608-4.311-19.094-9.951-27.427-16.334
		c-4.775-3.646-7.291-7.734-7.479-12.134c-0.145-3.313,1.008-6.56,3.502-9.84c-3.38,1.285-6.327,3.058-7.979,5.042
		c-7.048,8.488-5.075,14.15-2.571,18.14C369.664,432.093,382.917,441.878,400.115,446.953z M635.734,406.13
		c-1.95,3.613-1.961,7.303-0.033,10.373c2.338,3.733,7.059,6.017,12.622,5.584c12.666-0.531,25.076-1.563,36.899-3.059
		c33.609-4.244,63.02-15.158,87.42-32.434c2.748-1.939,4.621-5.275,5.152-9.143c0.511-3.712-0.321-7.225-2.282-9.641
		c-4.277-5.252-9.464-9.353-15.525-12.256c2.028,2.394,3.425,5.485,3.292,9.63c-0.233,6.726-3.446,15.968-17.408,21.786
		l-1.829,0.797c-2.36,1.042-4.754,2.051-7.258,2.615l-8.844,2.084c-18.96,4.51-38.562,9.174-59.716,6.293
		c-1.872,0-3.768,0.045-5.674,0.09c-4.82,0.088-9.784,0.188-14.76-0.223c-0.587-0.044-1.152-0.077-1.673-0.077
		C641.408,398.551,638.737,400.589,635.734,406.13z M409.168,355.589c-1.861,0.765-3.602,1.617-5.164,2.582
		c-10.804,6.748-14.483,12.389-13.098,20.113c1.452,8.121,8.754,12.078,17.209,16.643l1.407,0.766
		c31.261,16.998,68.327,25.652,113.294,26.45c2.837,0.044,5.308-0.721,5.862-1.163c6.626-5.896,6.105-10.029,4.709-13.287
		c-2.947-6.893-4.964-8.676-14.461-8.976c-3.424-0.11-6.271-0.222-9.063,0.077c-23.67,2.527-48.447-0.121-77.835-8.377
		c-6.959-1.95-14.062-5.629-19.48-10.095c-6.671-5.485-7.846-11.07-7.657-14.782C405.024,362.847,405.977,359.257,409.168,355.589z
		 M368.589,347.622c-0.532-0.355,1.861-0.344,10.128-3.968c3.924-1.718,7.713-3.834,11.503-5.929
		c7.235-4.011,14.716-8.156,23.181-9.895c12.29-2.504,25.199-2.35,37.677-2.205c3.147,0.043,6.438,0.088,9.419,0.076
		c0.066,0,0.145,0,0.21,0c20.046,0,37.145,5.475,50.852,16.268c0.677,0.543,6.771,5.176,10.272,1.995
		c0.354-0.599,0.477-3.302,0.543-4.92c0.022-0.577,0.056-1.152,0.089-1.718l-8.876-6.715l18.894-5.563
		c2.438-0.721,3.602-1.829,3.878-2.638c0.344-0.987-0.377-2.238-0.842-2.903c-3.668-5.176-12.677-8.543-20.91-7.891
		c-16.444,1.353-33.997,2.371-53.666,3.092c-5.53,0.2-11.104,0.078-16.655-0.033c-3.346-0.066-6.615-0.144-9.84-0.144
		c-4.82,0-9.52,0.155-14.184,0.698c-24.058,2.76-39.971,10.527-50.087,24.412c-2.36,3.246-2.981,5.54-2.781,6.604
		C367.426,346.437,367.525,346.935,368.589,347.622z M636.709,325.05c3.79,0.819,7.912,2.183,9.74,6.084
		c1.762,3.766,0.311,7.501-1.341,10.659c-0.188,0.354-0.576,1.196-0.277,1.64c0.344,0.521,1.729,1.241,4.001,0.931
		c2.105-0.232,4.477-1.329,6.991-2.481c1.164-0.532,2.327-1.064,3.491-1.541c3.181-1.296,6.316-2.703,9.463-4.1
		c7.115-3.17,14.461-6.449,22.318-8.599c6.582-1.806,13.475-2.095,20.145-2.383c2.749-0.122,5.497-0.243,8.2-0.466
		c4.267-0.531,8.455-0.786,12.577-0.786c18.506,0,35.549,5.263,50.796,15.735c3.579,2.471,7.469,4.976,11.592,6.637
		c1.44,0.576,3.457,1.02,4.843,1.197c0.664-1.23,1.041-2.526,0.975-3.08c-2.859-5.84-6.338-10.494-10.217-13.431
		c-15.912-12.09-35.438-17.242-63.96-17.054c-27.87,0.344-49.19-0.443-69.147-2.35c-9.087-0.908-15.613,0.986-22.384,6.416
		c-2.139,1.719-2.914,3.357-2.726,4.145C632,323.11,633.628,324.374,636.709,325.05z M618.448,670.294
		c-8.3-1.772-16.722-3.136-25.144-4.51l-6.516-1.086l-3.967,0.543c-1.551,0-3.125-0.066-4.698-0.122
		c-3.114-0.144-6.051-0.267-8.644,0.188c-7.104,1.186-14.571,2.549-20.933,5.087c-2.083,0.83-3.502,1.85-3.867,2.803
		c-0.344,0.876-0.056,2.372,0.81,4.2c1.983,4.232,1.551,8.644,1.163,12.532c-0.167,1.662-0.366,3.336-0.255,4.932l0.1,2.083
		c0.078,1.685,0.21,4.81,0.787,5.563c-0.012-0.033,0.011-0.033,0.065-0.033c0.389,0,2.294,0.355,7.547,0.1
		c2.161-0.11,4.81-1.174,7.369-2.205c19.857-7.912,37.344-7.701,54.331,0.333c0.665,0.321,2.194,0.487,3.457,0.421
		c0-0.499-0.011-1.031-0.022-1.463c-0.022-1.229-0.033-2.449,0.067-3.546c0.132-1.463,0.099-2.98,0.088-4.488
		c-0.033-4.044-0.077-8.632,2.072-12.887c1.651-3.236,1.839-5.197,1.485-5.951C623.389,672.056,621.816,671.015,618.448,670.294z
		 M559.518,751.641c1.008-0.011,2.493-0.576,4.066-1.174c1.607-0.621,3.235-1.208,4.897-1.574l5.064-1.163
		c5.896-1.396,12.001-2.826,18.329-3.158c6.537-0.377,12.986,0.587,19.226,1.463l3.922,0.543c0.677,0.1,1.197,0.133,1.596,0.144
		c-0.011-0.222-0.032-0.487-0.066-0.798c-0.432-3.934,0.355-8.41,2.14-12.277c1.573-3.358,2.005-5.918,1.329-7.646
		c-0.931-2.338-4.277-4.078-6.926-5.131c-5.009-1.994-10.505-3.435-15.823-4.831c-2.04-0.532-4.057-1.063-6.007-1.606
		c-3.646,0.599-7.202,1.13-10.682,1.651c-8.378,1.252-16.289,2.438-23.825,4.344c-3.778,0.963-5.54,2.371-5.928,3.368
		c-0.444,1.119,0.576,2.892,1.042,3.602c4.343,6.682,4.543,12.888,0.619,20.123c-0.365,0.698-0.343,2.748,0.034,3.424
		C552.737,750.965,555.141,751.729,559.518,751.641z M611.333,792.951c0.255-0.521,0.842-3.18,0.443-4.753l-0.288-1.108
		c-0.92-3.479-2.327-8.732,3.069-14.062c0.454-0.444,0.676-0.776,0.798-0.976c-0.232-0.056-0.82-0.477-2.017-0.898
		c-5.674-2.005-11.646-3.567-16.921-4.941l-4.731-1.264l-10.007,1.086c-7.879,0.876-14.893,1.651-21.94,2.184
		c-1.508,0.11-2.294,0.321-2.66,0.465c0.066,0.178,0.09,0.698,0.244,1.563c0.609,3.225,0.487,6.283,0.377,9.23
		c-0.056,1.407-0.122,2.814-0.066,4.211c0.044,1.241-0.022,2.604-0.1,3.979c-0.078,1.308-0.2,3.49,0.044,4.155
		c0.632,0.255,4.766,1.075,6.814,0.477c6.129-1.829,12.09-2.538,17.808-2.538c8.588,0,16.611,1.596,23.791,3.392
		C607.688,793.605,610.525,793.34,611.333,792.951z M445.582,353.993l3.324,1.219c6.992,2.582,14.217,5.253,21.265,6.117
		l2.549,0.299c15.769,1.895,32.08,3.846,45.909,13.94c0.433,0.321,1.13,0.609,1.928,0.876l0.443-1.662
		c-1.828-11.436-2.282-11.537-15.957-14.639c-7.813-1.762-15.48-4.078-22.904-6.316c-5.852-1.773-11.713-3.546-17.663-5.053
		c-7.646-1.929-14.096-2.871-19.669-2.871c-1.796,0-3.026,0.422-3.502,1.319c-0.377,0.742-0.2,1.74,0.499,2.748
		C443.831,352.907,444.983,353.782,445.582,353.993z M698.974,361.474c12.6-0.998,21.154-4.366,26.905-10.594
		c1.463-1.585,1.861-2.938,1.607-3.524c-0.277-0.642-2.272-1.318-4.82-1.584c-6.616,0-13.697,1.827-19.946,3.446
		c-5.319,1.373-10.571,2.969-15.824,4.555c-7.479,2.271-15.226,4.62-23.138,6.326c-13.541,2.893-15.048,3.225-16.022,16.5
		c0.687-0.254,1.284-0.531,1.672-0.82C663.87,365.052,681.112,362.892,698.974,361.474z M600.873,812.82
		c-8.997-4.444-19.259-3.413-30.107-2.306c-2.294,0.233-5.241,0.532-6.749,0.876c-0.055,1.219,0.057,3.324,0.155,5.241
		c0.145,2.926-0.676,5.075-1.329,6.793c-0.222,0.588-0.466,1.175-0.599,1.772c-0.255,1.108-0.088,1.685-0.022,1.807
		c0.078,0.022,0.721,0.2,1.95-0.066c5.309-1.108,10.86-1.983,16.744-1.983c5.762,0,11.846,0.842,18.328,3.158
		c0.488-0.366,1.164-0.875,1.618-1.264c-0.012-0.842-0.077-1.673-0.145-2.516c-0.222-3.014-0.509-6.87,1.131-10.815
		C601.471,813.197,601.117,812.942,600.873,812.82z M600.895,851.117c-8.998-4.455-19.226-3.436-30.074-2.327
		c-2.449,0.243-5.33,0.542-6.805,0.875c-0.055,1.219,0.057,3.324,0.155,5.241c0.145,2.937-0.676,5.075-1.329,6.804
		c-0.222,0.588-0.466,1.164-0.599,1.762c-0.255,1.108-0.088,1.696-0.022,1.807c0.078,0.033,0.71,0.188,1.962-0.056
		c5.297-1.107,10.859-1.994,16.744-1.994c5.762,0,11.846,0.842,18.316,3.158c0.488-0.365,1.164-0.876,1.618-1.264
		c-0.012-0.842-0.077-1.673-0.145-2.504c-0.222-3.025-0.509-6.87,1.131-10.826C601.483,851.482,601.127,851.228,600.895,851.117z
		 M600.873,889.38c-8.997-4.455-19.259-3.413-30.107-2.305c-2.294,0.232-5.241,0.532-6.749,0.875
		c-0.055,1.208,0.057,3.324,0.155,5.23c0.145,2.937-0.676,5.087-1.329,6.804c-0.222,0.588-0.466,1.175-0.599,1.773
		c-0.255,1.107-0.088,1.685-0.022,1.806c0.078,0.022,0.721,0.2,1.95-0.066c5.309-1.107,10.871-1.983,16.756-1.983
		c5.772,0,11.846,0.843,18.316,3.158c0.488-0.365,1.164-0.875,1.618-1.263c-0.012-0.843-0.077-1.685-0.145-2.516
		c-0.222-3.015-0.509-6.87,1.131-10.815C601.471,889.757,601.117,889.502,600.873,889.38z M600.895,927.677
		c-9.009-4.467-19.204-3.425-30.019-2.339c-2.383,0.244-5.353,0.543-6.86,0.887c-0.055,1.219,0.057,3.324,0.155,5.241
		c0.145,2.937-0.676,5.075-1.329,6.804c-0.222,0.588-0.466,1.164-0.599,1.762c-0.255,1.109-0.088,1.696-0.022,1.807
		c0.078,0.045,0.71,0.178,1.962-0.056c5.297-1.107,10.859-1.994,16.744-1.994c5.762,0,11.846,0.842,18.316,3.158
		c0.488-0.365,1.164-0.875,1.618-1.264c-0.012-0.842-0.077-1.673-0.145-2.504c-0.222-3.025-0.509-6.87,1.131-10.826
		C601.483,928.042,601.127,927.787,600.895,927.677z M600.895,965.951c-9.043-4.466-19.271-3.425-30.13-2.316
		c-2.294,0.233-5.241,0.532-6.749,0.875c-0.055,1.208,0.057,3.324,0.155,5.23c0.145,2.937-0.676,5.087-1.329,6.804
		c-0.222,0.588-0.466,1.175-0.599,1.773c-0.243,1.108-0.1,1.685-0.022,1.795c0.078,0.034,0.71,0.178,1.962-0.056
		c5.308-1.107,10.859-1.983,16.744-1.983c5.762,0,11.846,0.843,18.316,3.158c0.488-0.365,1.164-0.875,1.618-1.273
		c-0.012-0.832-0.077-1.674-0.145-2.505c-0.222-3.025-0.509-6.87,1.131-10.826C601.483,966.316,601.127,966.072,600.895,965.951z
		 M472.365,1179.496c-4.167-6.672-8.699-11.104-12.766-12.479c-4.223-1.439-9.974-1.041-15.559-0.664
		c-1.13,0.066-2.249,0.145-3.357,0.211c-2.208,15.697,1.535,26.725,12.067,34.85h28.633c-3.285-4.125-4.639-9.029-5.85-13.363
		C474.647,1184.848,473.816,1181.834,472.365,1179.496z M723.851,1167.285c-25.907-2.35-26.295-1.342-32.844,20.266
		c-1.635,5.402-5.45,9.992-9.809,13.863h30.229C724.443,1192.121,727.141,1183.832,723.851,1167.285z M622.016,1179.373
		l17.729-8.355c9.031-4.299,19.48-9.264,30.085-13.973c1.896-0.842,3.802-1.762,5.719-2.693c7.146-3.469,14.538-7.047,22.605-7.412
		c21.63-1.01,38.341-8.721,52.602-24.258c5.974-6.504,13.93-11.014,19.548-13.652c9.585-4.486,13.308-10.314,13.74-21.484
		c0.688-17.244,1.629-40.846,31.726-48.734c2.682-0.709,6.449-4.033,7.602-6.705c9.696-22.516,18.794-43.661,3.823-65.468
		c-4.222-6.149-7.025-12.854-9.74-19.326l-2.051-4.853c-10.594-24.368-71.972-45.732-99.53-34.651
		c-8.511,3.425-11.081,6.438-11.779,7.58c-12.444,19.968-25.521,41.521-36.845,63.883c-1.862,3.679-1.375,11.635-0.012,13.352
		c17.143,9.564,25.055,24.135,32.7,38.219c3.68,6.76,7.137,13.143,11.613,18.971c8.555,11.148,13.563,19.879,12.079,28.967
		c-1.209,7.324-6.494,13.785-17.165,20.943c-3.258,2.193-6.948,4.676-8.898,7.357c-19.071,26.041-44.003,42.529-78.487,51.871
		c-39.971,10.838-102.59,1.506-132.011-29.688c-2.238-2.371-4.454-4.775-6.66-7.191c-7.468-8.133-15.18-16.543-23.957-23.336
		c-9.463-7.336-14.505-15.338-14.992-23.781c-0.477-8.244,3.401-16.465,11.546-24.443c5.431-5.32,8.921-10.893,9.353-14.893
		c1.896-17.698,13.387-26.629,24.368-33.034c4.521-2.639,8.831-9.164,9.396-14.229c0.72-6.317-0.941-14.261-4.798-22.983
		c-3.104-7.003-7.025-13.674-11.181-20.743c-2.859-4.864-5.729-9.729-8.301-14.705c-9.641-18.616-23.192-26.905-40.202-25.01
		l-5.563,0.653c-27.415,3.137-55.771,6.395-71.84,26.916c-8.62,11.004-13.729,24.899-18.66,38.352
		c-1.252,3.402-2.504,6.794-3.801,10.129c-3.968,10.239-2.493,25.719,3.746,39.438c4.731,10.383,11.324,17.741,18.095,20.202
		c16.566,5.971,24.833,16.664,25.266,32.666c0.598,22.705,9.507,36.391,28.888,44.381c3.313,1.361,5.862,3.811,8.111,6.26
		c14.317,15.459,29.188,22.385,48.148,22.385c0.222,0,0.443,0,0.676,0c8.609,0,17.064,3.934,24.533,7.412l2.582,1.186
		c11.47,5.242,22.684,10.904,32.435,15.824l18.029,9.01l-12.123,9.828c-4.495,3.557-9.521,7.549-14.341,11.857h41.95
		c9.018-6.025,16.822-9.043,24.649-9.043c7.83,0,15.693,3.02,24.829,9.043h42.327c-5.552-4.021-10.642-8.238-15.196-12.012
		L622.016,1179.373z M651.137,1002.574c-0.277-3.102-1.108-7.092-3.524-8.51c-2.692-1.574-8.089-0.699-14.805,2.35
		c-33.376,15.104-66.054,15.146-99.83,0.1c-8.754-3.891-12.909-3.469-14.838-2.416c-2.061,1.119-3.456,3.955-4.154,8.443
		c-1.086,6.871-8.322,13.531-14.583,16.289c-5.807,2.572-9.441,5.874-10.815,9.831c-1.884,5.463,0.576,11.957,2.97,16.432
		c2.471,4.631,12.987,10.117,22.938,11.969c6.726,1.262,14.305,0.387,23.891-0.688c4.843-0.543,10.084-1.143,15.846-1.529
		l26.717-1.807l-46.441,24.5c0.754,1.553,1.485,3.082,2.205,4.609c3.059,6.451,5.951,12.533,9.83,17.775
		c7.313,9.873,15.856,19.436,24.123,28.689l6.825,7.668c2.262,2.57,3.58,3.822,4.334,4.422c1.905-0.721,4.244-2.516,5.651-4.41
		c3.169-4.301,6.027-8.766,8.876-13.221c3.146-4.908,6.294-9.818,9.807-14.506c3.324-4.432,7.025-8.654,10.727-12.865
		c4.1-4.676,7.979-9.098,11.358-13.807c2.172-3.037,2.017-4.189,2.005-4.199c-0.266-1.053-4.576-3.104-6.648-4.09
		c-5.097-2.426-11.458-5.451-13.74-11.779l-3.202-8.887l9.353,1.34c2.925,0.422,5.695,0.91,8.354,1.375
		c5.374,0.932,10.018,1.752,14.594,1.807l4.82,0.111c15.414,0.453,25.066,0,29.332-9.752c3.734-8.543,4.588-15.059,2.604-19.912
		c-1.784-4.356-6.15-7.967-12.999-10.727C657.564,1015.107,651.68,1008.736,651.137,1002.574z M646.804,774.191
		c-8.699,0.875-15.271,0.62-20.888,2.504c-2.626,0.876-3.956,5.773-4.731,9.054c-0.222,0.931,3.579,3.689,5.551,3.701
		c5.773,0.044,11.558-0.876,19.227-1.596C646.162,784.52,646.472,779.698,646.804,774.191z M547.229,772.02
		c-5.74-2.97-13.298-3.313-21.476-5.131c0,5.84,0,10.704,0,14.229c7.724,1.24,14.361,2.305,21.764,3.501
		C550.52,780.773,553.778,775.41,547.229,772.02z M538.475,809.352c-0.931,4.233-1.695,7.779-2.272,10.405
		c6.538,1.751,11.592,3.103,16.633,4.443C557.845,815.979,557.845,815.979,538.475,809.352z M628.321,813.718
		c-20.023,2.659-21.675,4.101-15.879,11.935c5.341-0.576,10.405-1.131,16.788-1.828
		C628.953,820.787,628.642,817.297,628.321,813.718z M538.475,846.186c-0.931,4.244-1.695,7.779-2.272,10.416
		c6.538,1.751,11.592,3.103,16.633,4.443C557.845,852.823,557.845,852.823,538.475,846.186z M628.321,850.563
		c-20.023,2.659-21.675,4.1-15.879,11.935c5.341-0.576,10.405-1.131,16.788-1.829C628.953,857.632,628.642,854.142,628.321,850.563z
		 M538.475,885.225c-0.931,4.244-1.695,7.779-2.272,10.405c6.538,1.751,11.592,3.103,16.633,4.443
		C557.845,891.851,557.845,891.851,538.475,885.225z M628.321,889.602c-20.023,2.648-21.675,4.089-15.879,11.923
		c5.341-0.575,10.405-1.13,16.788-1.828C628.953,896.66,628.642,893.181,628.321,889.602z M538.475,922.069
		c-0.931,4.233-1.695,7.779-2.272,10.405c6.538,1.751,11.592,3.103,16.633,4.443C557.845,928.695,557.845,928.695,538.475,922.069z
		 M628.321,926.446c-20.023,2.648-21.675,4.089-15.879,11.924c5.341-0.576,10.405-1.131,16.788-1.829
		C628.953,933.505,628.642,930.025,628.321,926.446z M536.203,970.461c6.538,1.751,11.592,3.103,16.633,4.443
		c5.01-8.222,5.01-8.222-14.36-14.849C537.544,964.288,536.78,967.834,536.203,970.461z M612.442,976.355
		c5.341-0.576,10.405-1.13,16.788-1.828c-0.277-3.036-0.588-6.526-0.909-10.105C608.297,967.081,606.646,968.521,612.442,976.355z
		 M1513.546,1114.502c5.087,0.941,9.486,1.752,13.785,1.807l4.609,0.111c14.372,0.387,23.515-0.021,27.525-9.662
		c6.672-16.068,3.846-24.99-9.762-30.773c-5.541-2.35-10.627-9.02-11.092-14.582c-0.267-3.191-1.075-7.26-3.413-8.611
		c-2.416-1.385-7.336-0.52-13.498,2.416c-31.913,15.191-63.073,15.203-95.275,0.111c-8.001-3.768-11.779-3.447-13.541-2.494
		c-2.46,1.318-3.535,5.363-4.011,8.512c-1.02,6.869-7.935,13.52-13.93,16.299c-5.363,2.494-8.776,5.73-10.105,9.598
		c-1.939,5.584,0.432,12.232,2.759,16.809c2.327,4.6,12.211,10.029,21.597,11.881c6.316,1.229,13.486,0.377,22.551-0.699
		c4.599-0.555,9.563-1.141,15.037-1.541l25.564-1.828l-44.026,24.467c0.731,1.598,1.452,3.17,2.15,4.732
		c2.914,6.473,5.662,12.578,9.363,17.842c6.903,9.795,14.96,19.291,22.762,28.488l6.647,7.857c1.962,2.359,3.158,3.59,3.89,4.232
		c1.696-0.766,3.712-2.449,4.976-4.244c3.025-4.299,5.74-8.775,8.455-13.242c2.981-4.898,5.962-9.785,9.297-14.473
		c3.158-4.441,6.682-8.676,10.217-12.896c3.879-4.666,7.558-9.066,10.761-13.764c2.193-3.213,1.928-4.377,1.928-4.389
		c-0.288-1.074-4.167-3.025-6.262-4.066c-4.875-2.438-10.947-5.484-13.119-11.813l-3.037-8.854l9.253,1.408
		C1508.382,1113.561,1511.009,1114.037,1513.546,1114.502z M1516.184,729.975c-0.155-0.333-0.986-1.508-4.831-2.36
		c-7.879-1.773-15.857-3.136-23.836-4.511l-5.475-0.952l-0.11,0.41h-4.311c-1.485,0-2.98-0.067-4.466-0.122
		c-2.937-0.122-5.707-0.255-8.122,0.177c-6.704,1.187-13.763,2.549-19.758,5.064c-1.939,0.81-3.202,1.772-3.568,2.703
		c-0.377,0.942-0.1,2.516,0.753,4.444c1.873,4.178,1.452,8.555,1.086,12.41c-0.155,1.674-0.344,3.37-0.243,4.977l0.1,2.072
		c0.066,1.706,0.199,4.864,0.765,5.65c-0.033-0.055,0.011-0.077,0.145-0.077c0.498,0.012,2.382,0.266,6.748,0.033
		c1.95-0.1,4.41-1.141,6.781-2.149c19.094-8.001,35.858-7.757,52.093,0.343c0.532,0.256,1.895,0.41,2.781,0.366
		c0.012-0.51,0-1.053-0.011-1.496c-0.022-1.207-0.033-2.404,0.056-3.491c0.121-1.484,0.1-3.003,0.088-4.521
		c-0.044-4.022-0.077-8.577,1.95-12.787C1516.405,732.812,1516.571,730.773,1516.184,729.975z M1516.184,675.954
		c-0.155-0.343-0.997-1.507-4.831-2.371c-7.891-1.772-15.88-3.136-23.869-4.509l-5.407-0.942l-0.057,0.199l-4.398,0.211
		c-1.485,0-2.98-0.067-4.477-0.122c-2.926-0.145-5.707-0.244-8.09,0.177c-6.726,1.187-13.784,2.549-19.779,5.054
		c-1.929,0.809-3.202,1.783-3.568,2.714c-0.377,0.942-0.1,2.516,0.753,4.444c1.873,4.166,1.452,8.543,1.086,12.41
		c-0.155,1.674-0.344,3.358-0.243,4.965l0.1,2.084c0.066,1.694,0.199,4.853,0.754,5.629c-0.012-0.033,0.044-0.045,0.155-0.045
		c0.509,0,2.393,0.233,6.771,0.022c1.939-0.111,4.421-1.152,6.814-2.172c19.016-7.968,35.77-7.746,52.037,0.354
		c0.532,0.255,1.662,0.388,2.781,0.377c0.012-0.51,0-1.064-0.011-1.507c-0.022-1.208-0.033-2.394,0.056-3.48
		c0.121-1.484,0.1-3.003,0.088-4.532c-0.044-4.011-0.077-8.565,1.95-12.776C1516.405,678.792,1516.571,676.752,1516.184,675.954z
		 M1516.184,621.922c-0.155-0.333-0.986-1.507-4.831-2.36c-7.879-1.772-15.857-3.136-23.836-4.511l-5.475-0.952l-0.11,0.41h-4.311
		c-1.485,0-2.98-0.066-4.466-0.122c-2.937-0.122-5.707-0.243-8.122,0.177c-7.025,1.253-13.83,2.571-19.758,5.065
		c-1.929,0.809-3.202,1.771-3.568,2.714c-0.377,0.942-0.111,2.516,0.753,4.444c1.873,4.166,1.452,8.543,1.086,12.399
		c-0.155,1.673-0.344,3.369-0.243,4.976l0.1,2.072c0.066,1.706,0.199,4.864,0.765,5.65c-0.033-0.055,0.011-0.077,0.145-0.077
		c0.498,0.012,2.382,0.256,6.748,0.034c1.95-0.101,4.41-1.142,6.781-2.15c19.094-8,35.858-7.757,52.093,0.344
		c0.532,0.255,1.895,0.41,2.781,0.365c0.012-0.51,0-1.053-0.011-1.495c-0.022-1.208-0.033-2.405,0.056-3.491
		c0.121-1.485,0.1-3.003,0.088-4.521c-0.044-4.011-0.077-8.565,1.95-12.776C1516.405,624.759,1516.571,622.72,1516.184,621.922z
		 M1516.184,567.902c-0.155-0.344-0.997-1.507-4.831-2.371c-7.891-1.773-15.88-3.137-23.869-4.51l-5.407-0.942l-0.057,0.2
		l-4.398,0.21c-1.485,0-2.98-0.066-4.477-0.122c-2.926-0.145-5.707-0.255-8.09,0.177c-6.726,1.187-13.784,2.55-19.779,5.054
		c-1.929,0.809-3.202,1.783-3.568,2.715c-0.377,0.941-0.1,2.516,0.753,4.443c1.873,4.166,1.452,8.544,1.086,12.411
		c-0.155,1.673-0.344,3.357-0.243,4.964l0.1,2.084c0.066,1.695,0.199,4.863,0.765,5.65c-0.033-0.055,0.011-0.078,0.145-0.078
		c0.498,0,2.382,0.256,6.748,0.033c1.962-0.11,4.443-1.151,6.837-2.171c19.016-7.967,35.77-7.735,52.037,0.354
		c0.532,0.255,1.662,0.377,2.781,0.377c0.012-0.51,0-1.064-0.011-1.507c-0.022-1.208-0.033-2.394,0.056-3.479
		c0.121-1.485,0.1-3.003,0.088-4.521c-0.044-4.022-0.077-8.576,1.95-12.787C1516.405,570.739,1516.571,568.699,1516.184,567.902z
		 M1516.184,513.871c-0.155-0.332-0.986-1.508-4.831-2.36c-7.879-1.773-15.857-3.137-23.836-4.511l-5.44-0.941l-0.057,0.199
		l-4.398,0.211c-1.496,0-3.003-0.066-4.51-0.134c-2.926-0.121-5.696-0.243-8.078,0.178c-7.025,1.252-13.83,2.57-19.758,5.063
		c-1.929,0.809-3.202,1.773-3.568,2.715c-0.377,0.941-0.111,2.516,0.753,4.443c1.873,4.167,1.452,8.545,1.086,12.412
		c-0.155,1.673-0.344,3.357-0.243,4.963l0.1,2.073c0.066,1.707,0.199,4.865,0.765,5.651c-0.033-0.056,0.011-0.077,0.145-0.077
		c0.498,0,2.382,0.243,6.748,0.033c1.95-0.101,4.41-1.142,6.781-2.149c19.094-8.002,35.858-7.746,52.093,0.343
		c0.532,0.255,1.895,0.41,2.781,0.366c0.012-0.51,0-1.053-0.011-1.496c-0.022-1.209-0.033-2.404,0.056-3.49
		c0.121-1.486,0.1-3.004,0.088-4.521c-0.044-4.012-0.077-8.565,1.95-12.777C1516.405,516.707,1516.571,514.667,1516.184,513.871z
		 M1516.184,459.849c-0.155-0.332-0.986-1.507-4.831-2.359c-7.879-1.773-15.857-3.137-23.836-4.51l-5.475-0.954l-0.11,0.41h-4.311
		c-1.485,0-2.98-0.066-4.477-0.122c-2.926-0.145-5.707-0.244-8.09,0.178c-6.726,1.186-13.784,2.549-19.779,5.064
		c-1.939,0.809-3.202,1.773-3.568,2.703c-0.377,0.942-0.1,2.516,0.753,4.443c1.873,4.166,1.452,8.544,1.086,12.411
		c-0.155,1.673-0.344,3.368-0.243,4.976l0.1,2.072c0.066,1.707,0.199,4.863,0.765,5.652c-0.033-0.057,0.011-0.078,0.145-0.078
		c0.498,0,2.382,0.243,6.748,0.033c1.962-0.111,4.443-1.153,6.837-2.172c19.016-7.968,35.77-7.746,52.037,0.354
		c0.532,0.255,1.662,0.365,2.781,0.377c0.012-0.51,0-1.064-0.011-1.507c-0.022-1.208-0.033-2.394,0.056-3.479
		c0.121-1.485,0.1-3.003,0.088-4.521c-0.044-4.022-0.077-8.576,1.95-12.787C1516.405,462.686,1516.571,460.647,1516.184,459.849z
		 M1516.184,405.818c-0.155-0.332-0.997-1.508-4.831-2.36c-7.879-1.773-15.857-3.137-23.836-4.511l-5.44-0.941l-0.057,0.199
		l-4.398,0.211c-1.496,0-3.003-0.066-4.51-0.133c-2.926-0.122-5.696-0.244-8.078,0.178c-7.004,1.24-13.797,2.569-19.758,5.063
		c-1.929,0.808-3.202,1.783-3.568,2.715c-0.377,0.942-0.1,2.516,0.753,4.442c1.873,4.167,1.452,8.545,1.086,12.412
		c-0.155,1.673-0.344,3.357-0.243,4.965l0.1,2.071c0.066,1.707,0.199,4.865,0.765,5.651c-0.033-0.055,0.011-0.077,0.145-0.077
		c0.498,0,2.382,0.255,6.748,0.033c1.95-0.1,4.41-1.142,6.781-2.149c19.094-8.002,35.858-7.758,52.093,0.343
		c0.532,0.255,1.895,0.41,2.781,0.366c0.012-0.51,0-1.053-0.011-1.496c-0.022-1.209-0.033-2.404,0.056-3.49
		c0.121-1.484,0.1-3.004,0.088-4.521c-0.044-4.012-0.077-8.565,1.95-12.776C1516.405,408.666,1516.571,406.616,1516.184,405.818z
		 M1516.184,352.063c-0.155-0.333-0.986-1.507-4.831-2.36c-7.879-1.773-15.857-3.137-23.836-4.51l-5.475-0.953l-0.11,0.41h-4.311
		c-1.485,0-2.98-0.066-4.466-0.123c-2.937-0.121-5.707-0.243-8.122,0.178c-7.025,1.252-13.83,2.57-19.758,5.064
		c-1.929,0.809-3.202,1.773-3.568,2.715c-0.377,0.941-0.111,2.516,0.753,4.443c1.873,4.166,1.452,8.544,1.086,12.4
		c-0.155,1.672-0.344,3.368-0.243,4.975l0.1,2.072c0.066,1.707,0.199,4.865,0.765,5.652c-0.033-0.057,0.011-0.078,0.145-0.078
		c0.498,0,2.382,0.266,6.748,0.033c1.95-0.1,4.41-1.142,6.781-2.15c19.094-8,35.858-7.756,52.093,0.344
		c0.532,0.255,1.895,0.398,2.781,0.365c0.012-0.509,0-1.053-0.011-1.495c-0.022-1.208-0.033-2.405,0.056-3.491
		c0.121-1.484,0.1-3.002,0.088-4.521c-0.044-4.011-0.077-8.564,1.95-12.775C1516.405,354.9,1516.571,352.861,1516.184,352.063z
		 M1487.639,304.846l-6.084-0.72l-0.155,0.354h-3.778c-1.452,0-2.926-0.045-4.388-0.078c-1.363-0.044-2.738-0.088-4.09-0.088
		c-1.496,0-2.97,0.055-4.41,0.222c-6.815,0.819-13.973,1.763-20.102,3.501c-2.703,0.776-3.38,1.497-3.391,1.497
		c3.214,3.59,2.671,7.457,2.271,10.294c-0.133,0.998-0.276,2.039-0.221,2.67l0.11,1.508c0.033,0.721,0.11,1.895,0.255,2.359
		c0.011-0.254,1.008-0.121,3.646-0.132c1.02,0,2.294-0.012,3.856-0.077c2.271-0.078,4.865-0.82,7.38-1.541
		c18.595-5.285,34.895-5.131,50.686,0.222c0.765,0.255,2.382,0.299,3.468,0.354c-0.011-0.665,0.012-1.318,0.089-1.928
		c0.111-0.887,0.078-1.773,0.066-2.66c-0.044-2.858-0.099-6.771,2.427-10.327c0.377-0.521,0.621-0.931,0.776-1.253
		c-0.698-0.299-2.017-0.73-4.311-1.086C1503.772,306.719,1495.706,305.788,1487.639,304.846z M1506.188,778.156
		c-4.776-2.006-10.018-3.445-15.093-4.842c-1.861-0.511-3.689-1.02-5.485-1.541c-3.38,0.587-6.692,1.108-9.939,1.606
		c-7.979,1.253-15.514,2.438-22.661,4.355c-3.436,0.92-5.075,2.282-5.463,3.258c-0.466,1.175,0.421,2.903,0.985,3.834
		c4.078,6.627,4.256,12.766,0.588,19.901c-0.377,0.743-0.365,2.914,0.022,3.635c0.011,0,0.011,0,0.011,0
		c0.244,0,2.692,0.577,6.316,0.599c0.875-0.011,2.305-0.587,3.679-1.141c1.563-0.621,3.137-1.231,4.732-1.597l4.798-1.163
		c5.629-1.396,11.447-2.837,17.52-3.169c6.216-0.388,12.499,0.587,18.482,1.496l3.636,0.532c0.454,0.065,0.83,0.099,1.13,0.121
		c-0.012-0.233-0.022-0.51-0.056-0.832c-0.41-3.922,0.333-8.354,2.027-12.155c1.53-3.435,1.939-6.094,1.22-7.9
		C1511.906,781.325,1509.745,779.64,1506.188,778.156z M1504.481,850.338c0.199-0.499,0.765-3.246,0.377-4.897l-0.277-1.108
		c-0.875-3.413-2.183-8.588,2.903-13.885c0.488-0.499,0.721-0.886,0.82-1.097c-0.166-0.022-0.687-0.465-1.861-0.897
		c-5.33-1.995-10.948-3.535-15.902-4.888l-4.554-1.285l-9.485,1.087c-7.447,0.875-14.095,1.64-20.755,2.172
		c-1.274,0.11-1.962,0.287-2.306,0.409c0.078,0.188,0.089,0.743,0.256,1.662c0.564,3.191,0.454,6.217,0.343,9.143
		c-0.044,1.43-0.11,2.858-0.056,4.266c0.033,1.253-0.021,2.593-0.099,3.945c-0.067,1.352-0.188,3.601,0.066,4.277
		c0.609,0.254,4.354,0.897,6.017,0.399c5.895-1.84,11.612-2.561,17.087-2.561c8.212,0,15.868,1.606,22.728,3.413
		C1501.235,850.871,1503.762,850.66,1504.481,850.338z M1494.564,870.107c-8.422-4.41-18.052-3.368-28.224-2.282
		c-2.172,0.232-4.865,0.521-6.295,0.831c-0.055,1.241,0.045,3.38,0.145,5.318c0.144,2.871-0.632,4.998-1.252,6.705
		c-0.211,0.587-0.455,1.185-0.576,1.783c-0.244,1.131-0.101,1.773-0.011,1.95c-0.012-0.033,0.132,0,0.332,0
		c0.243,0,0.609-0.021,1.13-0.133c5.075-1.118,10.383-2.006,16.023-2.006c5.44,0,11.192,0.831,17.309,3.092
		c0.433-0.343,0.964-0.775,1.341-1.118c-0.011-0.865-0.077-1.729-0.144-2.594c-0.211-3.025-0.488-6.903,1.119-10.859
		C1495.106,870.484,1494.785,870.229,1494.564,870.107z M1494.564,908.381c-8.455-4.399-18.118-3.368-28.335-2.261
		c-2.083,0.222-4.765,0.511-6.184,0.82c-0.055,1.23,0.045,3.369,0.145,5.309c0.144,2.869-0.632,4.997-1.252,6.703
		c-0.211,0.599-0.455,1.197-0.576,1.796c-0.244,1.13-0.101,1.762-0.011,1.939c-0.012-0.012,0.099-0.012,0.32,0
		c0.233,0,0.609-0.023,1.131-0.134c5.086-1.107,10.405-2.005,16.034-2.005c5.452,0,11.192,0.831,17.309,3.103
		c0.433-0.354,0.964-0.775,1.341-1.119c-0.011-0.864-0.077-1.729-0.144-2.594c-0.211-3.036-0.488-6.903,1.119-10.87
		C1495.106,908.758,1494.785,908.504,1494.564,908.381z M1494.564,946.667c-8.422-4.399-18.052-3.357-28.224-2.283
		c-2.172,0.233-4.865,0.521-6.295,0.831c-0.055,1.241,0.045,3.38,0.145,5.319c0.144,2.87-0.632,4.997-1.252,6.704
		c-0.211,0.587-0.455,1.186-0.576,1.784c-0.244,1.13-0.101,1.762-0.011,1.938c-0.012-0.01,0.11-0.01,0.31,0
		c0.232,0,0.609-0.021,1.142-0.133c5.075-1.108,10.394-1.994,16.022-1.994c5.452,0,11.192,0.831,17.32,3.092
		c0.433-0.344,0.964-0.776,1.341-1.12c-0.011-0.864-0.077-1.728-0.144-2.592c-0.211-3.026-0.488-6.894,1.119-10.871
		C1495.106,947.043,1494.785,946.79,1494.564,946.667z M1494.564,984.942c-8.455-4.411-18.118-3.369-28.335-2.261
		c-2.083,0.222-4.765,0.51-6.184,0.82c-0.055,1.229,0.045,3.368,0.145,5.308c0.144,2.881-0.632,5.009-1.252,6.715
		c-0.222,0.599-0.455,1.186-0.576,1.784c-0.244,1.119-0.101,1.762-0.011,1.939c-0.012-0.034,0.132,0,0.332,0
		c0.243,0,0.609-0.022,1.13-0.133c5.075-1.119,10.395-2.007,16.023-2.007c5.452,0,11.192,0.831,17.309,3.092
		c0.433-0.343,0.964-0.765,1.341-1.107c-0.011-0.864-0.077-1.74-0.144-2.604c-0.211-3.024-0.488-6.892,1.119-10.859
		C1495.106,985.319,1494.785,985.063,1494.564,984.942z M1494.564,1023.227c-8.422-4.41-18.052-3.369-28.224-2.282
		c-2.172,0.231-4.865,0.521-6.295,0.83c-0.055,1.241,0.045,3.379,0.145,5.319c0.144,2.871-0.632,4.986-1.252,6.693
		c-0.211,0.6-0.455,1.197-0.576,1.795c-0.244,1.131-0.101,1.762-0.011,1.939c-0.012-0.012,0.11-0.012,0.31,0
		c0.232,0,0.609-0.021,1.142-0.133c5.075-1.107,10.394-1.994,16.022-1.994c5.452,0,11.192,0.832,17.32,3.092
		c0.433-0.344,0.964-0.775,1.341-1.119c-0.011-0.865-0.077-1.73-0.144-2.594c-0.211-3.025-0.488-6.904,1.119-10.871
		C1495.106,1023.604,1494.785,1023.349,1494.564,1023.227z M1514.066,843.08c-0.21,0.932,3.402,3.68,5.286,3.69
		c5.485,0.045,10.981-0.875,18.251-1.585c0.199-3.347,0.487-8.166,0.82-13.673c-8.278,0.875-14.517,0.632-19.857,2.504
		C1516.072,834.892,1514.798,839.8,1514.066,843.08z M1423.412,838.449c7.336,1.241,13.641,2.305,20.677,3.49
		c2.849-3.846,5.951-9.197-0.276-12.588c-5.452-2.98-12.633-3.324-20.4-5.142C1423.412,830.06,1423.412,834.914,1423.412,838.449z
		 M1435.502,866.672c-0.887,4.244-1.618,7.779-2.173,10.405c6.217,1.75,11.026,3.103,15.803,4.443
		C1453.896,873.298,1453.896,873.298,1435.502,866.672z M1520.849,871.049c-19.016,2.648-20.589,4.089-15.081,11.924
		c5.075-0.577,9.895-1.131,15.945-1.818C1521.458,878.108,1521.159,874.628,1520.849,871.049z M1435.502,903.518
		c-0.887,4.242-1.618,7.777-2.173,10.404c6.217,1.751,11.026,3.103,15.803,4.443
		C1453.896,910.144,1453.896,910.144,1435.502,903.518z M1520.849,907.894c-19.016,2.648-20.589,4.089-15.081,11.923
		c5.075-0.575,9.895-1.13,15.945-1.816C1521.458,914.953,1521.159,911.474,1520.849,907.894z M1435.502,942.545
		c-0.887,4.244-1.618,7.779-2.173,10.415c6.217,1.74,11.026,3.093,15.803,4.444C1453.896,949.182,1453.896,949.182,1435.502,942.545
		z M1520.849,946.921c-19.016,2.659-20.589,4.089-15.081,11.935c5.075-0.587,9.895-1.129,15.945-1.828
		C1521.458,953.992,1521.159,950.501,1520.849,946.921z M1435.502,979.389c-0.887,4.244-1.618,7.779-2.173,10.417
		c6.217,1.74,11.026,3.092,15.803,4.444C1453.896,986.028,1453.896,986.028,1435.502,979.389z M1520.849,983.767
		c-19.016,2.659-20.589,4.101-15.081,11.935c5.075-0.587,9.895-1.142,15.945-1.828
		C1521.458,990.837,1521.159,987.346,1520.849,983.767z M1433.329,1027.781c6.217,1.752,11.026,3.104,15.803,4.443
		c4.765-8.222,4.765-8.222-13.63-14.848C1434.615,1021.621,1433.884,1025.154,1433.329,1027.781z M1505.768,1033.688
		c5.075-0.588,9.895-1.141,15.945-1.828c-0.255-3.047-0.554-6.527-0.864-10.106
		C1501.833,1024.401,1500.26,1025.842,1505.768,1033.688z M1700.22,1004.489l-1.928-4.81c-4.267-10.327-18.439-21.464-36.968-29.065
		c-21.63-8.876-44.036-11.037-57.09-5.519c-8.012,3.402-10.428,6.383-11.081,7.502c-11.846,20.012-24.29,41.599-35.017,63.905
		c-1.784,3.723-1.318,11.803,0,13.553c16.268,9.553,23.791,24.123,31.061,38.219c3.49,6.76,6.793,13.143,11.048,18.971
		c8.145,11.182,12.898,19.936,11.414,28.988c-1.187,7.213-6.206,13.619-16.278,20.744c-2.937,2.061-6.571,4.621-8.444,7.313
		c-18.14,26.098-41.887,42.607-74.731,51.973c-38.108,10.893-97.813,1.506-125.849-29.775c-2.128-2.383-4.233-4.789-6.338-7.203
		c-7.093-8.135-14.417-16.533-22.728-23.314c-8.965-7.314-13.752-15.26-14.251-23.615c-0.477-8.199,3.202-16.422,10.948-24.412
		c5.175-5.34,8.499-10.926,8.909-14.947c1.807-17.652,12.732-26.605,23.183-33.021c4.199-2.582,8.354-9.242,8.897-14.262
		c0.676-6.383-0.908-14.373-4.576-23.093c-2.948-7.015-6.671-13.685-10.605-20.733c-2.726-4.887-5.451-9.763-7.9-14.749
		c-9.12-18.505-21.797-26.86-37.831-24.899l-5.353,0.654c-25.93,3.136-52.746,6.383-67.938,26.806
		c-8.201,11.015-13.055,24.943-17.764,38.408c-1.175,3.391-2.36,6.77-3.59,10.094c-7.049,19.148,4.908,53.777,20.644,59.75
		c15.802,6.018,23.681,16.699,24.091,32.656c0.576,22.76,9.02,36.457,27.37,44.402c3.225,1.406,5.662,3.877,7.813,6.338
		c13.529,15.393,27.581,22.285,45.477,22.285c0.211,0,0.443,0,0.643,0c8.256,0,16.301,3.934,23.415,7.412l2.516,1.23
		c10.837,5.219,21.442,10.848,30.661,15.746l17.22,9.043l-11.502,9.828c-4.565,3.813-9.973,8.322-14.981,13.164
		c-6.76,6.551-12.998,7.604-17.187,7.26c-5.553-0.41-10.594-3.369-14.583-8.578c-3.158-4.143-4.455-9.074-5.596-13.418
		c-0.843-3.215-1.641-6.262-3.036-8.611c-3.891-6.537-8.268-11.059-12.001-12.398c-3.901-1.375-9.32-1.01-14.572-0.633
		c-0.986,0.066-1.973,0.133-2.947,0.199c-2.715,20.391,4,32.9,21.94,41.377c5.784,2.738,10.36,6.938,14.793,11.004
		c1.43,1.32,2.849,2.627,4.312,3.867c15.369,13.066,31.691,13.188,44.778,0.389c41.576-40.68,55.218-40.713,97.326-0.377
		c17.729,16.988,34.872,8.766,46.131-1.131c5.363-4.697,11.68-10.072,18.815-14.449c19.713-12.057,24.135-20.047,20.367-39.971
		c-24.102-2.338-24.456-1.217-30.617,20.189c-2.549,8.877-10.737,15.604-17.619,20.535c-6.604,4.742-19.769-4.742-19.913-4.844
		c-6.25-4.564-11.912-9.506-16.909-13.873l-11.547-9.861l16.699-8.301c8.6-4.311,18.562-9.297,28.656-14.018
		c1.784-0.832,3.579-1.75,5.385-2.67c6.849-3.492,13.93-7.104,21.709-7.48c20.422-1.008,36.213-8.676,49.698-24.145
		c5.685-6.527,13.286-11.049,18.661-13.697c9.053-4.488,12.577-10.316,12.987-21.543c0.643-17.207,1.529-40.777,30.285-48.723
		c2.471-0.688,5.961-3.967,7.047-6.627c9.242-22.551,17.919-43.76,3.635-65.667
		C1705.461,1017.686,1702.801,1010.971,1700.22,1004.489z M1284.344,904.404c6.626-0.521,13.064-5.042,19.114-13.453
		c5.796-8.034,13.752-16.122,24.335-24.732c10.848-8.843,16.81-18.661,18.206-30.009c1.44-11.689,5.606-21.817,12.732-30.96
		c3.113-4,6.017-8.145,8.909-12.29c4.643-6.637,9.452-13.496,15.125-19.757c7.292-8.045,16.068-14.372,24.712-17.819
		c5.02-1.993,4.976-3.335,4.875-6.593c-0.21-6.715,0.478-15.446,7.624-23.426c1.74-1.938,2.084-3.18-0.254-5.873
		c-5.087-5.851-5.375-11.347-4.722-14.915c0.942-5.142,4.499-9.74,10.063-13.087c-0.167-0.764-0.344-1.518-0.51-2.271
		c-1.119-4.82-2.262-9.818-0.843-14.771c0.854-2.991,0.455-4.721-1.861-7.38l-0.654,0.422c-3.279,2.094-6.449,4.122-9.541,6.238
		c-4.321,2.969-8.543,6.072-12.776,9.187c-8.897,6.538-18.106,13.298-28.212,18.693c-28.567,15.204-56.581,19.182-81.004,11.502
		c-21.818-6.859-39.825-23.17-52.07-47.172c-5.485-10.749-9.264-22.196-12.932-33.266c-1.285-3.89-2.571-7.79-3.934-11.646
		c-1.075,40.757,17.054,76.261,55.239,108.374c16.079,13.563,33.443,15.668,51.538,6.261c3.979-2.051,7.979-4.044,11.99-6.051
		c5.253-2.626,10.516-5.24,15.691-8c6.161-3.28,12.222-6.704,18.683-10.35l15.37-8.622l2.216,6.405
		c3.756,10.849-0.632,18.672-3.547,23.848c-8.742,15.58-21.586,29.73-39.26,43.249c-28.069,21.453-60.071,19.026-83.485-6.405
		c-10.095-10.947-18.684-22.395-25.531-34.008l-1.696-2.87c-8.842-14.959-17.906-30.285-23.979-46.873
		c3.534,47.66,23.049,84.582,59.595,112.772c16.654,12.854,30.251,15.924,45.377,10.295c2.294-0.843,4.299-0.233,5.629,0.177
		l8.089,1.795l-2.792,6.373c-0.288,0.664-0.51,1.317-0.731,1.938c-0.653,1.861-1.407,3.979-3.092,5.862
		c-1.518,1.695-3.003,3.413-4.487,5.13c-4.82,5.585-9.808,11.348-15.813,16.256c-17.707,14.495-35.869,12.966-51.173-4.277
		c-3.092-3.479-6.338-7.224-9.163-11.347c-17.93-26.361-29.155-50.309-34.84-74.477c0.531,25.775,5.451,51.14,14.672,75.618
		c7.402,19.624,17.331,42.098,34.972,59.971C1266.148,898.098,1274.946,905.125,1284.344,904.404z M1738.361,785.502
		c-9.94,25.653-22.85,45.976-39.461,62.132c-9.241,8.977-20.888,11.171-32.844,6.228c-14.894-6.194-26.063-16.854-36.202-34.584
		l-1.485-2.592l2.416-6.151l2.56-0.897c0.875-0.432,2.56-1.263,4.742-0.997c1.807,0.199,3.724,0.676,5.585,1.23
		c11.137,3.257,20.578,2.293,28.789-2.947c7.259-4.633,15.503-9.885,22.252-15.957c31.681-28.513,48.313-64.459,50.795-109.814
		c-3.646,9.508-7.28,18.671-11.568,27.791c-9.852,21.01-22.794,45.123-44.059,64.625c-23.082,21.177-50.995,22.96-76.549,4.876
		c-16.655-11.79-30.141-25.786-40.081-41.609c-4.299-6.837-9.563-15.192-5.994-27.293l1.938-6.615l34.341,17.796
		c11.259,5.84,22.517,11.68,33.941,17.22c10.86,5.265,22.385,4.555,35.272-2.105c13.662-7.103,23.846-17.984,32.811-28.678
		c22.384-26.661,33.1-54.286,32.59-84.184c-4.599,17.021-11.17,35.87-22.772,53.721c-21.475,33.045-54.441,45.854-95.32,37.056
		c-22.472-4.864-39.914-16.089-54.009-26.438c-7.524-5.541-15.226-10.86-23.159-16.346l-6.007-4.166
		c-1.107,1.519-2.359,3.291-2.449,4.067c-0.587,5.118-0.476,10.505-0.354,16.211c0.033,1.44,0.067,2.914,0.089,4.41
		c3.779,2.306,7.779,5.707,9.187,10.849c1.884,6.87-1.641,13.663-4.92,18.805c-0.311,0.632-0.321,2.627,0.011,3.313
		c7.746,8.012,8.012,17.641,8.233,26.129c0.033,1.319,0.587,2.838,0.92,3.247c17.353,6.893,29.985,17.852,37.665,32.911
		c0.089,0.122,0.643,0.632,1.02,0.976c0.62,0.576,1.241,1.151,1.784,1.772c11.967,13.663,20.644,26.029,24.135,42.054
		c2.193,10.083,5.053,20.256,11.014,26.417c4.167,4.299,8.456,8.488,12.755,12.666c8.954,8.721,18.195,17.729,26.229,27.791
		c5.762,7.214,14.793,8.533,22.96,3.27c9.264-5.95,16.666-12.577,21.409-19.148c27.515-38.086,41.21-80.627,41.632-129.605
		c-0.033,0.145-0.066,0.288-0.111,0.432C1745.32,763.983,1742.45,774.954,1738.361,785.502z M1225.68,557.652
		c1.851,3.678,3.701,7.347,5.651,10.97c13.009,24.168,32.723,42.918,58.575,55.728c6.914,3.435,8.831,2.405,8.854,2.382
		c0.455-0.254,1.386-1.86,1.629-6.016c1.606-27.128,8.012-53.644,14.195-79.286c2.35-9.707,4.688-19.414,6.781-29.166
		c3.158-14.693,6.261-29.398,8.677-40.879l2.438-11.546c0.111-30.03-6.682-33.753-23.259-35.548
		c-16.8-1.818-33.587-3.691-50.386-5.574l-6.904-0.775c-1.651-0.189-3.324-0.277-5.009-0.277c-24.844,0-51.948,19.535-55.683,41.289
		c-3.236,18.849-1.65,37.687,4.721,55.992c0.421,1.208,1.884,2.814,3.302,4.377c0.644,0.71,1.297,1.43,1.896,2.15
		c1.463,1.739,3.036,3.436,4.609,5.119c3.336,3.59,6.781,7.291,9.441,11.646C1219.086,544.597,1222.433,551.236,1225.68,557.652z
		 M1768.979,474.654c0.021-1.607,0.033-3.213-0.022-4.82c-0.487-13.63-7.358-27.437-18.838-37.865
		c-10.217-9.285-22.761-14.482-34.773-14.482c-0.809,0-1.628,0.023-2.438,0.066c-21.652,1.285-43.638,4.366-64.913,7.357
		l-3.979,0.555c-12.555,1.762-16.455,5.607-16.666,16.422c-0.299,15.004,0.842,28.988,3.402,41.588
		c3.069,15.125,6.848,30.451,10.494,45.268c7.468,30.307,15.191,61.633,17.541,93.613c0.232,3.29,1.086,4.466,1.396,4.632
		c0.377,0.232,2.149,0.365,5.784-1.507c11.446-5.885,21.121-11.802,29.586-18.085c18.318-13.619,28.623-32.412,39.527-52.303
		l0.986-1.796c1.495-2.715,2.781-5.563,4.066-8.399c4.355-9.585,9.297-20.444,21.853-26.905c0.011-0.099,0.819-1.518,1.329-3.889
		c1.95-9.098,3.657-18.24,5.363-27.382l0.876-4.632l-0.587-0.088L1768.979,474.654z M1586.638,672.463
		c7.136,2.306,15.402,3.735,23.913,4.122c27.326,1.175,54.441-6.991,82.344-25.221c18.904-12.355,30.606-28.511,34.939-48.214
		c-7.968,9.475-17.387,18.007-28.59,25.897c-19.402,13.707-41.953,20.211-63.75,26.494c-5.353,1.541-10.693,3.081-15.979,4.721
		c-7.292,2.282-16.378,0.676-22.13-1.905c-11.08-4.977-21.652-11.037-31.869-16.899l-4.277-2.438
		c-4.188-2.394-8.267-4.965-12.333-7.524c-4.599-2.903-9.197-5.795-13.974-8.422c-0.698-0.388-1.107-0.311-1.163-0.277l-0.1,6.738
		c-0.067,3.812-0.122,7.634-0.011,11.446c0.32,0.388,0.853,0.931,1.107,1.197C1547.521,655.399,1564.486,665.294,1586.638,672.463z
		 M1243.863,616.393c-5.019-4.576-9.485-9.563-13.983-14.826c11.523,46.529,62.841,71.219,108.794,75.041
		c32.025,2.615,57.833-12.621,81.004-29.531c6.216-4.521,5.862-7.092,4.81-9.752c-1.187-3.003-0.787-5.939-0.455-8.288
		c0.134-1.02,0.277-2.084,0.222-2.715c-0.144-1.396-0.299-2.316-0.442-2.914c-0.599,0.089-1.22,0.243-1.53,0.409
		c-4.731,2.549-9.285,5.363-13.84,8.189c-2.316,1.43-4.621,2.859-6.959,4.256l-9.264,5.617c-7.857,4.81-15.991,9.774-24.346,14.25
		c-11.535,6.173-24.135,6.882-37.51,2.184l-1.551-0.554c-11.115-3.924-22.606-7.968-34.063-11.292
		C1276.797,641.258,1260.63,631.696,1243.863,616.393z M1409.771,289.244c7.18-3.169,14.36-6.338,21.619-9.33
		c4.122-1.674,9.031-0.92,12.444,0.01c2.26,0.633,4.255,1.652,6.006,2.561c1.64,0.843,3.324,1.707,4.344,1.74
		c17.153,0.543,34.174,0.354,50.164,0.1c3.247-0.055,5.23-0.621,5.674-0.887c6.05-8.398,14.594-4.742,18.262-3.181
		c5.983,2.56,11.912,5.197,17.841,7.835c7.225,3.203,14.438,6.416,21.73,9.474c0.088,0.034,0.166,0.067,0.243,0.101
		c-3.136-2.505-6.339-5.12-9.175-8.168c-9.741-10.415-18.439-16.389-31.792-14.504c-4.1,0.62-11.181,0.088-12.965-10.063
		c-0.178-0.486-1.252-1.707-1.817-1.973c-7.281-1.496-16.102-3.291-24.146-3.002c-14.271,0.254-28.301,1.596-43.848,3.18
		c0.809,0.154-0.066,0.654-0.232,1.009c0.21,3.013-1.042,6.216-3.535,8.399c-3.602,3.17-8.443,2.926-11.769,2.459
		c-1.318-0.177-2.593-0.275-3.823-0.275c-8.477,0-14.826,4.254-21.476,10.57c-3.102,2.948-6.349,5.752-9.606,8.566
		c-1.662,1.43-3.313,2.859-4.954,4.311c0.666-0.244,1.319-0.5,1.973-0.765C1397.249,294.761,1403.51,292.003,1409.771,289.244z
		 M1636.126,602.552c-0.41,0.122-0.809,0.244-1.208,0.366c-23.414,7.203-48.724,12.078-75.02-1.22
		c-6.105-3.08-13.175-5.03-20.666-7.08c-1.84-0.51-3.69-1.008-5.552-1.54c-0.133,0.464-0.255,0.942-0.354,1.341
		c4.588,5.629,9.33,10.095,14.106,13.309c7.291,4.876,15.713,9.386,25.741,13.784c5.862,2.56,12.6,5.209,18.085,4.998
		c12.654-0.665,25.575-2.582,38.074-4.443l8.378-1.241c-0.333-5.885-0.931-11.79-1.552-17.984L1636.126,602.552z M1322.851,602.663
		c-0.012,0.134-0.022,0.267-0.033,0.399c-0.388,5.031-0.864,8.965-1.252,12.09c-0.3,2.394-0.6,4.854-0.6,6.139
		c1.419,0.478,4.433,1.031,7.37,1.563c3.202,0.587,7.191,1.307,12.134,2.393c12.188,2.648,26.317,4.666,38.772-0.875
		c13.153-5.862,25.564-12.844,38.175-20.091c4.145-2.37,6.405-6.305,6.472-10.87c-2.128,0.676-4.244,1.341-6.35,2.007
		c-9.164,2.881-17.829,5.594-26.162,9.041c-15.681,6.482-31.305,7.58-47.86,3.357c-6.062-1.551-12.134-3.048-18.384-4.588
		L1322.851,602.663z M1539.643,560.632l-3.49,12.123c1.528,0.643,3.068,1.318,4.643,2.016c7.146,3.137,14.538,6.395,22.051,7.48
		c19.857,2.859,41.521,0.167,68.216-8.51c-0.753-4.1-1.772-8.189-2.903-12.677C1597.209,574.983,1566.77,567.458,1539.643,560.632z
		 M1330.563,561.53c-0.799,3.779-1.607,7.546-2.649,11.259c-0.144,0.521-0.21,0.896-0.255,1.163
		c0.233,0.022,0.665,0.155,1.286,0.277c5.053,0.997,10.083,2.161,15.114,3.324c7.923,1.839,16.123,3.735,24.179,4.887
		c20.634,2.958,39.261-0.487,54.198-9.917l-2.937-11.945c-1.308,0.266-2.626,0.531-3.967,0.809
		c-7.225,1.463-14.815,3.003-22.263,4.975c-13.44,3.568-24.732,4.123-35.559,1.729c-7.402-1.639-14.761-3.467-22.317-5.363
		L1330.563,561.53z M1340.624,518.757c-1.285,5.107-2.46,9.74-3.822,14.328c-0.044,0.144-0.101,0.242-0.145,0.299
		c0.167,0.055,0.366,0.1,0.609,0.155c3.712,0.753,7.425,1.618,11.137,2.481c7.945,1.851,15.447,3.59,23.116,4.377
		c18.583,1.861,35.803-1.098,51.095-8.92c2.814-1.43,3.258-2.216,3.303-2.293c-1.951-3.912-3.669-7.026-5.575-10.473v-0.012
		c-23.414,12.234-48.934,11.969-79.484-0.842L1340.624,518.757z M1538.744,518.845c-1.252,3.069-2.526,5.984-4.564,8.666
		c-0.998,1.308-1.241,2.105-1.241,2.305c0-0.021,0.011-0.021,0.022-0.021c0.121,0,0.709,0.477,1.972,0.985
		c7.17,2.915,16.09,6.55,24.756,8.222c19.392,3.746,39.77,1.873,62.109-5.729l-3.745-15.502
		C1588.422,530.392,1562.381,530.735,1538.744,518.845z M1571.047,437.666l-4.898-0.145c-10.771-0.256-21.598,0.51-31.825,1.33
		c-0.011,0.065-0.754,0.631-0.964,0.963c-0.731,2.671-1.208,6.074-1.762,10.019c-0.056,0.376-0.101,0.753-0.155,1.141
		c1.053,0.476,2.094,0.876,2.825,0.897l8.333,0.332c21.099,0.898,41.057,1.719,60.77-4.11c1.906-0.565,2.549-0.876,2.748-1.03
		c0.454-4.775,1.252-8.986,2.15-13.397C1595.968,438.453,1583.347,438.064,1571.047,437.666z M1425.107,438.618
		c-0.166,0.022-0.721-0.066-1.574-0.088l-7.801-0.3c-8.399-0.333-16.876-0.698-25.165-0.555l-4.466,0.09
		c-11.734,0.287-23.847,0.531-35.703-4.233c0.676,4.466,1.352,8.755,2.338,12.976c0.11,0.222,0.688,0.909,1.02,1.109
		c14.206,2.127,26.661,4,39.571,4.953c8.532,0.642,17.563,0.043,26.284-0.521l2.116-0.145c1.729-0.111,3.579-0.554,5.419-1.074
		c0-0.012,0-0.021,0-0.033c-1.053-3.779-2.039-7.347-1.983-11.203C1425.174,439.138,1425.141,438.818,1425.107,438.618z
		 M1537.658,473.624c-1.196,2.204-2.371,4.299-4.222,6.149c-0.056,0.055-0.1,0.1-0.144,0.145c0.222,0.122,0.498,0.254,0.809,0.398
		c19.337,8.787,38.463,11.9,58.464,9.396l18.008-2.237l-2.594-13.597C1584.71,477.191,1560.808,480.006,1537.658,473.624z
		 M1351.417,488.017c6.284,0.832,12.245,1.629,18.229,2.15c18.661,1.64,37.045-1.618,54.664-9.674
		c0.477-0.211,0.854-0.399,1.163-0.554c-1.474-2.339-2.858-4.444-4.377-6.737l-0.021-0.045c-20.39,6.793-40.89,4.322-60.747,1.906
		c-3.158-0.388-6.316-0.765-9.485-1.119l-2.493,13.674L1351.417,488.017z M1260.242,381.294c4.033-0.996,8.012-2.404,11.989-3.801
		c7.635-2.682,15.514-5.451,23.836-5.684c0.765-0.023,1.518-0.033,2.283-0.033c11.279,0,22.505,2.249,33.397,4.432
		c2.915,0.576,5.829,1.164,8.732,1.707c18.927,3.479,33.842,11.912,44.358,25.031c0.786,0.986,4.908,5.808,8.543,3.514
		c0.554-0.554,1.285-3.313,1.729-4.965c0.155-0.564,0.3-1.142,0.466-1.695l-6.627-7.912l18.528-2.127
		c2.038-0.232,3.623-0.975,4.232-1.994c0.588-0.986,0.277-2.272-0.089-3.182c-2.205-5.551-9.618-10.293-17.241-11.037
		c-15.825-1.551-32.391-3.611-50.652-6.293c-5.22-0.766-10.405-1.852-15.58-2.938c-7.702-1.617-14.971-3.146-22.34-3.611
		c-22.905-1.463-39.416,3.368-51.882,15.236c-3.036,2.893-4.134,5.142-4.155,6.294c0,0.144-0.012,0.377,0.199,0.731
		C1251.078,382.979,1253.848,382.891,1260.242,381.294z M1550.944,384.585c-0.365,0.909-0.676,2.195-0.088,3.182
		c0.609,1.02,2.194,1.762,4.233,1.994l18.416,2.115l-6.515,7.912c0.166,0.565,0.31,1.131,0.465,1.707
		c0.443,1.651,1.186,4.422,1.807,5.02c3.513,2.294,7.679-2.593,8.477-3.578c10.517-13.121,25.432-21.543,44.347-25.021
		c2.914-0.543,5.84-1.131,8.766-1.718c11.603-2.315,23.603-4.72,35.647-4.388c8.322,0.232,16.201,3.002,23.836,5.684
		c3.979,1.396,7.957,2.805,11.99,3.801c6.383,1.597,9.119,1.685,10.271,1.674c0.211-0.354,0.2-0.588,0.2-0.731
		c-0.022-1.152-1.119-3.401-4.156-6.294c-12.466-11.868-29.021-16.688-51.859-15.236c-7.38,0.465-14.66,1.994-22.361,3.611
		c-5.176,1.086-10.361,2.172-15.58,2.938c-18.263,2.682-34.828,4.742-50.652,6.293
		C1560.563,374.292,1553.15,379.035,1550.944,384.585z"></path>
</g>
<g id="color06" opacity="100" fill="#2e7e45">
	<path d="M408.6,1586.46c-20.76,31.78-46.4,60.66-77.16,83.06c-12.84,9.601-26.42,18.101-39.64,27.141
		c12.8,51.26,27.66,101.979,40.68,153.18c140.46,0.04,280.96,0.12,421.4-0.02c8.5-29.82,16.16-59.86,24.24-89.78
		c5.479-21.18,12.08-42.14,16.399-63.58c-21.039-12.78-42.539-25.38-60.06-42.92c-15.92-15.2-28.4-33.56-39.5-52.44
		c-18.56-33.22-33.54-68.34-45.66-104.38C637.36,1462.82,628.4,1428,617.8,1393.7c-20.7,5.18-42.3,11.92-63.68,6.399
		c-16.5-2.08-30.28-13.42-39.1-27c-2.64-4-4.18-8.899-8.18-11.779C480.54,1438.84,454.52,1517.88,408.6,1586.46z M1123.54,1397.36
		c-7.021,2.1-14.26,3.5-21.5,4.439c-18.26,1.92-35.98-3.84-53.46-8.12c-18.78,64.38-36.66,129.66-67.46,189.58
		c-16.12,31.9-36.76,62.38-65.36,84.42c-13.74,11-29.14,19.641-44.04,28.94c12.761,51.28,27.181,102.16,40.74,153.24
		c140.4,0.02,280.8,0.06,421.2-0.021c8.2-29.939,16.34-59.88,24.3-89.88c5.38-21.16,12.22-42.02,16.28-63.46
		c-19.101-13-38.66-25.42-56.301-40.36c-24.039-20.859-44.56-45.54-61.859-72.199c-41.3-63.04-66.9-134.521-90.58-205.601
		c-1.92-5.88-3.52-11.939-6.88-17.2C1150.5,1376.04,1139.96,1390.98,1123.54,1397.36z M332.92,1943.48
		c140.26,0.52,280.54,0.02,420.8,0.26c3.141-11.08,6.58-22.12,8.66-33.44c-61.439-0.819-122.939-0.24-184.38-0.42
		c-84.7,0.3-169.4-0.58-254.08,0.44C326.8,1921.4,329.76,1932.46,332.92,1943.48z M912.54,1943.7
		c140.26-0.12,280.52,0.28,420.78-0.22c3.38-10.961,6.479-22.021,9.02-33.221c-24.76-0.819-49.56-0.16-74.34-0.38
		c-121.44,0.22-242.88-0.439-364.3,0.34C906.32,1921.46,909.66,1932.5,912.54,1943.7z"></path>
</g>
<g id="color11" opacity="100" fill="#2e7e45">
	<path d="M610.2,107.9c204.76-0.3,409.52-0.12,614.28-0.08c0.279,16,0.319,32.02,0.02,48.02
		c-204.78,0.16-409.56-0.04-614.32,0.1C610.12,139.94,610.1,123.92,610.2,107.9z"></path>
</g>
<g id="color101" opacity="100" fill="#000000">
	<path d="M52.688,114.775h-30v-30h30V114.775z"></path>
</g>
<g id="color102" opacity="100" fill="#404040">
	<path d="M52.688,80.587h-30v-30h30V80.587z"></path>
</g>
<g id="color103" opacity="100" fill="#ffffff">
	<path d="M52.688,46.399h-30v-30h30V46.399z"></path>
</g>
</svg>
</svg>