<svg id="SvgjsSvg1068" width="2048" height="2048" xmlns="http://www.w3.org/2000/svg" version="1.1" xmlns:xlink="http://www.w3.org/1999/xlink" xmlns:svgjs="http://svgjs.com/svgjs"><defs id="SvgjsDefs1069"></defs><!--?xml version="1.0" encoding="iso-8859-1"?-->
<!-- Generator: Adobe Illustrator 16.0.0, SVG Export Plug-In . SVG Version: 6.00 Build 0)  -->

<svg version="1.1" xmlns="http://www.w3.org/2000/svg" xmlns:xlink="http://www.w3.org/1999/xlink" x="0px" y="0px" width="2048px" height="2048px" viewBox="0 0 2048 2048" xml:space="preserve">
<g id="color01" opacity="100" fill="#2e7e45">
	<path id="cut" d="M610.2,107.9c204.76-0.3,409.52-0.12,614.28-0.08c0.279,16,0.319,32.02,0.02,48.02
		c-204.78,0.16-409.56-0.04-614.32,0.1C610.12,139.94,610.1,123.92,610.2,107.9z M1325.18,233.2
		c-29.859,20.64-52.58,49.7-72.1,79.92c-24.16,37-43.7,77.38-73.58,110.34c-20.24,22.4-47.28,36.62-73.16,51.34
		c-1.5,4.32,0.94,8.92,1.58,13.28c16.46,66.88,32.18,134.08,41.52,202.38c3.061,25.82,6.641,51.64,6.86,77.68
		c2.681,33.2,1.78,66.601-0.12,99.841c0.641,21.42-2.52,42.68-2.279,64.1c-1.78,13.02-1.7,26.16-2.381,39.26
		c-2.42,14.9-1.039,30.04-3.159,44.98c0.02,18.279-2.761,36.399-2.761,54.699c-1.88,16.881-1.439,33.921-3.399,50.82
		c0.38,17.18-3.5,34.16-1.92,51.32c11.54,1.359,22.92,4.22,33.399,9.32c28.561,13.899,51.061,36.96,77.2,54.579
		c33.38,23.32,73.46,34.5,113.22,40.82c27.82,4.061,55.9,6.28,84.021,6.26c19.38,1,38.78,1.82,58.16,0.2
		c34.04-0.18,68.08-2.52,101.62-8.399c30.42-5.921,60.8-14.54,87.739-30.261c23.28-13.34,42.96-31.779,64.721-47.279
		c17.42-12.86,37.359-23.28,59.26-25.2c1.8-16.44-1.5-32.76-1.72-49.181c-4.2-74.76-9.24-149.439-12.801-224.239
		c-2-17.24-0.56-34.62-1.859-51.9c-1.301-22.56-1.34-45.16,0.04-67.72c2.54-100.78,26.64-199.34,50.08-296.92
		c0.199-3.02,2.819-7.56-0.96-9.34c-24.341-13.6-49.301-27.2-68.92-47.38c-22.061-23.5-38.74-51.32-55.101-78.92
		c-20.52-33.82-41.1-68.46-70.24-95.68c-25.52-23.34-55.84-40.6-86.42-56.3c-8.64-0.22-17,2.54-25.62,2.42
		c-38.699,0.2-77.399,0-116.1,0.08c-9.6-0.06-19.28,0.54-28.74-1.32c-5.779-0.76-12.22-2.7-17.42,0.94
		C1363.86,208.84,1343.58,219.58,1325.18,233.2z M280.02,430c-11.82,12.44-25.26,23.66-40.72,31.32
		c-10.1,4.979-21,7.939-31.72,11.26c0.3,3.46,0.7,6.92,1.5,10.3C235.92,591.98,262.38,702.92,260.1,816
		c-0.12,17.94,0.52,35.92-1.34,53.8c-1.2,11.22,0.06,22.561-1.5,33.761c-1.94,12.859-0.42,25.979-2.82,38.819
		c-3.34,58.521-6.62,117.061-10.3,175.58c0.3,17.44-3.56,34.7-2.04,52.16c227.24,0.22,454.5,0.28,681.74-0.021
		c0.061-7,0.36-14.04-0.78-20.96c-1.859-11.04-0.479-22.3-2.079-33.359c-1.681-12.38-0.261-24.92-2.2-37.261
		c-1.46-10.939-0.2-22.06-1.86-33c-1.82-12.5-0.24-25.22-2.3-37.699c-2.44-50.641-6.78-101.16-8.74-151.82
		c0.4-18.68-1.2-37.32-0.36-55.98c0.721-15.72-0.52-31.539,1.4-47.199c4.28-67.301,17.46-133.681,32.44-199.32
		c5.92-27.04,13.38-53.72,18.88-80.82c-25.4-6.12-49.3-18.5-67.78-37.14c-23.1-23.76-39.82-52.62-57.82-80.18
		c-17.279-27.26-37.54-52.92-62.62-73.4c-22.56-17.26-46.92-32.02-72.039-45.2c-8.08,9.7-14.94,20.4-23.74,29.48
		c-11.48,10.82-24.04,20.68-38.24,27.7c-16.64,8.68-35.42,12.08-53.92,13.86c-14.86-1.92-29.96-4.08-43.88-9.92
		c-14.9-5.96-28.28-15.2-40.52-25.52c-11.96-10.22-20.62-23.5-29.96-35.98c-37.76,21.04-76.62,42.98-104.3,77
		C332.1,349.72,312.36,394.5,280.02,430z M241.9,1247.92c18.7,0.66,37.4,0.18,56.12,0.32c208.6-0.16,417.22,0.24,625.84-0.2
		c0.56-10.92-0.801-21.76-2.16-32.56c-226.101-0.48-452.22,0.18-678.32-0.32C241.82,1226,241.66,1236.98,241.9,1247.92z
		 M1140.12,1273.9c10.979,2.58,22.26,4.319,32.439,9.479c31.4,14.92,55.521,40.82,84.62,59.34
		c33.84,21.36,73.34,31.86,112.641,37.36c21.199,3.479,42.699,3.74,64.04,5.62c32.64,0.62,65.34,1,97.96-0.32
		c12.779-1.86,25.76-0.96,38.54-2.88c53.5-5.18,108.5-18.74,151.26-52.94c22.72-16.819,43.74-36.76,70.06-47.979
		c8.96-4.1,18.82-5.08,28.24-7.66c0.32-11.18,0.561-22.479-1.76-33.479c-6.12,1.119-12.28,2.06-18.34,3.399
		c-19.4,4.141-37.101,13.72-53.44,24.68c-22.08,15.021-41.58,33.62-64.399,47.62c-23.801,14.521-50.94,22.44-78.12,27.761
		c-47.421,8.54-95.801,9.18-143.82,8.38c-14.28-0.521-28.62,0.6-42.78-1.46c-51.04-3.061-104.56-10.92-147.72-40.301
		c-28.74-20-54.14-45.439-86.74-59.38c-12.899-5.92-26.96-8.38-40.84-10.84C1140.16,1251.4,1139.46,1262.66,1140.12,1273.9z
		 M408.6,1586.46c-20.76,31.78-46.4,60.66-77.16,83.06c-12.84,9.601-26.42,18.101-39.64,27.141
		c12.8,51.26,27.66,101.979,40.68,153.18c140.46,0.04,280.96,0.12,421.4-0.02c8.5-29.82,16.16-59.86,24.24-89.78
		c5.479-21.18,12.08-42.14,16.399-63.58c-21.039-12.78-42.539-25.38-60.06-42.92c-15.92-15.2-28.4-33.56-39.5-52.44
		c-18.56-33.22-33.54-68.34-45.66-104.38C637.36,1462.82,628.4,1428,617.8,1393.7c-20.7,5.18-42.3,11.92-63.68,6.399
		c-16.5-2.08-30.28-13.42-39.1-27c-2.64-4-4.18-8.899-8.18-11.779C480.54,1438.84,454.52,1517.88,408.6,1586.46z M1123.54,1397.36
		c-7.021,2.1-14.26,3.5-21.5,4.439c-18.26,1.92-35.98-3.84-53.46-8.12c-18.78,64.38-36.66,129.66-67.46,189.58
		c-16.12,31.9-36.76,62.38-65.36,84.42c-13.74,11-29.14,19.641-44.04,28.94c12.761,51.28,27.181,102.16,40.74,153.24
		c140.4,0.02,280.8,0.06,421.2-0.021c8.2-29.939,16.34-59.88,24.3-89.88c5.38-21.16,12.22-42.02,16.28-63.46
		c-19.101-13-38.66-25.42-56.301-40.36c-24.039-20.859-44.56-45.54-61.859-72.199c-41.3-63.04-66.9-134.521-90.58-205.601
		c-1.92-5.88-3.52-11.939-6.88-17.2C1150.5,1376.04,1139.96,1390.98,1123.54,1397.36z M332.92,1943.48
		c140.26,0.52,280.54,0.02,420.8,0.26c3.141-11.08,6.58-22.12,8.66-33.44c-61.439-0.819-122.939-0.24-184.38-0.42
		c-84.7,0.3-169.4-0.58-254.08,0.44C326.8,1921.4,329.76,1932.46,332.92,1943.48z M912.54,1943.7
		c140.26-0.12,280.52,0.28,420.78-0.22c3.38-10.961,6.479-22.021,9.02-33.221c-24.76-0.819-49.56-0.16-74.34-0.38
		c-121.44,0.22-242.88-0.439-364.3,0.34C906.32,1921.46,909.66,1932.5,912.54,1943.7z"></path>
	<path id="ChestRightChest1" d="M500.022,425.599H365.809v-93.897h134.214V425.599z"></path>
	<path id="ChestLeftChest1" d="M800.495,425.599H666.28v-93.897h134.215V425.599z"></path>
	<path id="ChestLeftChest" d="M800.495,397.429H666.28v-37.56h134.215V397.429z"></path>
	<path id="ChestRightChest" d="M500.022,397.429H365.809v-37.56h134.214V397.429z"></path>
	<path id="ChestUpperFront1" d="M800.528,653.58H365.813V465.786h434.716V653.58z"></path>
	<path id="ChestUpperFront" d="M800.528,578.463H365.813V465.786h434.716V578.463z"></path>
	<path id="ChestCenterFront" d="M800.514,730.922H365.827V618.246h434.687V730.922z"></path>
	<path id="BackCenterBack" d="M1703.478,645.015h-446.805V344.542h446.805V645.015z"></path>
	<path id="BackLowerBack" d="M1703.478,765.203h-446.805v-75.117h446.805V765.203z"></path>
	<path id="BackCenterBack1" d="M1703.478,694.05h-446.805V393.578h446.805V694.05z"></path>
	<path id="BackUpperBack" d="M1632.747,349.317h-305.344v-75.118h305.344V349.317z"></path>
	<path id="SleeveLowerLeftSleeve" d="M1242.029,1787.956H1003.91v-112.677h238.119V1787.956z"></path>
	<path id="SleeveLowerLeftSleeve1" d="M1242.029,1787.956H1003.91v-37.559h238.119V1787.956z"></path>
	<path id="SleeveLowerRightSleeve" d="M662.331,1789.179H424.211v-112.678h238.119V1789.179z"></path>
	<path id="SleeveLowerRightSleeve1" d="M662.331,1789.179H424.211v-37.561h238.119V1789.179z"></path>
</g>
<g id="color02" opacity="100" fill="#ef60ae">
	<path d="M975.076,468.393l-133.737,71.566l-5.799-3.915l139.375-74.583l-8.885-2.484L841.36,525.692
		l-5.163-3.485l122.188-65.385l-7.084-2.01l-2.584-0.825L841.38,511.426l-4.527-3.056l105.542-56.477l-5.553-2.189l-3.549-1.717
		l-91.892,49.172l-3.891-2.626l91.224-48.816l-0.682-0.37l-7.586-4.753l-79.046,42.298l-3.254-2.197l79.152-42.355l-6.131-4.711
		l-1.616-1.46l-68.13,36.457l-2.618-1.768l68.546-36.68l-3.956-3.573l-3.438-3.558l-58.515,31.311l-1.98-1.337l58.968-31.555
		l-2.547-2.636l-4.62-5.387l-49.799,26.648l-1.346-0.909l11.732-6.278h0.122l-0.054-0.036l38.386-20.541l-1.671-1.949l-5.385-6.903
		l-41.765,22.349l-0.71-0.479l11.162-5.973h1.146l-0.506-0.342l30.2-16.161l-1.204-1.543l-5.835-8.088l-34.232,18.318l-0.074-0.049
		l34.261-18.333l-1.029-1.426l-5.74-8.437l-1.058-1.554l-2.619-4.058l-2.615-4.053l-2.276-3.526l-1.995-3.091l-1.761-2.728
		l-1.562-2.42l-1.394-2.159l-1.247-1.933l-1.122-1.739l-1.012-1.567l-0.916-1.42l-0.832-1.288l-0.756-1.171l-0.689-1.068
		l-0.629-0.976l-0.577-0.892l-0.527-0.818l-4.814-7.459l-7.248-10.742l-7.475-10.555l-7.888-10.366l-8.301-9.992l-7.736-8.45
		l-10.705-10.329l-10.967-9.314l-10.104-7.7l-10.291-7.211l-10.517-6.836l-10.592-6.46l-10.704-6.272l-22.047-12.357l-13.108-7.324
		l-7.325,13.108l-0.263,0.414l-6.535,9.69l-7.36,9.164l-8.075,8.526l-8.714,7.812l-9.165,6.949l-9.578,6.009l-10.027,5.033
		l-4.846,1.991l-3.681,1.352l-4.318,1.353l-4.996,1.277l-12.395,2.292l-12.545,1.615l-12.582-1.615l-12.356-2.292l-4.996-1.277
		l-4.319-1.353l-3.681-1.352l-4.882-1.991l-9.991-5.033l-9.578-6.009l-9.164-6.949l-8.714-7.812l-8.075-8.526l-7.361-9.164
		l-6.535-9.69l-0.264-0.414l-7.323-13.108l-13.108,7.324l-22.047,12.357l-10.704,6.234l-10.629,6.498l-10.479,6.836l-10.291,7.211
		l-10.104,7.7l-10.967,9.314l-10.705,10.329l-7.775,8.45l-8.3,9.992l-7.851,10.366l-7.511,10.555l-7.212,10.742l-4.807,7.438
		l-0.024,0.037l-0.196,0.304l-0.331,0.512l-0.476,0.736l-0.631,0.976l-0.798,1.233l-0.977,1.511l-1.17,1.812l-1.38,2.135
		l-1.607,2.487l-1.854,2.868l-2.122,3.285l-2.416,3.738l-2.736,4.234l-3.089,4.78l-2.766,4.279l-1.03,1.523l-5.73,8.468
		l-1.016,1.408l34.293,18.351l-0.073,0.049l-34.267-18.336l-5.849,8.105l-1.19,1.526l30.234,16.178l-0.506,0.342h1.145l11.162,5.973
		l-0.709,0.479l-41.798-22.366l-5.399,6.92l-1.656,1.931l38.419,20.558l-0.054,0.036h0.121l11.733,6.278l-1.346,0.909
		l-49.831-26.666l-4.635,5.404l-2.531,2.619l58.999,31.571l-1.981,1.337l-58.545-31.328l-3.453,3.574l-3.938,3.558l68.575,36.695
		l-2.618,1.768l-68.16-36.473l-1.634,1.476l-6.111,4.697l79.181,42.37l-3.254,2.197l-79.072-42.312l-7.607,4.767l-0.659,0.357
		l91.249,48.829l-3.891,2.626l-91.914-49.185l-3.573,1.729l-5.539,2.172l105.574,56.495l-4.527,3.056l-107.359-57.451l-2.609,0.836
		l-7.052,2.001l122.204,65.394l-5.163,3.485l-124.69-66.725l-8.893,2.479l139.402,74.598l-5.799,3.915l-133.835-71.618l1.82,7.442
		l138.47,74.099l-6.436,4.344l-129.838-69.479l1.607,6.558l135.323,72.415l-6.67,4.502h15.084l3.387,1.813l-7.072,4.773
		L198.98,501.153l1.39,5.671l132.178,70.732l-6.217,4.196h14.059l3.958,2.118l-7.709,5.203L203,517.56l1.173,4.785l129.029,69.048
		l-5.763,3.891h13.033l4.53,2.425l-8.345,5.633l-129.705-69.41l0.902,3.871l126.004,67.429l-5.311,3.584h12.01l5.101,2.73
		l-8.979,6.062l-125.932-67.39l0.696,2.991l123.071,65.86l-4.857,3.279h10.984l5.674,3.036l-9.617,6.491l-122.157-65.371l0.492,2.11
		l120.139,64.292l-4.405,2.974h9.962l6.243,3.341l-10.253,6.921l-118.527-63.43l0.261,1.218l117.376,62.813l-3.952,2.668h8.938
		l6.814,3.647l-14.642,9.884h21.154l-20.046,13.532h21.156l-20.046,13.531h21.154l-20.045,13.531h105.641l140.878,75.384
		l0.224,0.119l141.092-75.503h105.651l-20.046-13.531h21.155l-20.046-13.531h21.155l-20.045-13.532h21.154l-14.643-9.884
		l6.815-3.647h8.937l-3.952-2.668l117.323-62.784l0.262-1.218l-118.475,63.4l-10.253-6.921l6.244-3.341h9.962l-4.405-2.974
		l120.078-64.259l0.49-2.109l-122.095,65.337l-9.617-6.491l5.674-3.036h10.984l-4.857-3.279l122.998-65.82l0.693-2.989
		l-125.854,67.348l-8.98-6.062l5.102-2.73h12.01l-5.312-3.584l125.916-67.382l0.898-3.868l-129.613,69.36l-8.344-5.633l4.53-2.425
		h13.033l-5.763-3.891l128.931-68.996l1.174-4.785l-133.542,71.462l-7.708-5.203l3.957-2.118h14.06l-6.218-4.196l132.08-70.68
		l1.391-5.671l-137.541,73.602l-7.072-4.773l3.387-1.813h15.083l-6.669-4.502l135.226-72.363l1.605-6.558L841.32,554.226
		l-6.437-4.344l138.373-74.046L975.076,468.393z M837.746,527.626l-8.187,4.381l-5.163-3.485l1.674-0.896H837.746z M813.305,626.241
		l-7.469,3.997l-8.981-6.063l3.417-1.828h7.266L813.305,626.241z M813.961,640.146l-8.146,4.359l-9.617-6.492l3.988-2.133h7.455
		L813.961,640.146z M794.036,636.553l-0.997-0.673h2.256L794.036,636.553z M782.372,645.744h-58.8l-140.514,75.194l-140.523-75.194
		h-58.789l2.437-1.646l-11.123-5.952l3.357-2.267h63.114l141.527,75.729l141.518-75.729H787.7l3.358,2.267l-11.124,5.952
		L782.372,645.744z M791.714,652.051l-9.933,5.315l-1.19,0.638l2.891,1.951h-59.825l-140.599,75.239L442.78,660.132l-0.33-0.177
		h-59.814l2.891-1.951l-11.124-5.953l3.911-2.64h63.303l141.442,75.685l141.433-75.685h63.313L791.714,652.051z M784.591,674.166
		h-60.85L583.058,749.45L442.62,674.303l-0.255-0.137h-60.839l3.344-2.258l-11.124-5.952l4.464-3.014h63.491l140.652,75.263
		l0.705,0.377l141.348-75.64h63.502l4.464,3.014l-10.429,5.58l-0.695,0.372L784.591,674.166z M370.823,635.88h2.256l-0.997,0.673
		L370.823,635.88z M787.119,554.718l-10.771,5.764h-53.286l-140.003,74.92L443.901,560.94l-0.855-0.458H389.77l-10.771-5.764
		l0.042-0.029h61.979l142.038,76.004l142.028-76.004h61.99L787.119,554.718z M787.776,568.623l-11.124,5.953l0.173,0.117h-53.679
		l-140.088,74.966L442.96,574.692h-53.669l0.174-0.117l-11.124-5.953l0.594-0.401h62.17l141.953,75.958l141.943-75.958h62.18
		L787.776,568.623z M788.432,582.527l-11.124,5.953l0.626,0.423h-54.703l-140.173,75.01l-140.183-75.01h-54.693l0.627-0.423
		l-11.124-5.953l1.146-0.774h62.358l141.868,75.912l141.858-75.912h62.368L788.432,582.527z M789.088,596.433l-11.123,5.952
		l1.078,0.729h-55.728L583.058,678.17l-140.268-75.057h-55.717l1.078-0.729l-11.124-5.952l1.702-1.148h62.545l141.783,75.867
		l141.773-75.867h62.556L789.088,596.433z M789.745,610.337l-11.123,5.953l1.531,1.034h-56.752l-140.343,75.102l-140.353-75.102
		h-56.742l1.532-1.034l-11.124-5.953l2.254-1.521h62.735l141.697,75.822l141.688-75.822h62.746L789.745,610.337z M790.401,624.241
		l-11.123,5.953l1.984,1.34h-57.775l-140.429,75.147L442.62,631.534h-57.766l1.985-1.34l-11.124-5.953l2.807-1.894h62.924
		l141.612,75.775l141.603-75.775h62.935L790.401,624.241z M385.714,487.032h54.88l142.464,76.231l142.454-76.231h54.89l-4.48,2.397
		h-53.286l-139.577,74.693l-138.356-74.034l-1.23-0.659h-53.275L385.714,487.032z M388.42,459.969h52.004l1.944,1.04h-52.005
		L388.42,459.969z M775.752,461.009h-52.014l1.944-1.04h52.014L775.752,461.009z M387.067,473.5h53.442l142.549,76.277
		L725.597,473.5h53.452l-3.213,1.72H722.55l-139.492,74.646L443.556,475.22H390.28L387.067,473.5z M776.178,532.061H722.89
		L583.058,606.89l-139.843-74.829h-53.276l-8.288-4.435h59.199l142.208,76.095l142.198-76.095h59.209L776.178,532.061z
		 M722.805,517.851l-139.747,74.783l-139.757-74.783h-53.276l-7.018-3.756h57.758l142.293,76.14l142.284-76.14h57.768l-7.019,3.756
		H722.805z M384.36,500.564h56.319l142.379,76.185l142.369-76.185h56.329l-5.749,3.076H722.72l-139.662,74.738L443.386,503.64
		H390.11L384.36,500.564z M373.058,531.805l0.478,0.256h-0.857L373.058,531.805z M722.976,546.271l-139.918,74.875L443.13,546.271
		h-53.276l-9.557-5.113h60.638l142.123,76.049l142.114-76.049h60.647l-9.557,5.113H722.976z M792.582,532.061l0.478-0.256
		l0.379,0.256H792.582z M808.053,515.004L806,516.103l-2.975-2.008h3.682L808.053,515.004z M807.396,501.099l-1.377,0.737
		l-1.886-1.272h2.47L807.396,501.099z M775.667,446.798h-50.575l0.677-0.362h50.575L775.667,446.798z M440.338,446.437l0.677,0.362
		H390.45l-0.676-0.362H440.338z M361.983,500.564l-1.885,1.272l-1.378-0.737l0.793-0.535H361.983z M363.092,514.095l-2.975,2.008
		l-2.054-1.099l1.346-0.909H363.092z M364.203,527.626l-4.064,2.744l-2.731-1.461l1.899-1.282H364.203z M365.312,541.158
		l-5.152,3.479l-3.408-1.824l2.451-1.654H365.312z M373.038,545.28l1.853,0.991h-3.321L373.038,545.28z M373.017,558.756
		l3.226,1.726h-5.782L373.017,558.756z M372.998,572.23l4.601,2.462h-8.248L372.998,572.23z M372.977,585.706l5.975,3.197H368.24
		L372.977,585.706z M372.957,599.181l6.792,3.635l-0.441,0.298h-12.176L372.957,599.181z M372.936,612.656l7.469,3.997l-0.994,0.671
		h-13.39L372.936,612.656z M372.917,626.132l8.146,4.358l-1.546,1.044h-14.604L372.917,626.132z M786.601,631.534l-1.546-1.044
		l8.146-4.358l8.004,5.402H786.601z M786.706,617.324l-0.993-0.671l7.468-3.997l6.915,4.668H786.706z M786.809,603.113l-0.44-0.298
		l6.791-3.635l5.825,3.933H786.809z M787.166,588.903l5.975-3.197l4.736,3.197H787.166z M788.519,574.692l4.601-2.462l3.647,2.462
		H788.519z M789.875,560.482l3.226-1.726l2.557,1.726H789.875z M791.227,546.271l1.853-0.991l1.469,0.991H791.227z M809.366,542.813
		l-3.408,1.824l-5.153-3.479h6.109L809.366,542.813z M808.71,528.909l-2.731,1.461l-4.064-2.744h4.896L808.71,528.909z
		 M806.74,487.195l-0.7,0.375l-0.796-0.538h1.256L806.74,487.195z M360.874,487.032l-0.796,0.538l-0.701-0.375l0.241-0.163H360.874z
		 M365.418,554.689l0.56,0.3l-5.799,3.915l-4.085-2.186l3.005-2.028H365.418z M350.75,560.326l0.293,0.156h-0.524L350.75,560.326z
		 M365.506,568.222l1.129,0.604l-6.437,4.344l-4.761-2.548l3.557-2.4H365.506z M350.729,573.801l1.667,0.892h-2.988L350.729,573.801
		z M365.59,581.753l1.701,0.91l-7.072,4.774l-5.438-2.91l4.109-2.774H365.59z M350.709,587.275l3.041,1.628h-5.451L350.709,587.275z
		 M365.674,595.284l2.273,1.217l-7.708,5.203l-6.115-3.272l4.663-3.147H365.674z M355.103,603.113h-7.914l3.5-2.362L355.103,603.113
		z M365.759,608.815l2.846,1.522l-8.345,5.634l-6.792-3.636l5.216-3.521H365.759z M356.458,617.324h-10.377l4.589-3.099
		L356.458,617.324z M358.58,622.348h7.266l3.416,1.828l-8.98,6.063l-7.469-3.997L358.58,622.348z M358.475,635.88h7.456l3.986,2.133
		l-9.616,6.492l-8.146-4.359L358.475,635.88z M372.895,639.606l8.823,4.722l-2.099,1.416h-15.816L372.895,639.606z M374.188,649.411
		l-2.087,1.409l-2.633-1.409H374.188z M366.016,649.411l4.558,2.439l-10.253,6.921l-8.822-4.722l6.872-4.639H366.016z
		 M372.875,653.082l9.499,5.083l-2.651,1.79h-17.03L372.875,653.082z M375.297,662.942l-3.176,2.144l-4.007-2.144H375.297z
		 M372.855,666.558l10.176,5.445l-3.204,2.163h-18.243L372.855,666.558z M441.786,676.475l141.272,75.594l141.263-75.594h63.69
		l17.632,11.901h-81.816l-140.769,75.33l-140.599-75.233l-0.18-0.097h-81.806l17.632-11.901H441.786z M786.291,674.166l-3.205-2.163
		l10.177-5.445l11.271,7.608H786.291z M790.82,662.942h7.182l-4.006,2.144L790.82,662.942z M786.394,659.955l-2.652-1.79l9.5-5.083
		l10.182,6.873H786.394z M791.929,649.411h4.718l-2.632,1.408L791.929,649.411z M795.542,651.851l4.559-2.439h7.645l6.873,4.639
		l-8.823,4.722L795.542,651.851z M786.498,645.744l-2.099-1.416l8.822-4.722l9.093,6.138H786.498z M812.649,612.336l-6.792,3.636
		l-8.345-5.634l2.845-1.522h7.076L812.649,612.336z M815.448,614.226l4.589,3.099H809.66L815.448,614.226z M811.993,598.432
		l-6.116,3.272l-7.707-5.203l2.273-1.217h6.887L811.993,598.432z M815.428,600.751l3.499,2.362h-7.913L815.428,600.751z
		 M815.408,587.275l2.41,1.628h-5.451L815.408,587.275z M811.335,584.527l-5.438,2.91l-7.072-4.774l1.7-0.91h6.701L811.335,584.527z
		 M813.721,574.692l1.667-0.892l1.32,0.892H813.721z M810.679,570.622l-4.762,2.548l-6.436-4.344l1.129-0.604h6.513L810.679,570.622
		z M815.075,560.482l0.292-0.156l0.232,0.156H815.075z M810.023,556.718l-4.085,2.186l-5.8-3.915l0.56-0.3h6.321L810.023,556.718z
		 M829.58,517.741l-4.526-3.056l1.102-0.59h10.237L829.58,517.741z M825.709,500.848l0.53-0.284h8.799l-5.438,2.91L825.709,500.848z
		 M826.399,487.032h7.285l-4.063,2.175L826.399,487.032z M827.507,473.5h4.825l-2.691,1.44L827.507,473.5z M828.617,459.969h2.361
		l-1.317,0.704L828.617,459.969z M335.139,459.969h2.36l-1.044,0.704L335.139,459.969z M333.785,473.5h4.825l-2.134,1.44
		L333.785,473.5z M332.433,487.032h7.285l-3.222,2.175L332.433,487.032z M331.079,500.564h8.798l0.531,0.284l-3.891,2.626
		L331.079,500.564z M329.725,514.095h10.237l1.102,0.59l-4.527,3.056L329.725,514.095z M328.372,527.626h11.676l1.673,0.896
		l-5.162,3.485L328.372,527.626z M327.017,541.158h13.115l2.245,1.201l-5.8,3.915L327.017,541.158z M336.598,560.541l-10.935-5.852
		h14.555l2.815,1.507L336.598,560.541z M348.242,595.284h0.354l-0.156,0.105L348.242,595.284z M346.889,608.815h2.815l-1.245,0.841
		L346.889,608.815z M345.536,622.348h5.278l-2.334,1.575L345.536,622.348z M350.648,627.701l7.162,3.833h-12.84L350.648,627.701z
		 M344.183,635.88h7.74l-3.423,2.31L344.183,635.88z M350.628,641.177l8.146,4.358l-0.31,0.209h-14.604L350.628,641.177z
		 M342.83,649.411h10.204l-4.513,3.046L342.83,649.411z M342.751,659.955l7.856-5.304l8.822,4.722l-0.862,0.582H342.751z
		 M341.641,674.166l16.626-11.224h7.833l5.131,2.745l-12.56,8.479H341.641z M340.532,688.376l17.632-11.901h18.243l-17.632,11.901
		H340.532z M826.695,702.587H723.913l-140.854,75.375l-140.759-75.319l-0.104-0.056H339.422l18.638-12.581h83.811l141.188,75.548
		l141.178-75.548h83.82L826.695,702.587z M825.584,688.376h-18.243l-17.632-11.901h18.243L825.584,688.376z M824.475,674.166h-17.03
		l-12.559-8.479l5.13-2.745h7.833L824.475,674.166z M823.366,659.955h-15.816l-0.863-0.582l8.823-4.722L823.366,659.955z
		 M817.596,652.457l-4.513-3.046h10.204L817.596,652.457z M822.256,645.744h-14.604l-0.31-0.209l8.146-4.358L822.256,645.744z
		 M817.617,638.189l-3.423-2.31h7.74L817.617,638.189z M821.146,631.534h-12.84l7.162-3.833L821.146,631.534z M820.582,622.348
		l-2.944,1.575l-2.335-1.575H820.582z M817.658,609.656l-1.245-0.841h2.815L817.658,609.656z M817.677,595.39l-0.156-0.105h0.354
		L817.677,595.39z M840.453,554.689l-10.935,5.852l-6.436-4.344l2.816-1.507H840.453z M829.539,546.274l-5.799-3.915l2.245-1.201
		H839.1L829.539,546.274z M938.996,1169.145l-0.248-4.291l-105.838-56.639l5.766-3.893h-13.04l-4.525-2.422l8.344-5.633
		l108.691,58.164l-0.203-3.496l-105.688-56.557l5.313-3.588h-12.018l-5.096-2.727l8.98-6.063l107.857,57.719l-0.156-2.701
		l-105.538-56.479l4.86-3.281h-10.991l-5.669-3.033l9.617-6.492l107.025,57.275l-0.109-1.908l-105.389-56.396l4.407-2.977h-9.967
		l-6.24-3.338l10.253-6.922l106.194,56.828l-0.064-1.113l-105.239-56.316l3.954-2.67h-8.941l-6.812-3.645l14.644-9.887h-21.153
		l20.044-13.531h-21.153l20.044-13.529h-21.154l20.045-13.531H724.15l-140.867-75.382l-0.225-0.12l-141.102,75.502H336.316
		l20.044,13.531h-21.153l20.044,13.529h-21.153l20.043,13.531h-21.152l14.644,9.887l-6.812,3.645h-8.941l3.954,2.67l-105.326,56.363
		l-0.064,1.113l106.28-56.875l10.253,6.922l-6.239,3.338h-9.967l4.407,2.977L229.7,1123.148l-0.11,1.906l107.113-57.32l9.616,6.492
		l-5.668,3.033H329.66l4.859,3.281l-105.625,56.523l-0.156,2.703l107.945-57.766l8.979,6.063l-5.095,2.727H328.55l5.313,3.588
		l-105.776,56.604l-0.202,3.496l108.777-58.211l8.344,5.633l-4.524,2.422h-13.041l5.767,3.893L227.282,1164.9l-0.249,4.289
		l109.61-58.654l7.707,5.203l-3.953,2.115h-14.065l6.219,4.199l-105.206,56.299l0.277,4.779l109.001-58.328l7.071,4.773
		l-3.382,1.809h-15.089l6.671,4.506l-103.792,55.541l0.32,5.527l96.381-51.578l6.436,4.346l-96.09,51.42h12.087l77.548-41.498
		l5.799,3.916l-70.232,37.582h13.525l50.889-27.23l5.162,3.484l-44.374,23.746h14.964l24.228-12.965l4.526,3.057l-18.517,9.908
		h12.042h137.547l122.716-65.664l122.707,65.664h137.556h12.042l-18.517-9.908l4.527-3.057l24.228,12.965h14.963L836.19,1177.4
		l5.163-3.484l50.888,27.23h13.525l-70.232-37.582l5.799-3.916l77.549,41.498h12.085l-96.088-51.42l6.435-4.346l96.298,51.533
		l0.32-5.525l-103.709-55.498l6.672-4.506h-15.09l-3.382-1.809l7.071-4.773l108.918,58.283l0.277-4.779l-105.124-56.254l6.219-4.199
		H825.72l-3.954-2.115l7.708-5.203L938.996,1169.145z M817.864,1104.322h-0.34l0.15-0.102L817.864,1104.322z M352.814,1073.369
		l7.468-3.996l8.98,6.063l-3.409,1.824h-7.276L352.814,1073.369z M352.157,1059.465l8.145-4.357l9.616,6.49l-3.981,2.131h-7.463
		L352.157,1059.465z M812.358,1110.703h5.462l-2.415,1.631L812.358,1110.703z M372.082,1063.059l0.992,0.67h-2.245L372.082,1063.059
		z M383.74,1053.863h58.795l140.523-75.191l140.514,75.191h58.805l-2.442,1.648l11.123,5.953l-3.353,2.264h-63.128l-140.493-75.18
		L583.058,988l-141.527,75.729h-63.118l-3.354-2.264l11.123-5.953L383.74,1053.863z M374.403,1047.561l9.932-5.314l1.191-0.639
		l-2.895-1.953h59.818l140.608-75.237l140.599,75.237h59.829l-2.895,1.953l11.123,5.953l-3.907,2.637h-63.316l-141.433-75.684
		l-141.442,75.684H378.31L374.403,1047.561z M381.523,1025.443h60.842l140.693-75.282l140.429,75.146l0.255,0.137h60.853
		l-3.347,2.26l11.123,5.953l-4.46,3.01h-63.505l-140.643-75.26l-0.705-0.378l-141.357,75.638h-63.494l-4.461-3.01l10.429-5.582
		l0.695-0.371L381.523,1025.443z M795.289,1063.729h-2.246l0.993-0.67L795.289,1063.729z M788.431,1117.084l-1.141,0.77h-62.374
		l-141.858-75.912l-141.868,75.912h-62.363l-1.142-0.77l11.123-5.953l-0.634-0.428h54.701l140.183-75.01l139.468,74.633l0.705,0.377
		h54.712l-0.635,0.428L788.431,1117.084z M787.775,1130.988l-0.588,0.396h-62.186l-141.943-75.959l-141.953,75.959H378.93
		l-0.588-0.396l11.123-5.951l-0.181-0.123h53.676l140.098-74.965l140.088,74.965h53.687l-0.181,0.123L787.775,1130.988z
		 M787.119,1144.893l-0.034,0.023h-61.998l-142.028-76.004l-142.038,76.004h-61.987l-0.034-0.023l10.78-5.768h53.267l140.013-74.92
		l140.003,74.92h53.276L787.119,1144.893z M793.057,1167.807l-0.488-0.262h0.876L793.057,1167.807z M785.807,1158.447h-60.636
		l-142.113-76.049l-142.123,76.049H380.31l9.555-5.113h53.266l139.928-74.873l139.918,74.873h53.275L785.807,1158.447z
		 M373.059,1167.807l-0.388-0.262h0.877L373.059,1167.807z M724.832,1104.322l-141.773-75.867l-141.783,75.867h-62.552l-1.694-1.143
		l11.123-5.953l-1.086-0.732h55.725l140.268-75.057l140.258,75.057h55.734l-1.085,0.732l11.122,5.953l-1.693,1.143H724.832z
		 M376.373,1089.275l11.123-5.953l-1.538-1.039h56.748l140.353-75.102l140.343,75.102h56.759l-1.538,1.039l11.122,5.953
		l-2.246,1.516h-62.752l-141.688-75.82l-141.697,75.82H378.62L376.373,1089.275z M375.716,1075.369l11.123-5.951l-1.991-1.344
		h57.771l140.438-75.146l140.429,75.146h57.782l-1.991,1.344l11.123,5.951l-2.8,1.891h-62.94l-141.603-75.775l-141.612,75.775
		h-62.93L375.716,1075.369z M793.16,1100.43l-6.791-3.635l0.447-0.301h12.174L793.16,1100.43z M793.18,1086.955l-7.468-3.996
		l0.999-0.676h13.388L793.18,1086.955z M793.201,1073.48l-8.146-4.359l1.552-1.047h14.602L793.201,1073.48z M379.509,1068.074
		l1.553,1.047l-8.146,4.359l-8.008-5.406H379.509z M379.406,1082.283l0.999,0.676l-7.468,3.996l-6.919-4.672H379.406z
		 M379.301,1096.494l0.447,0.301l-6.791,3.635l-5.831-3.936H379.301z M378.96,1110.703l-5.982,3.203l-4.742-3.203H378.96z
		 M377.607,1124.914l-4.608,2.467l-3.653-2.467H377.607z M376.253,1139.125l-3.235,1.73l-2.564-1.73H376.253z M374.902,1153.334
		l-1.862,0.996l-1.477-0.996H374.902z M356.753,1156.797l3.407-1.824l5.145,3.475h-6.107L356.753,1156.797z M357.41,1170.701
		l2.73-1.461l4.056,2.738h-4.895L357.41,1170.701z M358.067,1184.605l2.053-1.098l2.966,2.002h-3.68L358.067,1184.605z
		 M389.951,1167.545h53.265l139.843-74.83l139.832,74.83h53.275l8.286,4.434h-59.195l-142.198-76.096l-142.208,76.096h-59.185
		L389.951,1167.545z M805.997,1183.508l2.053,1.098l-1.338,0.904h-3.681L805.997,1183.508z M801.921,1171.979l4.056-2.738
		l2.729,1.461l-1.891,1.277H801.921z M800.812,1158.447l5.145-3.475l3.406,1.824l-2.444,1.65H800.812z M793.078,1154.33
		l-1.862-0.996h3.339L793.078,1154.33z M793.098,1140.855l-3.235-1.73h5.8L793.098,1140.855z M793.119,1127.381l-4.608-2.467h8.262
		L793.119,1127.381z M793.139,1113.906l-5.983-3.203h10.726L793.139,1113.906z M800.433,1104.322l-2.265-1.213l7.707-5.203
		l6.114,3.271l-4.656,3.145H800.433z M811.006,1096.494h7.922l-3.503,2.365L811.006,1096.494z M800.349,1090.791l-2.837-1.518
		l8.343-5.633l6.791,3.633l-5.209,3.518H800.349z M809.652,1082.283h10.386l-4.593,3.102L809.652,1082.283z M807.541,1077.26h-7.276
		l-3.409-1.824l8.98-6.063l7.468,3.996L807.541,1077.26z M807.644,1063.729h-7.464l-3.981-2.131l9.616-6.492l8.146,4.359
		L807.644,1063.729z M793.221,1060.004l-8.822-4.721l2.104-1.42h15.814L793.221,1060.004z M791.933,1050.197l2.082-1.406
		l2.628,1.406H791.933z M800.095,1050.197l-4.553-2.436l10.253-6.922l8.821,4.721l-6.869,4.637H800.095z M793.241,1046.529
		l-9.499-5.082l2.655-1.793h17.028L793.241,1046.529z M790.823,1036.666l3.173-2.141l4.002,2.141H790.823z M793.261,1033.055
		l-10.176-5.445l3.207-2.166h18.243L793.261,1033.055z M724.321,1023.135l-141.263-75.592l-141.272,75.592h-63.683l-17.63-11.9
		h81.807l140.778-75.329l140.589,75.231l0.18,0.098h81.817l-17.631,11.9H724.321z M379.824,1025.443l3.207,2.166l-10.175,5.445
		l-11.274-7.611H379.824z M375.294,1036.666h-7.176l4.003-2.141L375.294,1036.666z M379.719,1039.654l2.655,1.793l-9.498,5.082
		l-10.186-6.875H379.719z M374.184,1050.197h-4.709l2.627-1.406L374.184,1050.197z M370.575,1047.762l-4.554,2.436h-7.651
		l-6.87-4.637l8.822-4.721L370.575,1047.762z M379.615,1053.863l2.104,1.42l-8.822,4.721l-9.096-6.141H379.615z M353.47,1087.273
		l6.792-3.633l8.343,5.633l-2.837,1.518h-7.088L353.47,1087.273z M350.671,1085.385l-4.593-3.102h10.387L350.671,1085.385z
		 M354.127,1101.178l6.114-3.271l7.707,5.203l-2.265,1.213h-6.9L354.127,1101.178z M350.692,1098.859l-3.504-2.365h7.923
		L350.692,1098.859z M350.712,1112.334l-2.415-1.631h5.462L350.712,1112.334z M354.785,1115.082l5.437-2.908l7.071,4.773
		l-1.693,0.906h-6.711L354.785,1115.082z M352.405,1124.914l-1.673,0.895l-1.325-0.895H352.405z M355.44,1128.988l4.761-2.549
		l6.436,4.346l-1.122,0.6h-6.523L355.44,1128.988z M351.052,1139.125l-0.3,0.16l-0.236-0.16H351.052z M356.097,1142.893l4.084-2.186
		l5.799,3.914l-0.55,0.295h-6.336L356.097,1142.893z M390.037,1181.754h53.265l139.757-74.783l139.747,74.783h53.274l7.018,3.756
		h-57.755l-142.284-76.141l-142.294,76.141H383.02L390.037,1181.754z M800.687,1144.916l-0.55-0.295l5.799-3.914l4.084,2.186
		l-2.998,2.023H800.687z M815.364,1139.285l-0.299-0.16h0.536L815.364,1139.285z M800.603,1131.385l-1.122-0.6l6.436-4.346
		l4.761,2.549l-3.552,2.396H800.603z M815.384,1125.809l-1.672-0.895h2.998L815.384,1125.809z M800.518,1117.854l-1.693-0.906
		l7.07-4.773l5.438,2.908l-4.104,2.771H800.518z M819.219,1090.791h-2.805l1.24-0.836L819.219,1090.791z M820.574,1077.26h-5.269
		l2.329-1.572L820.574,1077.26z M815.466,1071.91l-7.167-3.836h12.848L815.466,1071.91z M821.928,1063.729h-7.732l3.419-2.309
		L821.928,1063.729z M815.487,1058.434l-8.145-4.357l0.313-0.213h14.601L815.487,1058.434z M823.283,1050.197h-10.196l4.509-3.043
		L823.283,1050.197z M823.366,1039.654l-7.858,5.305l-8.821-4.721l0.865-0.584H823.366z M824.475,1025.443l-16.624,11.223h-7.84
		l-5.126-2.742l12.562-8.48H824.475z M825.584,1011.234l-17.63,11.9h-18.242l17.631-11.9H825.584z M339.422,997.023h102.772
		l140.863-75.374l140.749,75.317l0.105,0.057h102.782l-18.637,12.582h-83.822l-140.793-75.342l-0.385-0.206l-141.188,75.548h-83.812
		L339.422,997.023z M340.532,1011.234h18.242l17.631,11.9h-18.242L340.532,1011.234z M341.641,1025.443h17.028l12.562,8.48
		l-5.126,2.742h-7.839L341.641,1025.443z M342.751,1039.654h15.814l0.865,0.584l-8.821,4.721L342.751,1039.654z M348.522,1047.154
		l4.509,3.043h-10.197L348.522,1047.154z M343.86,1053.863h14.602l0.313,0.213l-8.145,4.357L343.86,1053.863z M348.502,1061.42
		l3.419,2.309h-7.732L348.502,1061.42z M344.969,1068.074h12.849l-7.168,3.836L344.969,1068.074z M345.542,1077.26l2.939-1.572
		l2.33,1.572H345.542z M348.462,1089.955l1.239,0.836h-2.804L348.462,1089.955z M348.442,1104.221l0.15,0.102h-0.34
		L348.442,1104.221z M325.674,1144.916l10.928-5.848l6.436,4.344l-2.81,1.504H325.674z M327.029,1158.447l9.554-5.113l5.799,3.916
		l-2.236,1.197H327.029z M328.383,1171.979l8.18-4.377l5.162,3.486l-1.664,0.891H328.383z M336.542,1181.867l4.526,3.057
		l-1.094,0.586h-10.238L336.542,1181.867z M331.092,1199.041l5.431-2.906l3.89,2.627l-0.521,0.279H331.092z M359.508,1199.041
		l-0.785-0.531l1.377-0.736l1.876,1.268H359.508z M725.427,1199.041l-142.369-76.186l-142.378,76.186h-56.306l5.749-3.076h53.263
		l139.672-74.738l139.662,74.738h53.273l5.748,3.076H725.427z M804.141,1199.041l1.875-1.268l1.377,0.736l-0.784,0.531H804.141z
		 M835.024,1199.041h-8.799l-0.521-0.279l3.89-2.627L835.024,1199.041z M836.379,1185.51h-10.238l-1.093-0.586l4.526-3.057
		L836.379,1185.51z M837.733,1171.979h-11.677l-1.664-0.891l5.162-3.486L837.733,1171.979z M839.087,1158.447h-13.115l-2.237-1.197
		l5.8-3.916L839.087,1158.447z M829.514,1139.068l10.929,5.848h-14.555l-2.809-1.504L829.514,1139.068z M583.058,1136.34
		l121.104,64.807h-25.035l-96.068-51.408l-96.074,51.408h-25.038L583.058,1136.34z M583.058,1149.826l95.903,51.32H653.76h-25.199
		H603.36h-20.325h-20.278h-25.204h-25.201h-25.203L583.058,1149.826z M1872.145,472.035l-133.782,71.59l-5.8-3.914l137.077-73.354
		l-6.992-3.496l-124.265,66.498l-5.164-3.485l123.386-66.026l-7.644-3.811l-0.1-0.053l-110.459,59.108l-4.526-3.056l109.847-58.781
		l-5.015-2.664l-3.065-1.79l-97.22,52.024l-3.891-2.626l96.905-51.855l-3.66-2.138l-4.514-3.036l-84.819,45.388l-3.255-2.197
		l84.813-45.384l-0.825-0.555l-7.094-5.525l-73.619,39.395l-2.618-1.768l73.909-39.55l-7.104-6.374l-0.592-0.594l-63.575,34.019
		l-1.981-1.338l63.999-34.246l-5.552-5.577l-1.99-2.245l-54.455,29.139l-1.347-0.908l11.732-6.278h0.123l-0.055-0.037l43.021-23.021
		l-4.391-4.952l-3.013-3.713l-46.053,24.642l-0.709-0.479l11.161-5.972h1.146l-0.507-0.342l34.475-18.448l-3.601-4.439l-3.752-5.024
		l-38.193,20.438l-0.073-0.049l38.219-20.451l-3.073-4.115l-3.926-5.625l-2.76-3.953l-3.165-4.793l-2.388-3.616l-0.944-1.431
		l-1.089-1.756l-1.754-2.828l-1.558-2.513l-1.391-2.243l-1.247-2.011l-1.122-1.81l-1.013-1.634l-0.919-1.481l-0.834-1.345
		l-0.759-1.225l-0.693-1.117l-0.431-0.695l-0.198-0.329l-0.568-0.942l-0.521-0.864l-17.867-29.64l-6.61-10.667l-6.836-10.554
		l-7.062-10.442l-7.361-10.253l-7.774-9.99l-8.226-9.69l-10.817-11.418l-7.586-7.136l-7.287-6.234l-9.915-7.738l-10.217-7.287
		l-10.479-6.911l-10.667-6.573l-21.446-12.281l-17.164-9.353l-5.222-2.855l-5.183,1.315l-10.816,1.464l-11.757,0.677l-12.243,0.188
		l-53.748,0.187l-53.709-0.187l-12.244-0.188l-11.757-0.677l-10.816-1.464l-5.221-1.315l-5.184,2.855l-17.164,9.353l-21.446,12.281
		l-10.667,6.573l-10.479,6.874l-10.253,7.324l-9.878,7.738l-7.287,6.234l-7.586,7.136l-10.817,11.418l-8.226,9.69l-7.774,9.99
		l-7.362,10.253l-7.061,10.442l-6.836,10.554l-6.61,10.667l-17.864,29.635l-0.001,0l-0.093,0.154l-0.225,0.372l-0.353,0.585
		l-0.491,0.815l-0.128,0.212l-0.524,0.843l-0.818,1.316l-0.994,1.599l-1.185,1.904l-1.388,2.233l-1.61,2.589l-1.851,2.977
		l-2.112,3.396l-2.363,3.8l-0.035,0.053l-2.857,4.328l-3.605,5.459l-2.734,3.939l-3.913,5.638l-3.07,4.111l38.228,20.456
		l-0.073,0.049l-38.201-20.441l-3.756,5.028l-3.598,4.435l34.483,18.452l-0.507,0.342h1.146l11.161,5.972l-0.709,0.479
		l-46.061-24.647l-3.017,3.718l-4.387,4.948l43.029,23.025l-0.055,0.037h0.123l11.732,6.278l-1.346,0.908l-54.464-29.144
		l-1.994,2.25l-5.547,5.573l64.006,34.25l-1.981,1.338l-63.582-34.023l-0.596,0.598l-7.101,6.37l73.917,39.554l-2.618,1.768
		l-73.63-39.4l-7.095,5.493l-0.848,0.574l84.847,45.403l-3.255,2.197l-84.842-45.4l-4.503,3.048l-3.66,2.131l96.917,51.862
		l-3.891,2.626l-97.24-52.035l-3.094,1.801l-4.981,2.656l109.863,58.79l-4.527,3.056l-110.465-59.112l-0.105,0.057l-7.647,3.803
		l123.401,66.034l-5.163,3.485l-124.289-66.511l-6.98,3.502l137.089,73.36l-5.8,3.914l-133.796-71.597l1.824,7.443l138.428,74.077
		l-6.436,4.344l-129.798-69.458l1.606,6.557l135.284,72.395l-6.669,4.502h15.081l3.388,1.813l-7.071,4.773l-137.602-73.635
		l1.389,5.67l132.141,70.714l-6.216,4.196h14.058l3.959,2.119l-7.709,5.203l-133.604-71.496l1.172,4.784l128.997,69.031l-5.763,3.89
		h13.032l4.531,2.425l-8.344,5.633l-129.678-69.396l0.899,3.869l125.979,67.417l-5.311,3.585h12.01l5.102,2.73l-8.98,6.062
		l-125.915-67.381l0.695,2.989l123.057,65.852l-4.858,3.279h10.986l5.673,3.036l-9.617,6.492l-122.152-65.369l0.491,2.111
		l120.135,64.289l-4.406,2.974h9.963l6.243,3.341l-10.253,6.921l-118.53-63.431l0.26,1.217l117.38,62.814l-3.952,2.668h8.938
		l6.814,3.646l-14.643,9.885h21.153l-20.044,13.531h21.155l-20.046,13.532h21.155l-20.046,13.532h105.641l140.878,75.382l0.225,0.12
		l141.092-75.502h105.65l-20.046-13.532h21.155l-20.047-13.532h21.156l-20.044-13.531h21.153l-14.643-9.885l6.814-3.646h8.938
		l-3.952-2.668l117.334-62.791l0.259-1.216l-118.482,63.406l-10.254-6.922l6.243-3.341h9.963l-4.406-2.974l120.086-64.262
		l0.492-2.111l-122.104,65.343l-9.617-6.492l5.673-3.036h10.986l-4.858-3.279l123.021-65.833l0.697-2.991l-125.882,67.364
		l-8.98-6.062l5.102-2.73h12.01l-5.311-3.585l125.957-67.405l0.902-3.871l-129.659,69.386l-8.345-5.633l4.532-2.425h13.032
		l-5.764-3.89l128.984-69.024l1.172-4.784L1726.5,592.741l-7.708-5.203l3.959-2.119h14.058l-6.216-4.196l132.127-70.707l1.389-5.67
		l-137.587,73.627l-7.072-4.773l3.388-1.813h15.081l-6.668-4.502l135.271-72.387l1.605-6.557l-129.784,69.451l-6.436-4.344
		l138.414-74.069L1872.145,472.035z M1734.769,531.293l-8.187,4.381l-5.163-3.485l1.673-0.896H1734.769z M1710.327,629.908
		l-7.469,3.997l-8.98-6.063l3.416-1.828h7.266L1710.327,629.908z M1710.983,643.813l-8.146,4.359l-9.617-6.492l3.986-2.133h7.457
		L1710.983,643.813z M1691.058,640.219l-0.997-0.673h2.255L1691.058,640.219z M1679.395,649.412h-58.801l-140.513,75.194
		l-140.524-75.194h-58.79l2.438-1.646l-11.124-5.953l3.358-2.267h63.113l141.528,75.73l141.517-75.73h63.124l3.358,2.267
		l-11.123,5.953L1679.395,649.412z M1688.736,655.718l-11.123,5.953l2.891,1.952h-59.825l-140.598,75.239l-140.279-75.063
		l-0.33-0.177h-59.814l2.891-1.952l-11.123-5.953l3.91-2.64h63.303l141.443,75.685l141.432-75.685h63.313L1688.736,655.718z
		 M1681.613,677.832h-60.849l-140.684,75.284l-140.439-75.147l-0.255-0.137h-60.839l3.344-2.257l-11.123-5.953l4.463-3.013h63.491
		l141.358,75.64l141.347-75.64h63.502l4.464,3.013l-10.429,5.581l-0.695,0.372L1681.613,677.832z M1267.846,639.546h2.255
		l-0.997,0.673L1267.846,639.546z M1684.141,558.385l-10.771,5.764h-53.287l-140.002,74.919l-140.014-74.919h-53.276l-10.771-5.764
		l0.043-0.029h61.979l142.039,76.004l142.028-76.004h61.988L1684.141,558.385z M1684.798,572.29l-11.124,5.953l0.173,0.117h-53.679
		l-140.087,74.965l-140.099-74.965h-53.668l0.173-0.117l-11.124-5.953l0.596-0.402h62.168l141.954,75.958l141.943-75.958h62.178
		L1684.798,572.29z M1685.454,586.194l-11.124,5.953l0.626,0.422h-54.702l-140.173,75.011l-140.184-75.011h-54.692l0.626-0.422
		l-11.124-5.953l1.148-0.775h62.357l141.868,75.914l141.857-75.914h62.367L1685.454,586.194z M1686.11,600.099l-11.124,5.953
		l1.079,0.729h-55.728l-140.257,75.056l-140.269-75.056h-55.717l1.079-0.729l-11.124-5.953l1.701-1.148h62.545l141.784,75.868
		l141.772-75.868h62.556L1686.11,600.099z M1686.767,614.004l-11.123,5.953l1.532,1.034h-56.752l-140.343,75.102l-140.354-75.102
		h-56.742l1.532-1.034l-11.123-5.953l2.253-1.521h62.735l141.698,75.821l141.688-75.821h62.745L1686.767,614.004z M1687.424,627.909
		l-11.123,5.953l1.984,1.34h-57.776l-140.428,75.147l-139.958-74.891l-0.48-0.257h-57.767l1.985-1.34l-11.124-5.953l2.807-1.895
		h62.924l141.613,75.776l141.603-75.776h62.935L1687.424,627.909z M1282.734,490.698h54.882l142.465,76.231l142.453-76.231h54.893
		l-4.481,2.398h-53.288l-139.577,74.692l-139.587-74.692h-53.277L1282.734,490.698z M1285.442,463.635h52.004l1.944,1.04h-52.004
		L1285.442,463.635z M1672.774,464.675h-52.015l1.944-1.04h52.015L1672.774,464.675z M1284.089,477.166h53.442l142.55,76.277
		l142.538-76.277h53.453l-3.212,1.719h-53.287l-139.493,74.647l-139.502-74.647h-53.277L1284.089,477.166z M1673.199,535.728
		h-53.286l-139.832,74.829l-139.843-74.829h-53.276l-8.287-4.435h59.197l142.209,76.095l142.197-76.095h59.208L1673.199,535.728z
		 M1619.827,521.517L1480.081,596.3l-139.758-74.784h-53.277l-7.019-3.755h57.76l142.294,76.141l142.282-76.141h57.771l-7.018,3.755
		H1619.827z M1281.382,504.229h56.32l142.379,76.186l142.368-76.186h56.33l-5.749,3.077h-53.288l-139.661,74.738l-139.673-74.738
		h-53.276L1281.382,504.229z M1270.08,535.472l0.479,0.256h-0.857L1270.08,535.472z M1619.998,549.938l-139.917,74.874
		l-139.928-74.874h-53.277l-9.556-5.114h60.637l142.124,76.049l142.112-76.049h60.648l-9.557,5.114H1619.998z M1689.604,535.728
		l0.478-0.256l0.379,0.256H1689.604z M1705.075,518.67l-2.055,1.1l-2.975-2.008h3.683L1705.075,518.67z M1704.419,504.766
		l-1.377,0.737l-1.886-1.273h2.469L1704.419,504.766z M1672.688,450.464h-50.573l0.675-0.361h50.573L1672.688,450.464z
		 M1337.361,450.104l0.674,0.361h-50.563l-0.675-0.361H1337.361z M1259.005,504.229l-1.886,1.273l-1.377-0.737l0.794-0.537H1259.005
		z M1260.115,517.761l-2.975,2.008l-2.055-1.1l1.346-0.909H1260.115z M1261.225,531.293l-4.064,2.744l-2.731-1.462l1.899-1.282
		H1261.225z M1262.334,544.824l-5.153,3.479l-3.408-1.824l2.452-1.655H1262.334z M1270.06,548.947l1.853,0.991h-3.321
		L1270.06,548.947z M1270.04,562.422l3.227,1.727h-5.784L1270.04,562.422z M1270.02,575.897l4.601,2.462h-8.248L1270.02,575.897z
		 M1269.999,589.373l5.974,3.196h-10.71L1269.999,589.373z M1269.979,602.848l6.792,3.634l-0.44,0.298h-12.177L1269.979,602.848z
		 M1269.958,616.323l7.469,3.997l-0.993,0.671h-13.39L1269.958,616.323z M1269.938,629.798l8.146,4.359l-1.547,1.044h-14.604
		L1269.938,629.798z M1683.624,635.201l-1.547-1.044l8.146-4.359l8.004,5.403H1683.624z M1683.728,620.991l-0.993-0.671l7.468-3.997
		l6.915,4.667H1683.728z M1683.831,606.78l-0.44-0.298l6.792-3.634l5.825,3.932H1683.831z M1684.188,592.569l5.974-3.196
		l4.736,3.196H1684.188z M1685.541,578.359l4.601-2.462l3.647,2.462H1685.541z M1686.896,564.149l3.226-1.727l2.558,1.727H1686.896z
		 M1688.249,549.938l1.853-0.991l1.469,0.991H1688.249z M1706.389,546.479l-3.408,1.824l-5.153-3.479h6.109L1706.389,546.479z
		 M1705.732,532.575l-2.731,1.462l-4.064-2.744h4.896L1705.732,532.575z M1703.763,490.861l-0.701,0.375l-0.797-0.538h1.256
		L1703.763,490.861z M1257.896,490.698l-0.797,0.538l-0.701-0.375l0.241-0.163H1257.896z M1262.441,558.356l0.559,0.299
		l-5.799,3.915l-4.085-2.186l3.005-2.028H1262.441z M1247.771,563.992l0.293,0.157h-0.524L1247.771,563.992z M1262.526,571.888
		l1.131,0.605l-6.437,4.344l-4.761-2.548l3.558-2.401H1262.526z M1247.752,577.468l1.666,0.892h-2.987L1247.752,577.468z
		 M1262.611,585.419l1.702,0.911l-7.071,4.774l-5.439-2.91l4.111-2.775H1262.611z M1247.731,590.942l3.04,1.627h-5.45
		L1247.731,590.942z M1262.696,598.951l2.274,1.217l-7.709,5.204l-6.115-3.272l4.664-3.148H1262.696z M1252.125,606.78h-7.913
		l3.499-2.362L1252.125,606.78z M1262.782,612.483l2.845,1.522l-8.345,5.633l-6.792-3.635l5.216-3.521H1262.782z M1253.479,620.991
		h-10.378l4.589-3.098L1253.479,620.991z M1255.603,626.014h7.265l3.416,1.828l-8.98,6.063l-7.469-3.997L1255.603,626.014z
		 M1255.497,639.546h7.457l3.986,2.133l-9.617,6.492l-8.146-4.359L1255.497,639.546z M1269.918,643.273l8.822,4.721l-2.1,1.417
		h-15.815L1269.918,643.273z M1271.209,653.078l-2.086,1.408l-2.631-1.408H1271.209z M1263.039,653.078l4.558,2.438l-10.254,6.921
		l-8.821-4.721l6.872-4.639H1263.039z M1269.897,656.749l9.499,5.083l-2.652,1.791h-17.029L1269.897,656.749z M1272.318,666.609
		l-3.175,2.144l-4.006-2.144H1272.318z M1269.877,670.224l10.177,5.446l-3.204,2.163h-18.243L1269.877,670.224z M1338.809,680.14
		l141.272,75.594l141.262-75.594h63.689l17.633,11.903h-81.815l-140.769,75.33l-140.6-75.234l-0.18-0.096h-81.806l17.633-11.903
		H1338.809z M1683.313,677.832l-3.205-2.163l10.177-5.446l11.271,7.608H1683.313z M1687.843,666.609h7.181l-4.006,2.144
		L1687.843,666.609z M1683.417,663.622l-2.652-1.791l9.499-5.083l10.183,6.874H1683.417z M1688.952,653.078h4.717l-2.631,1.408
		L1688.952,653.078z M1692.564,655.517l4.559-2.438h7.645l6.872,4.639l-8.821,4.722L1692.564,655.517z M1683.521,649.412l-2.1-1.417
		l8.822-4.721l9.093,6.138H1683.521z M1709.671,616.003l-6.792,3.635l-8.344-5.633l2.844-1.522h7.077L1709.671,616.003z
		 M1712.471,617.893l4.589,3.098h-10.378L1712.471,617.893z M1709.015,602.099l-6.115,3.272l-7.708-5.204l2.273-1.217h6.886
		L1709.015,602.099z M1712.45,604.418l3.5,2.362h-7.914L1712.45,604.418z M1712.43,590.942l2.41,1.627h-5.45L1712.43,590.942z
		 M1708.358,588.194l-5.438,2.91l-7.072-4.774l1.702-0.911h6.697L1708.358,588.194z M1710.743,578.359l1.667-0.892l1.32,0.892
		H1710.743z M1707.701,574.289l-4.761,2.548l-6.437-4.344l1.131-0.605h6.509L1707.701,574.289z M1712.097,564.149l0.292-0.157
		l0.232,0.157H1712.097z M1707.045,560.384l-4.085,2.186l-5.799-3.915l0.559-0.299h6.32L1707.045,560.384z M1726.603,521.407
		l-4.527-3.057l1.102-0.589h10.238L1726.603,521.407z M1722.731,504.514l0.531-0.284h8.798l-5.438,2.911L1722.731,504.514z
		 M1723.42,490.698h7.289l-4.065,2.176L1723.42,490.698z M1724.53,477.166h4.824l-2.691,1.44L1724.53,477.166z M1725.64,463.635
		h2.362l-1.318,0.705L1725.64,463.635z M1232.159,463.635h2.362l-1.044,0.705L1232.159,463.635z M1230.807,477.166h4.824
		l-2.133,1.44L1230.807,477.166z M1229.452,490.698h7.289l-3.224,2.176L1229.452,490.698z M1228.101,504.229h8.798l0.531,0.284
		l-3.891,2.626L1228.101,504.229z M1226.746,517.761h10.238l1.102,0.589l-4.527,3.057L1226.746,517.761z M1225.393,531.293h11.677
		l1.674,0.896l-5.163,3.485L1225.393,531.293z M1224.039,544.824h13.115l2.245,1.202l-5.8,3.915L1224.039,544.824z M1233.62,564.208
		l-10.935-5.852h14.554l2.816,1.507L1233.62,564.208z M1245.264,598.951h0.354l-0.157,0.105L1245.264,598.951z M1243.911,612.483
		h2.815l-1.245,0.84L1243.911,612.483z M1242.559,626.014h5.278l-2.334,1.576L1242.559,626.014z M1247.671,631.368l7.164,3.833
		h-12.843L1247.671,631.368z M1241.206,639.546h7.739l-3.422,2.31L1241.206,639.546z M1247.65,644.843l8.146,4.359l-0.311,0.209
		h-14.604L1247.65,644.843z M1239.853,653.078h10.202l-4.512,3.045L1239.853,653.078z M1239.773,663.622l7.856-5.304l8.822,4.721
		l-0.863,0.583H1239.773z M1238.664,677.832l16.625-11.223h7.835l5.129,2.745l-12.56,8.478H1238.664z M1237.555,692.043
		l17.632-11.903h18.243l-17.632,11.903H1237.555z M1723.717,706.253h-102.783l-140.853,75.376l-140.76-75.319l-0.104-0.057h-102.772
		l18.639-12.581h83.811l140.803,75.343l0.385,0.206l141.177-75.549h83.821L1723.717,706.253z M1722.607,692.043h-18.244
		l-17.632-11.903h18.243L1722.607,692.043z M1721.497,677.832h-17.029l-12.56-8.478l5.13-2.745h7.834L1721.497,677.832z
		 M1720.388,663.622h-15.815l-0.863-0.583l8.822-4.721L1720.388,663.622z M1714.618,656.124l-4.512-3.046h10.203L1714.618,656.124z
		 M1719.278,649.412h-14.604l-0.311-0.209l8.146-4.359L1719.278,649.412z M1714.639,641.856l-3.423-2.31h7.739L1714.639,641.856z
		 M1718.169,635.201h-12.842l7.163-3.833L1718.169,635.201z M1717.603,626.014l-2.944,1.576l-2.334-1.576H1717.603z
		 M1714.68,613.323l-1.245-0.84h2.815L1714.68,613.323z M1714.699,599.056l-0.156-0.105h0.354L1714.699,599.056z M1737.476,558.356
		l-10.935,5.852l-6.436-4.344l2.816-1.507H1737.476z M1726.562,549.94l-5.8-3.915l2.245-1.202h13.115L1726.562,549.94z
		 M1731.244,1139.557l6.672-4.505h-15.09l-3.382-1.81l7.071-4.774l115.096,61.591l-1.843-5.913l-109.181-58.426l6.22-4.199h-14.067
		l-3.951-2.115l7.708-5.203l109.782,58.748l-0.276-0.888l-0.205-3.527l-105.866-56.652l5.766-3.893h-13.039l-4.525-2.422
		l8.344-5.633l108.719,58.179l-0.202-3.496l-105.718-56.572l5.313-3.588h-12.017l-5.097-2.727l8.98-6.063l107.888,57.733
		l-0.156-2.701l-105.568-56.493l4.86-3.281h-10.991l-5.668-3.032l9.616-6.492l107.056,57.289l-0.111-1.907l-105.418-56.413
		l4.407-2.975h-9.967l-6.24-3.34l10.253-6.922l106.224,56.845l-0.063-1.112l-105.27-56.333l3.954-2.67h-8.942l-6.811-3.645
		l14.644-9.886h-21.153l20.044-13.531h-21.153l20.044-13.531h-21.154l20.045-13.531h-105.65l-140.868-75.382l-0.224-0.12
		l-141.103,75.502h-105.641l20.045,13.531h-21.154l20.044,13.531h-21.153l20.044,13.531h-21.153l14.644,9.886l-6.811,3.645h-8.942
		l3.954,2.67l-105.281,56.34l-0.064,1.112l106.236-56.852l10.253,6.922l-6.24,3.34h-9.967l4.407,2.975l-105.431,56.42l-0.11,1.907
		l107.067-57.296l9.616,6.492l-5.667,3.032h-10.992l4.86,3.281l-105.58,56.5l-0.156,2.701l107.899-57.74l8.98,6.063l-5.097,2.727
		h-12.017l5.313,3.588l-105.729,56.579l-0.202,3.496l108.73-58.186l8.344,5.633l-4.525,2.422h-13.04l5.767,3.893l-105.879,56.658
		l-0.204,3.521l-0.279,0.896l109.798-58.756l7.707,5.203l-3.951,2.115h-14.066l6.219,4.199l-109.2,58.436l-1.847,5.916
		l115.119-61.604l7.07,4.774l-3.381,1.81h-15.09l6.672,4.505l-113.597,60.789l-0.188,0.602l7.241,1.321l99.452-53.22l6.436,4.345
		l-95.035,50.855l0.423,0.077l8.591,1.567l79.566-42.578l5.798,3.915l-76.185,40.769l1.158,0.346l6.636,2.722l62.572-33.484
		l5.163,3.485l-61.733,33.035l3.4,1.829l3.654,2.402l49.496-26.485l4.526,3.056l-49.431,26.451l6.9,5.085l37.983-20.325l3.891,2.627
		l-38.272,20.479l7.14,5.727l27.223-14.566l3.254,2.197l-27.531,14.732l7.716,6.188l16.542-8.852l2.617,1.768l-16.789,8.984
		l8.291,6.65l5.86-3.136l1.981,1.338l-6.048,3.236l0.236,0.189l4.315,3.153l5.45,3.983l9.464,6.271l5.531,3.276l6.263,3.71
		l12.094,6.385l7.464,3.437l4.855,2.235l12.508,5.07l12.657,4.507l11.062,3.395h1.356l0.089,0.443l0.226,0.068l12.808,3.419
		l12.845,2.967l12.883,2.516l12.884,2.104l14.385,1.915l13.371,1.428l24.976,1.804l24.865,1.013l39.324,0.715h0.525h0.563
		l39.324-0.715l24.826-1.013l25.015-1.804l13.371-1.428l14.386-1.915l12.883-2.104l12.845-2.516l12.883-2.93l12.808-3.456
		l12.732-3.906l10.589-3.781l2.031-0.726l12.507-5.07l4.87-2.235l7.487-3.437l12.094-6.385l6.263-3.71l5.531-3.276l9.464-6.271
		l5.43-3.983l4.299-3.153l0.256-0.205l-6.02-3.221l1.982-1.338l5.832,3.121l8.297-6.648l-16.767-8.972l2.617-1.768l16.521,8.84
		l7.721-6.186l-27.517-14.724l3.255-2.197l27.209,14.56l7.145-5.724l-38.264-20.476l3.891-2.627l37.977,20.321l6.9-5.085
		l-49.424-26.447l4.527-3.056l49.507,26.492l3.631-2.371l3.426-1.86l-61.747-33.042l5.163-3.485l62.567,33.481l6.629-2.719
		l1.166-0.348l-76.182-40.767l5.799-3.915l79.558,42.572l8.589-1.562l0.433-0.078l-95.034-50.854l6.436-4.345l99.481,53.235l7.2-1.3
		l-0.204-0.654L1731.244,1139.557z M1622.114,1256.471h50.557l0.675,0.361h-50.556L1622.114,1256.471z M1249.836,1077.036
		l7.468-3.996l8.98,6.063l-3.409,1.824h-7.276L1249.836,1077.036z M1249.179,1063.132l8.146-4.358l9.616,6.492l-3.981,2.131h-7.464
		L1249.179,1063.132z M1269.104,1066.726l0.993,0.671h-2.246L1269.104,1066.726z M1280.763,1057.531h58.794l140.524-75.193
		l140.513,75.193h58.805l-2.441,1.648l11.122,5.952l-3.354,2.265h-63.128l-141.517-75.73l-141.528,75.73h-63.117l-3.354-2.265
		l11.123-5.952L1280.763,1057.531z M1271.425,1051.228l11.123-5.953l-2.895-1.954h59.818l140.609-75.238l140.598,75.238h59.83
		l-2.896,1.954l11.123,5.953l-3.906,2.637h-63.317l-141.432-75.683l-141.443,75.683h-63.307L1271.425,1051.228z M1278.545,1029.111
		h60.842l140.694-75.284l140.428,75.147l0.256,0.137h60.852l-3.347,2.259l11.123,5.952l-4.461,3.012h-63.504l-141.347-75.639
		l-141.358,75.639h-63.493l-4.461-3.012l10.428-5.58l0.695-0.372L1278.545,1029.111z M1692.312,1067.396h-2.247l0.993-0.671
		L1692.312,1067.396z M1677.409,1216.238h-54.875l-142.453-76.231l-142.464,76.231h-54.865l4.48-2.397h53.261l139.588-74.691
		l139.576,74.691h53.271L1677.409,1216.238z M1676.055,1229.77h-53.436l-142.538-76.276l-142.55,76.276h-53.425l3.212-1.719h53.26
		l139.503-74.646l138.186,73.948l1.307,0.698h53.27L1676.055,1229.77z M1276.021,1148.561l10.781-5.77h53.265l140.014-74.92
		l140.002,74.92h53.275l10.782,5.77l-0.034,0.022h-61.997l-142.028-76.004l-142.039,76.004h-61.987L1276.021,1148.561z
		 M1275.364,1134.655l11.123-5.952l-0.182-0.122h53.677l140.099-74.965l140.087,74.965h53.688l-0.182,0.122l11.123,5.952
		l-0.587,0.396h-62.187l-141.942-75.958l-141.954,75.958h-62.176L1275.364,1134.655z M1274.708,1120.751l11.122-5.952l-0.635-0.429
		h54.702l140.184-75.009l139.467,74.633l0.706,0.376h54.712l-0.636,0.429l11.123,5.952l-1.14,0.77h-62.375l-141.857-75.912
		l-141.868,75.912h-62.365L1274.708,1120.751z M1274.051,1106.846l11.123-5.952l-1.085-0.732h55.724l140.269-75.057l140.258,75.057
		h55.733l-1.086,0.732l11.124,5.952l-1.693,1.145h-62.563l-141.772-75.867l-141.783,75.867h-62.553L1274.051,1106.846z
		 M1273.395,1092.941l11.123-5.952l-1.538-1.038h56.748l140.354-75.102l140.343,75.102h56.758l-1.538,1.038l11.123,5.952
		l-2.247,1.517h-62.751l-141.688-75.821l-141.698,75.821h-62.741L1273.395,1092.941z M1272.738,1079.036l11.123-5.952l-1.99-1.344
		h57.771l140.438-75.146l139.947,74.891l0.48,0.256h57.781l-1.989,1.344l11.122,5.952l-2.8,1.891h-62.94l-141.602-75.774
		l-141.613,75.774h-62.93L1272.738,1079.036z M1340.153,1157.001l139.928-74.874l139.917,74.874h53.275l9.556,5.113h-60.636
		l-142.112-76.049l-142.124,76.049h-60.624l9.555-5.113H1340.153z M1681.473,1175.645h-59.194l-142.197-76.094l-142.209,76.094
		h-59.185l8.287-4.434h53.264l139.842-74.828l139.833,74.828h53.273L1681.473,1175.645z M1680.119,1189.176h-57.756l-142.282-76.14
		l-142.294,76.14h-57.745l7.018-3.755h53.264l139.758-74.782l139.746,74.782h53.274L1680.119,1189.176z M1678.764,1202.708h-56.314
		l-142.368-76.186l-142.38,76.186h-56.304l5.749-3.077h53.262l139.673-74.738l139.661,74.738h53.272L1678.764,1202.708z
		 M1270.571,1171.211l-0.49,0.262l-0.388-0.262H1270.571z M1690.08,1171.473l-0.49-0.262h0.878L1690.08,1171.473z M1690.1,1157.998
		l-1.863-0.997h3.34L1690.1,1157.998z M1690.121,1144.522l-3.237-1.731h5.802L1690.121,1144.522z M1690.141,1131.048l-4.609-2.467
		h8.263L1690.141,1131.048z M1690.161,1117.572l-5.983-3.202h10.726L1690.161,1117.572z M1690.182,1104.098l-6.791-3.635
		l0.448-0.302h12.174L1690.182,1104.098z M1690.202,1090.622l-7.468-3.997l0.998-0.674h13.389L1690.202,1090.622z
		 M1690.223,1077.146l-8.146-4.358l1.552-1.048h14.602L1690.223,1077.146z M1276.532,1071.74l1.552,1.048l-8.146,4.358l-8.008-5.406
		H1276.532z M1276.429,1085.951l0.999,0.674l-7.469,3.997l-6.919-4.671H1276.429z M1276.323,1100.161l0.447,0.302l-6.791,3.635
		l-5.831-3.937H1276.323z M1275.983,1114.37l-5.983,3.202l-4.742-3.202H1275.983z M1274.63,1128.581l-4.609,2.467l-3.653-2.467
		H1274.63z M1273.277,1142.791l-3.236,1.731l-2.565-1.731H1273.277z M1271.924,1157.001l-1.862,0.997l-1.477-0.997H1271.924z
		 M1253.776,1160.464l3.407-1.823l5.144,3.474h-6.107L1253.776,1160.464z M1254.433,1174.368l2.729-1.461l4.055,2.737h-4.894
		L1254.433,1174.368z M1255.09,1188.272l2.053-1.099l2.965,2.002h-3.681L1255.09,1188.272z M1255.746,1202.178l1.376-0.736
		l1.876,1.267h-2.467L1255.746,1202.178z M1287.404,1242.261h51.985l-1.943,1.04h-51.985L1287.404,1242.261z M1672.757,1242.261
		l1.943,1.04h-51.996l-1.943-1.04H1672.757z M1701.163,1202.708l1.875-1.267l1.377,0.736l-0.784,0.53H1701.163z M1700.054,1189.176
		l2.965-2.002l2.053,1.099l-1.337,0.903H1700.054z M1698.944,1175.645l4.055-2.737l2.729,1.461l-1.891,1.276H1698.944z
		 M1697.834,1162.114l5.144-3.474l3.407,1.823l-2.443,1.65H1697.834z M1697.708,1148.583l-0.549-0.294l5.799-3.915l4.084,2.186
		l-2.998,2.023H1697.708z M1712.385,1142.951l-0.3-0.16h0.538L1712.385,1142.951z M1697.624,1135.052l-1.121-0.6l6.436-4.345
		l4.761,2.548l-3.551,2.396H1697.624z M1712.406,1129.476l-1.673-0.895h2.999L1712.406,1129.476z M1697.539,1121.521l-1.692-0.906
		l7.071-4.773l5.438,2.909l-4.104,2.771H1697.539z M1712.427,1116.001l-3.048-1.631h5.463L1712.427,1116.001z M1697.456,1107.99
		l-2.267-1.213l7.708-5.204l6.115,3.272l-4.657,3.145H1697.456z M1708.028,1100.161h7.923l-3.503,2.365L1708.028,1100.161z
		 M1697.371,1094.458l-2.837-1.519l8.344-5.633l6.791,3.634l-5.21,3.518H1697.371z M1706.674,1085.951h10.386l-4.592,3.1
		L1706.674,1085.951z M1704.563,1080.927h-7.275l-3.41-1.824l8.98-6.063l7.468,3.996L1704.563,1080.927z M1704.666,1067.396h-7.464
		l-3.981-2.131l9.617-6.492l8.145,4.358L1704.666,1067.396z M1690.243,1063.672l-8.822-4.721l2.103-1.42h15.815L1690.243,1063.672z
		 M1688.955,1053.864l2.082-1.405l2.627,1.405H1688.955z M1697.117,1053.864l-4.553-2.437l10.253-6.922l8.821,4.721l-6.869,4.638
		H1697.117z M1690.264,1050.196l-9.499-5.083l2.655-1.793h17.029L1690.264,1050.196z M1687.845,1040.334l3.173-2.143l4.003,2.143
		H1687.845z M1690.284,1036.722l-10.177-5.445l3.208-2.165h18.242L1690.284,1036.722z M1621.343,1026.803l-141.262-75.593
		l-141.272,75.593h-63.684l-17.63-11.902h81.807l140.779-75.328l140.588,75.231l0.181,0.097h81.816l-17.63,11.902H1621.343z
		 M1276.846,1029.111l3.208,2.165l-10.176,5.445l-11.273-7.61H1276.846z M1272.317,1040.334h-7.176l4.002-2.142L1272.317,1040.334z
		 M1276.741,1043.32l2.655,1.793l-9.499,5.083l-10.185-6.876H1276.741z M1271.206,1053.864h-4.709l2.627-1.405L1271.206,1053.864z
		 M1267.597,1051.428l-4.553,2.437h-7.652l-6.869-4.637l8.821-4.721L1267.597,1051.428z M1276.638,1057.531l2.103,1.42l-8.821,4.721
		l-9.097-6.141H1276.638z M1250.492,1090.94l6.791-3.634l8.344,5.633l-2.837,1.519h-7.088L1250.492,1090.94z M1247.693,1089.051
		l-4.592-3.1h10.386L1247.693,1089.051z M1251.149,1104.846l6.114-3.272l7.708,5.204l-2.267,1.213h-6.898L1251.149,1104.846z
		 M1247.714,1102.526l-3.504-2.365h7.923L1247.714,1102.526z M1247.734,1116.001l-2.415-1.631h5.463L1247.734,1116.001z
		 M1251.806,1118.75l5.438-2.909l7.071,4.773l-1.692,0.906h-6.713L1251.806,1118.75z M1249.428,1128.581l-1.673,0.895l-1.326-0.895
		H1249.428z M1252.463,1132.655l4.761-2.548l6.435,4.345l-1.12,0.6h-6.525L1252.463,1132.655z M1248.076,1142.791l-0.3,0.16
		l-0.238-0.16H1248.076z M1253.119,1146.56l4.084-2.186l5.799,3.915l-0.549,0.294h-6.336L1253.119,1146.56z M1256.402,1216.082
		l0.7-0.374l0.785,0.53h-1.254L1256.402,1216.082z M1287.49,1256.471h50.546l-0.675,0.361h-50.546L1287.49,1256.471z
		 M1702.273,1216.238l0.786-0.53l0.699,0.374l-0.231,0.156H1702.273z M1714.888,1107.99h-0.342l0.151-0.103L1714.888,1107.99z
		 M1716.241,1094.458h-2.805l1.24-0.837L1716.241,1094.458z M1717.596,1080.927h-5.269l2.33-1.572L1717.596,1080.927z
		 M1712.488,1075.576l-7.167-3.836h12.848L1712.488,1075.576z M1718.951,1067.396h-7.734l3.42-2.309L1718.951,1067.396z
		 M1712.509,1062.102l-8.145-4.358l0.313-0.212h14.602L1712.509,1062.102z M1720.305,1053.864h-10.196l4.509-3.043
		L1720.305,1053.864z M1720.389,1043.32l-7.859,5.306l-8.821-4.721l0.865-0.585H1720.389z M1721.497,1029.111l-16.624,11.223h-7.839
		l-5.126-2.743l12.561-8.479H1721.497z M1722.607,1014.9l-17.631,11.902h-18.242l17.631-11.902H1722.607z M1236.444,1000.69h102.772
		l140.864-75.374l140.748,75.318l0.104,0.056h102.783l-18.637,12.581h-83.822l-140.793-75.342l-0.384-0.205l-141.188,75.547h-83.813
		L1236.444,1000.69z M1237.554,1014.9h18.242l17.631,11.902h-18.242L1237.554,1014.9z M1238.663,1029.111h17.028l12.562,8.479
		l-5.126,2.743h-7.839L1238.663,1029.111z M1239.773,1043.32h15.813l0.866,0.585l-8.821,4.721L1239.773,1043.32z M1245.544,1050.821
		l4.509,3.043h-10.195L1245.544,1050.821z M1240.883,1057.531h14.601l0.313,0.212l-8.145,4.358L1240.883,1057.531z
		 M1245.524,1065.088l3.42,2.309h-7.733L1245.524,1065.088z M1241.992,1071.74h12.848l-7.167,3.836L1241.992,1071.74z
		 M1242.565,1080.927l2.938-1.572l2.33,1.572H1242.565z M1245.484,1093.621l1.24,0.837h-2.805L1245.484,1093.621z
		 M1245.464,1107.888l0.151,0.103h-0.342L1245.464,1107.888z M1222.697,1148.583l10.928-5.848l6.436,4.345l-2.809,1.503H1222.697z
		 M1224.052,1162.114l9.553-5.112l5.799,3.915l-2.236,1.197H1224.052z M1225.407,1175.645l8.178-4.376l5.163,3.485l-1.665,0.891
		H1225.407z M1233.564,1185.535l4.527,3.056l-1.094,0.585h-10.238L1233.564,1185.535z M1237.436,1202.428l-0.521,0.28h-8.799
		l5.43-2.906L1237.436,1202.428z M1236.738,1216.238h-7.269l4.055-2.17L1236.738,1216.238z M1235.63,1229.77h-4.806l2.681-1.435
		L1235.63,1229.77z M1234.521,1243.301h-2.342l1.307-0.699L1234.521,1243.301z M1727.982,1243.301h-2.341l1.035-0.699
		L1727.982,1243.301z M1729.337,1229.77h-4.806l2.125-1.435L1729.337,1229.77z M1730.691,1216.238h-7.269l3.214-2.17
		L1730.691,1216.238z M1732.046,1202.708h-8.799l-0.521-0.28l3.89-2.626L1732.046,1202.708z M1733.401,1189.176h-10.238
		l-1.093-0.585l4.526-3.056L1733.401,1189.176z M1734.755,1175.645h-11.677l-1.665-0.891l5.163-3.485L1734.755,1175.645z
		 M1736.109,1162.114h-13.115l-2.237-1.197l5.8-3.915L1736.109,1162.114z M1722.909,1148.583l-2.809-1.503l6.436-4.345l10.928,5.848
		H1722.909z"></path>
	<path d="M241.9,1247.92c18.7,0.66,37.4,0.18,56.12,0.32c208.6-0.16,417.22,0.24,625.84-0.2
		c0.56-10.92-0.801-21.76-2.16-32.56c-226.101-0.48-452.22,0.18-678.32-0.32C241.82,1226,241.66,1236.98,241.9,1247.92z
		 M1140.12,1273.9c10.979,2.58,22.26,4.319,32.439,9.479c31.4,14.92,55.521,40.82,84.62,59.34
		c33.84,21.36,73.34,31.86,112.641,37.36c21.199,3.479,42.699,3.74,64.04,5.62c32.64,0.62,65.34,1,97.96-0.32
		c12.779-1.86,25.76-0.96,38.54-2.88c53.5-5.18,108.5-18.74,151.26-52.94c22.72-16.819,43.74-36.76,70.06-47.979
		c8.96-4.1,18.82-5.08,28.24-7.66c0.32-11.18,0.561-22.479-1.76-33.479c-6.12,1.119-12.28,2.06-18.34,3.399
		c-19.4,4.141-37.101,13.72-53.44,24.68c-22.08,15.021-41.58,33.62-64.399,47.62c-23.801,14.521-50.94,22.44-78.12,27.761
		c-47.421,8.54-95.801,9.18-143.82,8.38c-14.28-0.521-28.62,0.6-42.78-1.46c-51.04-3.061-104.56-10.92-147.72-40.301
		c-28.74-20-54.14-45.439-86.74-59.38c-12.899-5.92-26.96-8.38-40.84-10.84C1140.16,1251.4,1139.46,1262.66,1140.12,1273.9z"></path>
</g>
<g id="color06" opacity="100" fill="#2e7e45">
	<path d="M408.6,1586.46c-20.76,31.78-46.4,60.66-77.16,83.06c-12.84,9.601-26.42,18.101-39.64,27.141
		c12.8,51.26,27.66,101.979,40.68,153.18c140.46,0.04,280.96,0.12,421.4-0.02c8.5-29.82,16.16-59.86,24.24-89.78
		c5.479-21.18,12.08-42.14,16.399-63.58c-21.039-12.78-42.539-25.38-60.06-42.92c-15.92-15.2-28.4-33.56-39.5-52.44
		c-18.56-33.22-33.54-68.34-45.66-104.38C637.36,1462.82,628.4,1428,617.8,1393.7c-20.7,5.18-42.3,11.92-63.68,6.399
		c-16.5-2.08-30.28-13.42-39.1-27c-2.64-4-4.18-8.899-8.18-11.779C480.54,1438.84,454.52,1517.88,408.6,1586.46z M1123.54,1397.36
		c-7.021,2.1-14.26,3.5-21.5,4.439c-18.26,1.92-35.98-3.84-53.46-8.12c-18.78,64.38-36.66,129.66-67.46,189.58
		c-16.12,31.9-36.76,62.38-65.36,84.42c-13.74,11-29.14,19.641-44.04,28.94c12.761,51.28,27.181,102.16,40.74,153.24
		c140.4,0.02,280.8,0.06,421.2-0.021c8.2-29.939,16.34-59.88,24.3-89.88c5.38-21.16,12.22-42.02,16.28-63.46
		c-19.101-13-38.66-25.42-56.301-40.36c-24.039-20.859-44.56-45.54-61.859-72.199c-41.3-63.04-66.9-134.521-90.58-205.601
		c-1.92-5.88-3.52-11.939-6.88-17.2C1150.5,1376.04,1139.96,1390.98,1123.54,1397.36z M332.92,1943.48
		c140.26,0.52,280.54,0.02,420.8,0.26c3.141-11.08,6.58-22.12,8.66-33.44c-61.439-0.819-122.939-0.24-184.38-0.42
		c-84.7,0.3-169.4-0.58-254.08,0.44C326.8,1921.4,329.76,1932.46,332.92,1943.48z M912.54,1943.7
		c140.26-0.12,280.52,0.28,420.78-0.22c3.38-10.961,6.479-22.021,9.02-33.221c-24.76-0.819-49.56-0.16-74.34-0.38
		c-121.44,0.22-242.88-0.439-364.3,0.34C906.32,1921.46,909.66,1932.5,912.54,1943.7z"></path>
</g>
<g id="color12" opacity="100" fill="#ef60ae">
	<path d="M610.2,107.9c204.76-0.3,409.52-0.12,614.28-0.08c0.279,16,0.319,32.02,0.02,48.02
		c-204.78,0.16-409.56-0.04-614.32,0.1C610.12,139.94,610.1,123.92,610.2,107.9z"></path>
</g>
<g id="color101" opacity="100" fill="#000000">
	<path d="M52.688,114.775h-30v-30h30V114.775z"></path>
</g>
<g id="color102" opacity="100" fill="#404040">
	<path d="M52.688,80.587h-30v-30h30V80.587z"></path>
</g>
<g id="color103" opacity="100" fill="#ffffff">
	<path d="M52.688,46.399h-30v-30h30V46.399z"></path>
</g>
</svg>
</svg>