<svg id="SvgjsSvg1820" width="2048" height="2048" xmlns="http://www.w3.org/2000/svg" version="1.1" xmlns:xlink="http://www.w3.org/1999/xlink" xmlns:svgjs="http://svgjs.com/svgjs"><defs id="SvgjsDefs1821"></defs><!--?xml version="1.0" encoding="iso-8859-1"?-->
<!-- Generator: Adobe Illustrator 16.0.0, SVG Export Plug-In . SVG Version: 6.00 Build 0)  -->

<svg version="1.1" xmlns="http://www.w3.org/2000/svg" xmlns:xlink="http://www.w3.org/1999/xlink" x="0px" y="0px" width="2048px" height="2048px" viewBox="0 0 2048 2048" xml:space="preserve">
<g id="color01" opacity="100" fill="#2e7e45">
	<path id="cut" d="M610.2,107.9c204.76-0.3,409.52-0.12,614.28-0.08c0.279,16,0.319,32.02,0.02,48.02
		c-204.78,0.16-409.56-0.04-614.32,0.1C610.12,139.94,610.1,123.92,610.2,107.9z M1325.18,233.2
		c-29.859,20.64-52.58,49.7-72.1,79.92c-24.16,37-43.7,77.38-73.58,110.34c-20.24,22.4-47.28,36.62-73.16,51.34
		c-1.5,4.32,0.94,8.92,1.58,13.28c16.46,66.88,32.18,134.08,41.52,202.38c3.061,25.82,6.641,51.64,6.86,77.68
		c2.681,33.2,1.78,66.601-0.12,99.841c0.641,21.42-2.52,42.68-2.279,64.1c-1.78,13.02-1.7,26.16-2.381,39.26
		c-2.42,14.9-1.039,30.04-3.159,44.98c0.02,18.279-2.761,36.399-2.761,54.699c-1.88,16.881-1.439,33.921-3.399,50.82
		c0.38,17.18-3.5,34.16-1.92,51.32c11.54,1.359,22.92,4.22,33.399,9.32c28.561,13.899,51.061,36.96,77.2,54.579
		c33.38,23.32,73.46,34.5,113.22,40.82c27.82,4.061,55.9,6.28,84.021,6.26c19.38,1,38.78,1.82,58.16,0.2
		c34.04-0.18,68.08-2.52,101.62-8.399c30.42-5.921,60.8-14.54,87.739-30.261c23.28-13.34,42.96-31.779,64.721-47.279
		c17.42-12.86,37.359-23.28,59.26-25.2c1.8-16.44-1.5-32.76-1.72-49.181c-4.2-74.76-9.24-149.439-12.801-224.239
		c-2-17.24-0.56-34.62-1.859-51.9c-1.301-22.56-1.34-45.16,0.04-67.72c2.54-100.78,26.64-199.34,50.08-296.92
		c0.199-3.02,2.819-7.56-0.96-9.34c-24.341-13.6-49.301-27.2-68.92-47.38c-22.061-23.5-38.74-51.32-55.101-78.92
		c-20.52-33.82-41.1-68.46-70.24-95.68c-25.52-23.34-55.84-40.6-86.42-56.3c-8.64-0.22-17,2.54-25.62,2.42
		c-38.699,0.2-77.399,0-116.1,0.08c-9.6-0.06-19.28,0.54-28.74-1.32c-5.779-0.76-12.22-2.7-17.42,0.94
		C1363.86,208.84,1343.58,219.58,1325.18,233.2z M280.02,430c-11.82,12.44-25.26,23.66-40.72,31.32
		c-10.1,4.979-21,7.939-31.72,11.26c0.3,3.46,0.7,6.92,1.5,10.3C235.92,591.98,262.38,702.92,260.1,816
		c-0.12,17.94,0.52,35.92-1.34,53.8c-1.2,11.22,0.06,22.561-1.5,33.761c-1.94,12.859-0.42,25.979-2.82,38.819
		c-3.34,58.521-6.62,117.061-10.3,175.58c0.3,17.44-3.56,34.7-2.04,52.16c227.24,0.22,454.5,0.28,681.74-0.021
		c0.061-7,0.36-14.04-0.78-20.96c-1.859-11.04-0.479-22.3-2.079-33.359c-1.681-12.38-0.261-24.92-2.2-37.261
		c-1.46-10.939-0.2-22.06-1.86-33c-1.82-12.5-0.24-25.22-2.3-37.699c-2.44-50.641-6.78-101.16-8.74-151.82
		c0.4-18.68-1.2-37.32-0.36-55.98c0.721-15.72-0.52-31.539,1.4-47.199c4.28-67.301,17.46-133.681,32.44-199.32
		c5.92-27.04,13.38-53.72,18.88-80.82c-25.4-6.12-49.3-18.5-67.78-37.14c-23.1-23.76-39.82-52.62-57.82-80.18
		c-17.279-27.26-37.54-52.92-62.62-73.4c-22.56-17.26-46.92-32.02-72.039-45.2c-8.08,9.7-14.94,20.4-23.74,29.48
		c-11.48,10.82-24.04,20.68-38.24,27.7c-16.64,8.68-35.42,12.08-53.92,13.86c-14.86-1.92-29.96-4.08-43.88-9.92
		c-14.9-5.96-28.28-15.2-40.52-25.52c-11.96-10.22-20.62-23.5-29.96-35.98c-37.76,21.04-76.62,42.98-104.3,77
		C332.1,349.72,312.36,394.5,280.02,430z M241.9,1247.92c18.7,0.66,37.4,0.18,56.12,0.32c208.6-0.16,417.22,0.24,625.84-0.2
		c0.56-10.92-0.801-21.76-2.16-32.56c-226.101-0.48-452.22,0.18-678.32-0.32C241.82,1226,241.66,1236.98,241.9,1247.92z
		 M1140.12,1273.9c10.979,2.58,22.26,4.319,32.439,9.479c31.4,14.92,55.521,40.82,84.62,59.34
		c33.84,21.36,73.34,31.86,112.641,37.36c21.199,3.479,42.699,3.74,64.04,5.62c32.64,0.62,65.34,1,97.96-0.32
		c12.779-1.86,25.76-0.96,38.54-2.88c53.5-5.18,108.5-18.74,151.26-52.94c22.72-16.819,43.74-36.76,70.06-47.979
		c8.96-4.1,18.82-5.08,28.24-7.66c0.32-11.18,0.561-22.479-1.76-33.479c-6.12,1.119-12.28,2.06-18.34,3.399
		c-19.4,4.141-37.101,13.72-53.44,24.68c-22.08,15.021-41.58,33.62-64.399,47.62c-23.801,14.521-50.94,22.44-78.12,27.761
		c-47.421,8.54-95.801,9.18-143.82,8.38c-14.28-0.521-28.62,0.6-42.78-1.46c-51.04-3.061-104.56-10.92-147.72-40.301
		c-28.74-20-54.14-45.439-86.74-59.38c-12.899-5.92-26.96-8.38-40.84-10.84C1140.16,1251.4,1139.46,1262.66,1140.12,1273.9z
		 M408.6,1586.46c-20.76,31.78-46.4,60.66-77.16,83.06c-12.84,9.601-26.42,18.101-39.64,27.141
		c12.8,51.26,27.66,101.979,40.68,153.18c140.46,0.04,280.96,0.12,421.4-0.02c8.5-29.82,16.16-59.86,24.24-89.78
		c5.479-21.18,12.08-42.14,16.399-63.58c-21.039-12.78-42.539-25.38-60.06-42.92c-15.92-15.2-28.4-33.56-39.5-52.44
		c-18.56-33.22-33.54-68.34-45.66-104.38C637.36,1462.82,628.4,1428,617.8,1393.7c-20.7,5.18-42.3,11.92-63.68,6.399
		c-16.5-2.08-30.28-13.42-39.1-27c-2.64-4-4.18-8.899-8.18-11.779C480.54,1438.84,454.52,1517.88,408.6,1586.46z M1123.54,1397.36
		c-7.021,2.1-14.26,3.5-21.5,4.439c-18.26,1.92-35.98-3.84-53.46-8.12c-18.78,64.38-36.66,129.66-67.46,189.58
		c-16.12,31.9-36.76,62.38-65.36,84.42c-13.74,11-29.14,19.641-44.04,28.94c12.761,51.28,27.181,102.16,40.74,153.24
		c140.4,0.02,280.8,0.06,421.2-0.021c8.2-29.939,16.34-59.88,24.3-89.88c5.38-21.16,12.22-42.02,16.28-63.46
		c-19.101-13-38.66-25.42-56.301-40.36c-24.039-20.859-44.56-45.54-61.859-72.199c-41.3-63.04-66.9-134.521-90.58-205.601
		c-1.92-5.88-3.52-11.939-6.88-17.2C1150.5,1376.04,1139.96,1390.98,1123.54,1397.36z M332.92,1943.48
		c140.26,0.52,280.54,0.02,420.8,0.26c3.141-11.08,6.58-22.12,8.66-33.44c-61.439-0.819-122.939-0.24-184.38-0.42
		c-84.7,0.3-169.4-0.58-254.08,0.44C326.8,1921.4,329.76,1932.46,332.92,1943.48z M912.54,1943.7
		c140.26-0.12,280.52,0.28,420.78-0.22c3.38-10.961,6.479-22.021,9.02-33.221c-24.76-0.819-49.56-0.16-74.34-0.38
		c-121.44,0.22-242.88-0.439-364.3,0.34C906.32,1921.46,909.66,1932.5,912.54,1943.7z"></path>
	<path id="ChestRightChest1" d="M500.022,425.599H365.809v-93.897h134.214V425.599z"></path>
	<path id="ChestLeftChest1" d="M800.495,425.599H666.28v-93.897h134.215V425.599z"></path>
	<path id="ChestLeftChest" d="M800.495,397.429H666.28v-37.56h134.215V397.429z"></path>
	<path id="ChestRightChest" d="M500.022,397.429H365.809v-37.56h134.214V397.429z"></path>
	<path id="ChestUpperFront1" d="M800.528,653.58H365.813V465.786h434.716V653.58z"></path>
	<path id="ChestUpperFront" d="M800.528,578.463H365.813V465.786h434.716V578.463z"></path>
	<path id="ChestCenterFront" d="M800.514,730.922H365.827V618.246h434.687V730.922z"></path>
	<path id="BackCenterBack" d="M1703.478,645.015h-446.805V344.542h446.805V645.015z"></path>
	<path id="BackLowerBack" d="M1703.478,765.203h-446.805v-75.117h446.805V765.203z"></path>
	<path id="BackCenterBack1" d="M1703.478,694.05h-446.805V393.578h446.805V694.05z"></path>
	<path id="BackUpperBack" d="M1632.747,349.317h-305.344v-75.118h305.344V349.317z"></path>
	<path id="SleeveLowerLeftSleeve" d="M1242.029,1787.956H1003.91v-112.677h238.119V1787.956z"></path>
	<path id="SleeveLowerLeftSleeve1" d="M1242.029,1787.956H1003.91v-37.559h238.119V1787.956z"></path>
	<path id="SleeveLowerRightSleeve" d="M662.331,1789.179H424.211v-112.678h238.119V1789.179z"></path>
	<path id="SleeveLowerRightSleeve1" d="M662.331,1789.179H424.211v-37.561h238.119V1789.179z"></path>
</g>
<g id="color02" opacity="100" fill="#ef60ae">
	<path d="M330.034,1202.637h-27.461c32.556-178.109,49.518-347.254,40.281-421.694
		c-9.76,155.064-40.454,181.927-40.454,181.927c3.219-192.159-44.034-293.867-76.713-340.948l-1.777-9.337l-7.512-35.08
		l-7.531-32.327l6.575,9.006c0,0,118.443,153.327,95.358,351.531c0,0,31.218-62.324,23.141-220.643
		C333.941,685.071,388.939,854.435,330.034,1202.637z M854.583,905.714c0,0-31.217-62.324-23.14-220.643
		c0,0-54.998,169.363,3.907,517.565h27.461c-32.557-178.109-49.518-347.254-40.281-421.694
		c9.76,155.064,40.454,181.927,40.454,181.927c-3.218-192.063,43.986-293.766,76.663-340.878l1.791-9.407l7.512-35.08l7.478-32.203
		l-6.485,8.882C949.942,554.183,831.498,707.51,854.583,905.714z M444.292,519.354c-21.053-30.368-21.053-63.522-21.053-63.522
		c8.549,18.431,21.135,33.752,35.547,46.442l17.883,13.89c48.383,33.279,106.028,42.767,106.028,42.767
		s120.853-19.886,159.458-103.098c0,0-0.002,5.075-1.264,13.073v0l-0.001,0c-1.965,12.444-6.982,31.963-19.798,50.449
		c77.729-37.363,110.857-137.793,97.496-208.795l-1.02-1.339l-8.301-9.992l-7.736-8.45l-10.705-10.329l-10.968-9.314l-10.103-7.7
		l-10.292-7.211l-10.516-6.836l-10.592-6.46l-10.705-6.272l-22.047-12.357l-13.107-7.325l-7.325,13.109l-0.263,0.414l-6.535,9.69
		l-7.361,9.164l-8.075,8.526l-8.714,7.812l-9.164,6.949l-9.578,6.009l-10.027,5.033l-4.846,1.991l-3.682,1.352l-4.318,1.353
		l-4.995,1.277l-12.396,2.292l-12.544,1.615l-12.582-1.615l-12.356-2.292l-4.996-1.277l-4.319-1.353l-3.682-1.352l-4.882-1.991
		l-9.991-5.033l-9.577-6.009l-9.164-6.949l-8.714-7.812l-8.075-8.526l-7.361-9.164l-6.536-9.69l-0.263-0.414l-7.323-13.109
		l-13.108,7.325l-22.047,12.357l-10.705,6.234l-10.629,6.498l-10.479,6.836l-10.292,7.211l-10.103,7.7l-10.968,9.314l-10.704,10.329
		l-7.775,8.45l-8.3,9.992l-0.921,1.216C333.407,381.445,366.528,481.97,444.292,519.354z M1231.324,687.394
		c8.078,158.318-23.141,220.644-23.141,220.644c23.086-198.205-95.357-351.531-95.357-351.531l-6.549-8.968l7.504,32.29
		l7.512,35.118l1.78,9.302c32.679,47.082,79.93,148.789,76.71,340.945c0,0,30.695-26.862,40.455-181.927
		c9.754,78.609-9.709,262.832-45.9,451.695l23.52,18.863l0.656,0.48C1291.508,872.754,1231.324,687.394,1231.324,687.394z
		 M1751.967,908.037c0,0-31.217-62.325-23.141-220.644c0,0-60.18,185.354,12.807,566.888l0.625-0.457l23.553-18.871
		c-36.189-188.859-55.65-373.079-45.896-451.688c9.76,155.064,40.453,181.927,40.453,181.927
		c-3.219-192.156,44.033-293.863,76.711-340.945l1.781-9.302l7.473-35.118l7.525-32.267l-6.531,8.945
		C1847.326,556.506,1728.883,709.832,1751.967,908.037z M1341.676,521.677c-21.053-30.368-21.053-63.522-21.053-63.522
		c8.549,18.431,21.135,33.753,35.547,46.442l17.883,13.89c48.383,33.279,106.029,42.766,106.029,42.766
		s120.852-19.885,159.457-103.098c0,0-0.002,5.076-1.266,13.074l0.002-0.001l-0.002,0.001c-1.965,12.444-6.982,31.962-19.797,50.448
		c86.277-41.473,117.617-160.659,91.406-231.04l0.32-0.087l-2.238-3.309l-7.361-10.253l-7.773-9.99l-8.227-9.69l-10.816-11.418
		l-7.588-7.136l-7.285-6.234l-9.916-7.738l-10.217-7.287l-10.479-6.911l-10.668-6.573l-21.445-12.281l-17.164-9.353l-5.221-2.855
		l-5.184,1.314l-10.816,1.465l-11.756,0.677l-12.244,0.187l-53.748,0.188l-53.709-0.188l-12.244-0.187l-11.756-0.677l-10.816-1.465
		l-5.223-1.314l-5.182,2.855l-17.164,9.353l-21.447,12.281l-10.668,6.573l-10.479,6.874l-10.252,7.324l-9.879,7.738l-7.287,6.234
		l-7.586,7.136l-10.818,11.418l-8.225,9.69l-7.773,9.99l-7.363,10.253l-2.236,3.309l0.32,0.087
		C1224.07,361.019,1255.408,480.204,1341.676,521.677z"></path>
</g>
<g id="color03" opacity="100" fill="#c9002d">
	<path d="M321.24,974.992c0,0-19.117,128.438-48.309,227.645h-44.627l-1.69-29.184l-0.037-0.863l0.037-0.9
		l14.874-256.792l2.328-43.456l1.314-35.794l0.376-23.699l-0.188-23.626l-0.827-23.623l-0.805-12.272
		c16.85,16.819,45.046,79.356,37.088,310.937C280.775,1063.363,296.128,1046.027,321.24,974.992z M884.609,1063.363
		c0,0-15.353-17.336-40.466-88.372c0,0,19.119,128.438,48.309,227.645h44.555l1.69-29.184l0.037-0.863l-0.037-0.9l-14.873-256.792
		l-2.292-43.456l-1.314-35.794l-0.376-23.699l0.151-23.626l0.826-23.623l0.8-12.194C904.76,769.44,876.664,832.143,884.609,1063.363
		z M466.368,543.774l-18.488-36.802c0,0,64.716,54.892,134.817,70.474v-18.516c0,0-57.646-9.487-106.028-42.767
		c-6.157-4.234-12.163-8.855-17.883-13.89c-14.412-12.689-26.998-28.011-35.547-46.442c0,0,0,33.154,21.053,63.522
		c-77.764-37.384-110.885-137.91-97.47-208.918l-6.93,9.149l-7.511,10.555l-3.063,4.561
		C330.195,394.996,350.956,492.945,466.368,543.774z M721.093,519.354c12.815-18.486,17.833-38.005,19.798-50.449c0,0,0,0,0.001,0
		c1.262-7.998,1.264-13.073,1.264-13.073c-38.605,83.212-159.458,103.098-159.458,103.098v18.516
		c70.092-15.582,134.808-70.474,134.808-70.474l-18.489,36.802c115.354-50.803,136.157-148.677,137.057-208.979l-3.142-4.654
		l-7.475-10.555l-6.867-9.026C831.95,381.561,798.821,481.992,721.093,519.354z M1178.158,1065.686
		c7.951-231.405-20.195-294.022-37.049-310.898l0.804,12.272l0.825,23.624l0.15,23.587l-0.375,23.7l-1.314,35.831l-2.291,43.456
		l-14.761,254.949l-9.015,28.885l18.518,3.379l12.356,2.254l4.056,1.014l2.517,0.752l8.151,3.342l6.467,3.48
		c30.941-100.365,51.426-237.999,51.426-237.999C1193.511,1048.35,1178.158,1065.686,1178.158,1065.686z M1781.992,1065.686
		c0,0-15.352-17.336-40.465-88.372c0,0,20.49,137.657,51.436,238.026l6.459-3.508l8.15-3.342l2.516-0.752l4.02-1.014l12.395-2.254
		l18.516-3.342l-9.014-28.922l-14.76-254.949l-2.33-43.456l-1.314-35.831l-0.338-23.7l0.15-23.587l0.826-23.624l0.805-12.272
		C1802.188,771.663,1774.041,834.279,1781.992,1065.686z M1363.752,546.097l-18.488-36.802c0,0,64.715,54.892,134.818,70.473
		v-18.516c0,0-57.646-9.487-106.029-42.766c-6.156-4.235-12.164-8.855-17.883-13.89c-14.412-12.689-26.998-28.011-35.547-46.442
		c0,0,0,33.154,21.053,63.522c-86.268-41.473-117.605-160.659-91.406-231.04l-0.32-0.087l-4.824,7.133l-6.836,10.554l-6.61,10.667
		l-4.946,8.205C1225.521,386.013,1241.768,492.374,1363.752,546.097z M1618.477,521.677c12.814-18.486,17.832-38.004,19.797-50.448
		c0,0,0,0,0,0c1.264-7.998,1.266-13.074,1.266-13.074c-38.605,83.213-159.457,103.098-159.457,103.098v18.516
		c70.092-15.582,134.807-70.473,134.807-70.473l-18.49,36.802c121.975-53.718,138.234-160.066,137.029-218.974l-4.955-8.219
		l-6.609-10.667l-6.838-10.554l-4.822-7.133l-0.32,0.087C1736.094,361.019,1704.754,480.204,1618.477,521.677z"></path>
</g>
<g id="color06" opacity="100" fill="#2e7e45">
	<path d="M408.6,1586.46c-20.76,31.78-46.4,60.66-77.16,83.06c-12.84,9.601-26.42,18.101-39.64,27.141
		c12.8,51.26,27.66,101.979,40.68,153.18c140.46,0.04,280.96,0.12,421.4-0.02c8.5-29.82,16.16-59.86,24.24-89.78
		c5.479-21.18,12.08-42.14,16.399-63.58c-21.039-12.78-42.539-25.38-60.06-42.92c-15.92-15.2-28.4-33.56-39.5-52.44
		c-18.56-33.22-33.54-68.34-45.66-104.38C637.36,1462.82,628.4,1428,617.8,1393.7c-20.7,5.18-42.3,11.92-63.68,6.399
		c-16.5-2.08-30.28-13.42-39.1-27c-2.64-4-4.18-8.899-8.18-11.779C480.54,1438.84,454.52,1517.88,408.6,1586.46z M1123.54,1397.36
		c-7.021,2.1-14.26,3.5-21.5,4.439c-18.26,1.92-35.98-3.84-53.46-8.12c-18.78,64.38-36.66,129.66-67.46,189.58
		c-16.12,31.9-36.76,62.38-65.36,84.42c-13.74,11-29.14,19.641-44.04,28.94c12.761,51.28,27.181,102.16,40.74,153.24
		c140.4,0.02,280.8,0.06,421.2-0.021c8.2-29.939,16.34-59.88,24.3-89.88c5.38-21.16,12.22-42.02,16.28-63.46
		c-19.101-13-38.66-25.42-56.301-40.36c-24.039-20.859-44.56-45.54-61.859-72.199c-41.3-63.04-66.9-134.521-90.58-205.601
		c-1.92-5.88-3.52-11.939-6.88-17.2C1150.5,1376.04,1139.96,1390.98,1123.54,1397.36z M332.92,1943.48
		c140.26,0.52,280.54,0.02,420.8,0.26c3.141-11.08,6.58-22.12,8.66-33.44c-61.439-0.819-122.939-0.24-184.38-0.42
		c-84.7,0.3-169.4-0.58-254.08,0.44C326.8,1921.4,329.76,1932.46,332.92,1943.48z M912.54,1943.7
		c140.26-0.12,280.52,0.28,420.78-0.22c3.38-10.961,6.479-22.021,9.02-33.221c-24.76-0.819-49.56-0.16-74.34-0.38
		c-121.44,0.22-242.88-0.439-364.3,0.34C906.32,1921.46,909.66,1932.5,912.54,1943.7z"></path>
</g>
<g id="color07" opacity="100" fill="#ef60ae">
	<path d="M363.25,1779.971l-12.022-18.463C355.542,1767.365,359.594,1773.525,363.25,1779.971z
		 M374.832,1779.236l-5.231-39.605c48.764,45.365,67.55,94.338,71.587,138.502h203.91c4.037-44.164,22.823-93.137,71.587-138.502
		l-5.231,39.605c0,0,35.142-59.404,86.744-97.861L789,1675.99l-9.953-6.121l-9.54-6.273l-9.127-6.648l-3.042-2.439l-5.746-4.883
		l-4.92-4.584l-7.775-7.998l-7.286-8.414l-6.948-8.939l-6.573-9.314l-6.272-9.766l-5.972-10.066l-5.634-10.328l-5.371-10.555
		l-8.264-17.615l-4.77-10.854l-5.107-12.32l-8.525-22.197l-7.889-22.348l-7.323-22.496l-10.329-34.105l-11.193-38.836l-4.244-14.76
		l-14.647,4.545l-10.517,3.268l-11.042,2.404l-10.931,1.314l-10.892,0.188l-5.033-0.301l-4.319-0.525l-11.605-1.992l-5.259-3.004
		l-4.318-2.703l-3.681-2.742l-2.93-2.705l-0.938-0.977l-5.56-7.699l-4.657-9.391l-16.113-32.488l-11.567,34.404l-13.521,40.076
		l-12.508,35.68l-8.713,23.324l-4.433,11.42l-9.314,22.646l-9.84,22.01l-10.479,21.371l-5.484,10.328l-5.672,10.143l-5.896,9.953
		l-6.084,9.727l-6.311,9.465l-6.535,9.24l-6.798,8.977l-7.062,8.713l-7.324,8.451l-7.624,8.15l-7.851,7.813l-12.544,11.381
		l-6.423,5.258l-7.624,5.896l-9.315,6.799l-9.614,6.609l-18.397,12.021C339.568,1719.625,374.832,1779.236,374.832,1779.236z
		 M428.636,1878.133h0.367c-0.223-3.029-0.509-6.055-0.865-9.076C428.375,1872.063,428.54,1875.092,428.636,1878.133z
		 M657.281,1878.133h0.367c0.097-3.041,0.261-6.07,0.498-9.076C657.79,1872.078,657.503,1875.104,657.281,1878.133z
		 M723.036,1779.971l12.021-18.463C730.743,1767.365,726.69,1773.525,723.036,1779.971z M1007.461,1878.133h0.367
		c-0.223-3.028-0.509-6.055-0.865-9.076C1007.201,1872.063,1007.365,1875.092,1007.461,1878.133z M930.052,1761.509l12.022,18.462
		C938.419,1773.526,934.367,1767.366,930.052,1761.509z M1236.105,1878.133h0.367c0.098-3.041,0.262-6.07,0.498-9.076
		C1236.615,1872.078,1236.328,1875.104,1236.105,1878.133z M1301.861,1779.971l12.021-18.462
		C1309.568,1767.366,1305.516,1773.526,1301.861,1779.971z M953.657,1779.237l-5.231-39.607
		c48.764,45.367,67.55,94.339,71.587,138.503h203.91c4.037-44.164,22.824-93.136,71.588-138.503l-5.232,39.607
		c0,0,35.264-59.61,87.01-98.062l-18.396-12.021l-9.615-6.61l-9.316-6.798l-7.623-5.896l-6.424-5.258l-12.543-11.381l-7.852-7.813
		l-7.623-8.15l-7.324-8.45l-7.063-8.714l-6.797-8.977l-6.535-9.24l-6.311-9.465l-6.084-9.727l-5.896-9.955l-5.672-10.14
		l-5.484-10.329l-10.479-21.371l-9.84-22.01l-9.314-22.647l-4.434-11.419l-8.713-23.324l-12.508-35.681l-13.521-40.075
		l-11.566-34.404l-16.113,32.488l-4.658,9.391l-5.559,7.699l-0.939,0.977l-2.928,2.704l-3.682,2.742l-4.318,2.704l-5.26,3.005
		l-11.605,1.99l-4.318,0.526l-5.033,0.3l-10.893-0.187l-10.93-1.315l-11.043-2.403l-10.516-3.268l-14.648-4.545l-4.244,14.76
		l-11.193,38.836l-10.329,34.104l-7.323,22.497l-7.888,22.348l-8.525,22.197l-5.107,12.319l-4.771,10.854l-8.264,17.615
		l-5.37,10.555l-5.635,10.329l-5.972,10.065l-6.271,9.766l-6.573,9.314l-6.948,8.939l-7.287,8.413l-7.774,7.999l-4.92,4.583
		l-5.746,4.884l-3.043,2.439l-9.127,6.648l-9.54,6.273l-9.953,6.121l-9.194,5.384
		C918.514,1719.83,953.657,1779.237,953.657,1779.237z"></path>
</g>
<g id="color08" opacity="100" fill="#c9002d">
	<path d="M441.187,1878.133h-12.184c-0.223-3.029-0.509-6.055-0.865-9.076
		c-4.354-36.908-18.805-72.916-46.016-99.963c9.663,34.572-0.975,64.861-0.975,64.861c-1.969-19.621-8.667-37.709-17.898-53.984
		c-3.655-6.445-7.708-12.605-12.022-18.463c-25.607-34.764-60.42-58.875-75.986-68.627l-0.799-2.955l9.127-5.973l4.251-2.777
		c51.748,38.449,87.012,98.061,87.012,98.061l-5.231-39.605C418.364,1784.996,437.15,1833.969,441.187,1878.133z M711.453,1779.236
		l5.231-39.605c-48.764,45.365-67.55,94.338-71.587,138.502h12.184c0.223-3.029,0.509-6.055,0.865-9.076
		c4.354-36.908,18.805-72.916,46.016-99.963c-9.663,34.572,0.975,64.861,0.975,64.861c1.969-19.621,8.667-37.709,17.899-53.984
		c3.654-6.445,7.707-12.605,12.021-18.463c25.503-34.621,60.139-58.68,75.797-68.51l0.983-3.637l-9.879-5.783l-3.762-2.203
		C746.594,1719.832,711.453,1779.236,711.453,1779.236z M948.425,1739.63l5.231,39.607c0,0-35.143-59.407-86.745-97.863
		l-3.764,2.203l-9.878,5.784l0.982,3.635c15.657,9.828,50.295,33.887,75.8,68.513c4.314,5.857,8.367,12.018,12.022,18.462
		c9.231,16.275,15.93,34.364,17.898,53.984c0,0,10.638-30.288,0.975-64.861c27.211,27.048,41.662,63.054,46.016,99.963
		c0.356,3.021,0.643,6.048,0.865,9.076h12.184C1015.975,1833.969,997.189,1784.997,948.425,1739.63z M1290.277,1779.237
		l5.232-39.607c-48.764,45.367-67.551,94.339-71.588,138.503h12.184c0.223-3.028,0.51-6.055,0.865-9.076
		c4.354-36.909,18.805-72.915,46.016-99.963c-9.662,34.573,0.975,64.861,0.975,64.861c1.969-19.62,8.668-37.709,17.9-53.984
		c3.654-6.444,7.707-12.604,12.021-18.462c25.605-34.763,60.416-58.874,75.982-68.626l0.799-2.958l-9.127-5.972l-4.25-2.777
		C1325.541,1719.627,1290.277,1779.237,1290.277,1779.237z"></path>
</g>
<g id="color13" opacity="100" fill="#c9002d">
	<path d="M610.2,107.9c204.76-0.3,409.52-0.12,614.28-0.08c0.279,16,0.319,32.02,0.02,48.02
		c-204.78,0.16-409.56-0.04-614.32,0.1C610.12,139.94,610.1,123.92,610.2,107.9z"></path>
</g>
<g id="color101" opacity="100" fill="#000000">
	<path d="M52.688,114.775h-30v-30h30V114.775z"></path>
</g>
<g id="color102" opacity="100" fill="#404040">
	<path d="M52.688,80.587h-30v-30h30V80.587z"></path>
</g>
<g id="color103" opacity="100" fill="#ffffff">
	<path d="M52.688,46.399h-30v-30h30V46.399z"></path>
</g>
</svg>
</svg>