<?xml version="1.0" encoding="UTF-8"?>
<svg id="Layer_1" xmlns="http://www.w3.org/2000/svg" version="1.1" viewBox="0 0 2048 2048">
  <!-- Generator: Adobe Illustrator 29.1.0, SVG Export Plug-In . SVG Version: 2.1.0 Build 142)  -->
  <defs>
    <style>
      .st0 {
        fill: #e6e6e6;
      }

      .st1 {
        fill: #009fe8;
      }

      .st2 {
        fill: red;
      }
    </style>
  </defs>
  <g id="Body">
    <path id="cut" class="st0" d="M1199.3,51.3c4.4-3.8,8.5-8.5,14.4-9.8.9,20.9-1.2,42,1.3,62.9,5.2,51.7,30.2,98.9,59.6,140.8,9.4,12.2,21.3,23,36,28.1,21.3,8.7,44.7,9,67.3,10.3,38.6.3,77.4,1.7,115.9-2.2,16.4-2.7,33.1-7,47-16.7,17.6-12.1,28-31.2,39-48.9,22.2-37,39.4-78.4,40.7-122.1,2-17.5.9-35,.9-52.5,3,0,5.1,2.3,7.4,4,28.8,23.8,57.4,47.9,85.9,72.1,17.7,14.5,36.4,29.9,59.5,34.3,14.1,1.5,28.4.5,42-3.4,5.8-1.5,11.5-4.2,17.7-4.1-3.5,6.7-10.2,11-14.7,17.1-41.8,41.5-67.8,95.8-87.3,150.6-13.2,36.9-21.9,75.4-25.7,114.4-.6,11.9-.3,23.7-.7,35.6-191.8.2-383.6,0-575.4,0-.2-33.7-2.8-67.6-11.8-100.2-18.4-68.6-45.5-136.9-92.9-191-7.4-8-15.3-15.4-22.6-23.4-.3-.8-.9-2.5-1.2-3.4,12.9,2,25,7.9,38.2,8.2,8.8,0,17.9,1.1,26.4-1.9,26.9-7.8,47.7-27.6,68.8-45,21.2-18.2,42.6-36.2,64.2-53.9ZM151,109c-17,18-29.9,41.7-28.5,67.1,3.5,53.6,14.3,108.9,46,153.5,22,32,48.7,60.5,76.9,87,8.1,7.9,16,16,24.9,22.9h1.3c13.8-10.7,25.3-24,38.5-35.3,33.5-34.5,67.1-70.8,86.5-115.5,14.3-33,19.8-69,23.2-104.5.8-11.2,0-22.4-2.7-33.3-4.4-14.1-12.3-26.8-21.6-38.2-17.7-19.4-37.7-36.7-58.7-52.4-7.3,10.3-16.6,18.9-23.3,29.6,18.2,16,37.9,30.5,53.8,48.9,9.3,11.6,16.4,26.1,14.3,41.4-6.9,45.8-16.4,93.3-44,131.6-16.9,24.3-40.1,43.4-64.8,59.3-2.1,1.8-4.3-.5-6.1-1.5-14.1-9.8-28.3-19.6-40.3-32-21.5-21.3-37.5-47.8-47.9-76.1-10-26.8-13.8-55.3-18.4-83.4-.6-11.3,3.2-22.8,9.9-32,15.4-22.9,40.4-36.4,59.1-56.2-7-10.6-16.3-19.4-23.8-29.6-8.5,5.6-15.5,13.2-23.5,19.4-10.2,9.8-21.8,18.2-30.7,29.4ZM527.1,165.1c-5,19.7-.4,40,2.1,59.6,3.7,26,9.8,51.8,19.9,76.1,13.7,33.1,37.4,60.6,61,87,19.6,22.5,42.2,42.1,63.9,62.5,8.9-7.9,16.9-16.7,26.1-24.3,29.4-27.4,56.9-57.2,79.4-90.5,21.3-32.6,33.8-70.4,39.1-108.9,3.2-22.5,6.9-45.9.9-68.3-7.4-22.1-22.7-40.7-40.6-55.3-12.7-11.3-25.6-22.4-38.7-33.2-8.3,9.7-16.9,19.2-24.3,29.6,18.5,17.7,40.1,32.3,56.3,52.3,4.4,6.6,9.3,13.2,10.7,21.2,3.3,12.7.1,25.8-1.7,38.4-6.3,41.9-20.6,83.4-46.5,117.3-16.5,21.7-38,38.9-60.8,53.3-24.9-15.8-48.4-34.5-65.4-58.8-27.4-37.5-39.3-83.8-45-129.2-4.2-17.1,5-34.1,15.9-46.7,14.4-15.7,30.8-29.4,47.1-43,1.5-1.9,4.6-3.2,4.7-5.9-7.7-9.5-15.7-18.9-23.7-28.2-16,12.2-30.6,26-45.7,39.4-15,15.8-30.3,33.3-34.8,55.3ZM1284.1,139.9c19.3.7,38.6.1,57.9.3,61.3-.2,122.6.3,183.9-.3,0-4.3.2-8.7-.8-13-34.4-.6-68.7,0-103.1-.3-46,.5-92-.7-137.9.6,0,4.2,0,8.4,0,12.6ZM306.8,576.8c-5.1,30-14.8,61.1-37.1,83-16.1,16.9-37.7,26.7-58.5,36.4,1.3,16.6.3,33.3,2.4,49.8.7,12.8.1,25.7,1.7,38.5,1.6,13.2.1,26.6,1.5,39.8,1.9,15.9.4,32,2.1,48,2.1,20.3.4,40.7,2.1,61,1.6,20.9.3,41.9,1.1,62.8,1.9,56.6,1.6,113.3-.2,170-.4,22.8.5,45.6-1.1,68.4-1.4,22.5,0,45-1.9,67.5-1.7,16.7-.3,33.4-1.5,50.1-2.3,23.1-.7,46.4-2.8,69.6,11.1,1.1,22.2.2,33.3.4,243.9,0,487.9,0,731.9,0,.7-20.7-2.8-41.2-2.1-61.9-2.4-21.1-1.2-42.3-3.1-63.4-1.5-18.5,0-37.1-2.2-55.6-1.1-25.7-.3-51.5-2.1-77.3-.6-45.2-.6-90.5-.3-135.7-.3-20,0-40,1.3-59.9,1.1-18-.1-36,1.5-54,1.7-14.8.3-29.8,1.8-44.6,2.1-15.7.3-31.6,2.6-47.3,1-27.4,2.7-54.8,4.4-82.1-.1-14.6,3-29.1,2-43.8-16.1-8.4-33.2-15.3-47.4-26.8-27.6-20.4-41.4-54.2-47.1-87.1-1.1-9.1-7.7-16-12.4-23.5-6.2-7.1-11.4-15.2-19.3-20.6-12.1-11.1-28.8-15-44.6-17.4-45.5-5.6-91.4-.8-137.1-2.3-5.8-.4-11.6-.4-17.4,0-15.9,17.4-32.6,34.1-49.7,50.5-3.8,4-7.3,8.3-12.2,11.1-20.4-20.7-41-41.1-61.4-61.7-41.8,1.3-83.7-.8-125.5,0-20.4,1.6-41.5,2-60.2,11.2-19.2,10.2-32.6,28.5-42.8,47.2ZM1178.1,566c-4,33.8-17,68.2-42.7,91.4-15.7,13.4-34.6,22.3-53.1,31-.9,17.3,2.8,34.3,1.9,51.6,1.4,16.6,1.6,33.2,2.4,49.9,2.6,20,.6,40.1,3.2,60.1-.2,27.4,2.9,54.6,2.3,82,.4,22,2.4,44,2,66,.2,52,.4,104,0,156,.2,23.3-.2,46.6-1.7,69.9-.8,17.4.1,34.8-.9,52.2-2.5,24.5-.3,49.3-3.2,73.8-.4,18,0,36.1-2.1,54.1.4,3.8-2.2,11.8,4,11.7,251.9,0,503.8,0,755.7,0,2.3.3,4.2-.4,5.7-2.3.4-11.2-2.2-22.3-1.8-33.4.6-17.4-2.5-34.6-2-52,.3-15.4-2.4-30.6-2-46,.6-18.7-2.4-37.3-2-56,.5-23.4-2.2-46.6-2-70,.2-44.6-1.3-89.3-.4-133.9,1-31.3-.4-62.7,1.7-93.9,1.5-18.2-.2-36.4,2-54.6,1-15.8.5-31.7,2.4-47.4-.2-18.2,2.6-36.1,2.5-54.2,2.6-27.7,2.9-55.5,5.8-83.2-20.5-9.2-41.6-18.9-57.7-35-20.5-18.9-31.7-45.9-36.9-72.9-3.4-14.6-3.5-29.5-5.7-44.2-191.5.5-383.1-.3-574.6.4-1.5,9.6-1,19.5-2.9,29.1ZM1116.4,1493.5c205.2.5,410.4,0,615.6.2,49.7-.4,99.5.5,149.3-.5.6-8.4-.3-16.7-1.2-25-248.7-.2-497.4,0-746.1-.1-5.7,0-11.5-.3-17.2.7-.8,8.2-1,16.4-.4,24.7ZM198.7,1499.7c34.4,1.1,68.9.2,103.4.5,220.6-.1,441.2.3,661.8-.2.2-8,.2-15.9,0-23.9-254.6,0-509.2-.1-763.7,0-.8,7.8-1,15.7-1.5,23.5ZM314.1,1600c-28.2,29.9-53.8,62.1-83.6,90.5-24,24.5-54.8,40.3-85.2,55.4,7.3,58.1,17.3,116,25.1,174,166.5.5,333,0,499.5.3,4.4,0,8.8-.2,13.2-.8,7.5-57.8,17.4-115.3,24.9-173.1-24.1-12.7-49-24.6-70.2-42.2-45.4-38.7-79.3-88.6-123.7-128.4-18.2-14.7-38.9-27.4-62.2-31.8-10.5-2-21.2-5.4-31.9-3.6-12.9,2.2-26,4.5-38.1,9.4-26.8,10.1-48.3,29.8-67.8,50.2ZM1010.3,1588.4c-34.9,33.2-63.8,72.1-98.7,105.3-18.8,19.3-41.8,34-65.7,46.2-6.8,4.2-15.6,6.1-21,12.1,7.6,54.9,16.7,109.7,24.4,164.6.8,3.2.1,9.1,5.1,8.7,169.4-.2,338.9.3,508.4-.3,8.1-58.2,17.8-116.2,25.2-174.4-26.5-13.4-53.6-26.6-75.7-46.9-17.9-14.7-32.6-32.7-48.4-49.5-17.6-19.1-33.7-39.6-52.4-57.6-20-20.4-43.7-38.5-71.5-46.4-15.1-3.2-30.6-8.2-46-4.3-31.9,4-60.9,20.5-83.7,42.6ZM171,1999.1c170.6,0,341.2.4,511.7-.1,1.3-8.2,2.7-16.4,3.3-24.7-4.7-.3-9.4-.5-14.1-.4-168,.3-336.1-.4-504.1.3,0,8.4,1.6,16.7,3.1,24.9ZM860.7,2003.6c31.1.8,62.2.1,93.3.3h360c19.7-.4,39.5.9,59.1-.6.8-8.2,3-16.3,2.6-24.6-172.5,0-345,.2-517.5,0-.6,8.4,1.7,16.6,2.4,25Z"/>
  </g>
  <rect id="Line_2" class="st1" x="122.4" y="1685.9" width="1321.9" height="159.5"/>
  <g id="Line_1">
    <rect class="st2" x="13.4" y="1743.3" width="1623.2" height="44.7"/>
  </g>
</svg>