<?xml version="1.0" encoding="UTF-8"?>
<svg id="Layer_1" xmlns="http://www.w3.org/2000/svg" version="1.1" viewBox="0 0 2048 2048">
  <!-- Generator: Adobe Illustrator 29.1.0, SVG Export Plug-In . SVG Version: 2.1.0 Build 142)  -->
  <defs>
    <style>
      .st0 {
        fill: #e6e6e6;
      }

      .st1 {
        fill: #ccc;
      }

      .st2 {
        fill: #ea6000;
        fill-rule: evenodd;
      }

      .st3 {
        fill: #b3b3b3;
      }
    </style>
  </defs>
  <g id="Body">
    <path id="cut" class="st0" d="M1199.3,51.3c4.4-3.8,8.5-8.5,14.4-9.8.9,20.9-1.2,42,1.3,62.9,5.2,51.7,30.2,98.9,59.6,140.8,9.4,12.2,21.3,23,36,28.1,21.3,8.7,44.7,9,67.3,10.3,38.6.3,77.4,1.7,115.9-2.2,16.4-2.7,33.1-7,47-16.7,17.6-12.1,28-31.2,39-48.9,22.2-37,39.4-78.4,40.7-122.1,2-17.5.9-35,.9-52.5,3,0,5.1,2.3,7.4,4,28.8,23.8,57.4,47.9,85.9,72.1,17.7,14.5,36.4,29.9,59.5,34.3,14.1,1.5,28.4.5,42-3.4,5.8-1.5,11.5-4.2,17.7-4.1-3.5,6.7-10.2,11-14.7,17.1-41.8,41.5-67.8,95.8-87.3,150.6-13.2,36.9-21.9,75.4-25.7,114.4-.6,11.9-.3,23.7-.7,35.6-191.8.2-383.6,0-575.4,0-.2-33.7-2.8-67.6-11.8-100.2-18.4-68.6-45.5-136.9-92.9-191-7.4-8-15.3-15.4-22.6-23.4-.3-.8-.9-2.5-1.2-3.4,12.9,2,25,7.9,38.2,8.2,8.8,0,17.9,1.1,26.4-1.9,26.9-7.8,47.7-27.6,68.8-45,21.2-18.2,42.6-36.2,64.2-53.9ZM151,109c-17,18-29.9,41.7-28.5,67.1,3.5,53.6,14.3,108.9,46,153.5,22,32,48.7,60.5,76.9,87,8.1,7.9,16,16,24.9,22.9h1.3c13.8-10.7,25.3-24,38.5-35.3,33.5-34.5,67.1-70.8,86.5-115.5,14.3-33,19.8-69,23.2-104.5.8-11.2,0-22.4-2.7-33.3-4.4-14.1-12.3-26.8-21.6-38.2-17.7-19.4-37.7-36.7-58.7-52.4-7.3,10.3-16.6,18.9-23.3,29.6,18.2,16,37.9,30.5,53.8,48.9,9.3,11.6,16.4,26.1,14.3,41.4-6.9,45.8-16.4,93.3-44,131.6-16.9,24.3-40.1,43.4-64.8,59.3-2.1,1.8-4.3-.5-6.1-1.5-14.1-9.8-28.3-19.6-40.3-32-21.5-21.3-37.5-47.8-47.9-76.1-10-26.8-13.8-55.3-18.4-83.4-.6-11.3,3.2-22.8,9.9-32,15.4-22.9,40.4-36.4,59.1-56.2-7-10.6-16.3-19.4-23.8-29.6-8.5,5.6-15.5,13.2-23.5,19.4-10.2,9.8-21.8,18.2-30.7,29.4ZM527.1,165.1c-5,19.7-.4,40,2.1,59.6,3.7,26,9.8,51.8,19.9,76.1,13.7,33.1,37.4,60.6,61,87,19.6,22.5,42.2,42.1,63.9,62.5,8.9-7.9,16.9-16.7,26.1-24.3,29.4-27.4,56.9-57.2,79.4-90.5,21.3-32.6,33.8-70.4,39.1-108.9,3.2-22.5,6.9-45.9.9-68.3-7.4-22.1-22.7-40.7-40.6-55.3-12.7-11.3-25.6-22.4-38.7-33.2-8.3,9.7-16.9,19.2-24.3,29.6,18.5,17.7,40.1,32.3,56.3,52.3,4.4,6.6,9.3,13.2,10.7,21.2,3.3,12.7.1,25.8-1.7,38.4-6.3,41.9-20.6,83.4-46.5,117.3-16.5,21.7-38,38.9-60.8,53.3-24.9-15.8-48.4-34.5-65.4-58.8-27.4-37.5-39.3-83.8-45-129.2-4.2-17.1,5-34.1,15.9-46.7,14.4-15.7,30.8-29.4,47.1-43,1.5-1.9,4.6-3.2,4.7-5.9-7.7-9.5-15.7-18.9-23.7-28.2-16,12.2-30.6,26-45.7,39.4-15,15.8-30.3,33.3-34.8,55.3ZM1284.1,139.9c19.3.7,38.6.1,57.9.3,61.3-.2,122.6.3,183.9-.3,0-4.3.2-8.7-.8-13-34.4-.6-68.7,0-103.1-.3-46,.5-92-.7-137.9.6,0,4.2,0,8.4,0,12.6ZM306.8,576.8c-5.1,30-14.8,61.1-37.1,83-16.1,16.9-37.7,26.7-58.5,36.4,1.3,16.6.3,33.3,2.4,49.8.7,12.8.1,25.7,1.7,38.5,1.6,13.2.1,26.6,1.5,39.8,1.9,15.9.4,32,2.1,48,2.1,20.3.4,40.7,2.1,61,1.6,20.9.3,41.9,1.1,62.8,1.9,56.6,1.6,113.3-.2,170-.4,22.8.5,45.6-1.1,68.4-1.4,22.5,0,45-1.9,67.5-1.7,16.7-.3,33.4-1.5,50.1-2.3,23.1-.7,46.4-2.8,69.6,11.1,1.1,22.2.2,33.3.4,243.9,0,487.9,0,731.9,0,.7-20.7-2.8-41.2-2.1-61.9-2.4-21.1-1.2-42.3-3.1-63.4-1.5-18.5,0-37.1-2.2-55.6-1.1-25.7-.3-51.5-2.1-77.3-.6-45.2-.6-90.5-.3-135.7-.3-20,0-40,1.3-59.9,1.1-18-.1-36,1.5-54,1.7-14.8.3-29.8,1.8-44.6,2.1-15.7.3-31.6,2.6-47.3,1-27.4,2.7-54.8,4.4-82.1-.1-14.6,3-29.1,2-43.8-16.1-8.4-33.2-15.3-47.4-26.8-27.6-20.4-41.4-54.2-47.1-87.1-1.1-9.1-7.7-16-12.4-23.5-6.2-7.1-11.4-15.2-19.3-20.6-12.1-11.1-28.8-15-44.6-17.4-45.5-5.6-91.4-.8-137.1-2.3-5.8-.4-11.6-.4-17.4,0-15.9,17.4-32.6,34.1-49.7,50.5-3.8,4-7.3,8.3-12.2,11.1-20.4-20.7-41-41.1-61.4-61.7-41.8,1.3-83.7-.8-125.5,0-20.4,1.6-41.5,2-60.2,11.2-19.2,10.2-32.6,28.5-42.8,47.2ZM1178.1,566c-4,33.8-17,68.2-42.7,91.4-15.7,13.4-34.6,22.3-53.1,31-.9,17.3,2.8,34.3,1.9,51.6,1.4,16.6,1.6,33.2,2.4,49.9,2.6,20,.6,40.1,3.2,60.1-.2,27.4,2.9,54.6,2.3,82,.4,22,2.4,44,2,66,.2,52,.4,104,0,156,.2,23.3-.2,46.6-1.7,69.9-.8,17.4.1,34.8-.9,52.2-2.5,24.5-.3,49.3-3.2,73.8-.4,18,0,36.1-2.1,54.1.4,3.8-2.2,11.8,4,11.7,251.9,0,503.8,0,755.7,0,2.3.3,4.2-.4,5.7-2.3.4-11.2-2.2-22.3-1.8-33.4.6-17.4-2.5-34.6-2-52,.3-15.4-2.4-30.6-2-46,.6-18.7-2.4-37.3-2-56,.5-23.4-2.2-46.6-2-70,.2-44.6-1.3-89.3-.4-133.9,1-31.3-.4-62.7,1.7-93.9,1.5-18.2-.2-36.4,2-54.6,1-15.8.5-31.7,2.4-47.4-.2-18.2,2.6-36.1,2.5-54.2,2.6-27.7,2.9-55.5,5.8-83.2-20.5-9.2-41.6-18.9-57.7-35-20.5-18.9-31.7-45.9-36.9-72.9-3.4-14.6-3.5-29.5-5.7-44.2-191.5.5-383.1-.3-574.6.4-1.5,9.6-1,19.5-2.9,29.1ZM1116.4,1493.5c205.2.5,410.4,0,615.6.2,49.7-.4,99.5.5,149.3-.5.6-8.4-.3-16.7-1.2-25-248.7-.2-497.4,0-746.1-.1-5.7,0-11.5-.3-17.2.7-.8,8.2-1,16.4-.4,24.7ZM198.7,1499.7c34.4,1.1,68.9.2,103.4.5,220.6-.1,441.2.3,661.8-.2.2-8,.2-15.9,0-23.9-254.6,0-509.2-.1-763.7,0-.8,7.8-1,15.7-1.5,23.5ZM314.1,1600c-28.2,29.9-53.8,62.1-83.6,90.5-24,24.5-54.8,40.3-85.2,55.4,7.3,58.1,17.3,116,25.1,174,166.5.5,333,0,499.5.3,4.4,0,8.8-.2,13.2-.8,7.5-57.8,17.4-115.3,24.9-173.1-24.1-12.7-49-24.6-70.2-42.2-45.4-38.7-79.3-88.6-123.7-128.4-18.2-14.7-38.9-27.4-62.2-31.8-10.5-2-21.2-5.4-31.9-3.6-12.9,2.2-26,4.5-38.1,9.4-26.8,10.1-48.3,29.8-67.8,50.2ZM1010.3,1588.4c-34.9,33.2-63.8,72.1-98.7,105.3-18.8,19.3-41.8,34-65.7,46.2-6.8,4.2-15.6,6.1-21,12.1,7.6,54.9,16.7,109.7,24.4,164.6.8,3.2.1,9.1,5.1,8.7,169.4-.2,338.9.3,508.4-.3,8.1-58.2,17.8-116.2,25.2-174.4-26.5-13.4-53.6-26.6-75.7-46.9-17.9-14.7-32.6-32.7-48.4-49.5-17.6-19.1-33.7-39.6-52.4-57.6-20-20.4-43.7-38.5-71.5-46.4-15.1-3.2-30.6-8.2-46-4.3-31.9,4-60.9,20.5-83.7,42.6ZM171,1999.1c170.6,0,341.2.4,511.7-.1,1.3-8.2,2.7-16.4,3.3-24.7-4.7-.3-9.4-.5-14.1-.4-168,.3-336.1-.4-504.1.3,0,8.4,1.6,16.7,3.1,24.9ZM860.7,2003.6c31.1.8,62.2.1,93.3.3h360c19.7-.4,39.5.9,59.1-.6.8-8.2,3-16.3,2.6-24.6-172.5,0-345,.2-517.5,0-.6,8.4,1.7,16.6,2.4,25Z"/>
  </g>
  <g id="Sleeves">
    <path class="st1" d="M314.1,1600c-28.2,29.9-53.8,62.1-83.6,90.5-24,24.5-54.8,40.3-85.2,55.4,7.3,58.1,17.3,116,25.1,174,166.5.5,333,0,499.5.3,4.4,0,8.8-.2,13.2-.8,7.5-57.8,17.4-115.3,24.9-173.1-24.1-12.7-49-24.6-70.2-42.2-45.4-38.7-79.3-88.6-123.7-128.4-18.2-14.7-38.9-27.4-62.2-31.8-10.5-2-21.2-5.4-31.9-3.6-12.9,2.2-26,4.5-38.1,9.4-26.8,10.1-48.3,29.8-67.8,50.2ZM1010.3,1588.4c-34.9,33.2-63.8,72.1-98.7,105.3-18.8,19.3-41.8,34-65.7,46.2-6.8,4.2-15.6,6.1-21,12.1,7.6,54.9,16.7,109.7,24.4,164.6.8,3.2.1,9.1,5.1,8.7,169.4-.2,338.9.3,508.4-.3,8.1-58.2,17.8-116.2,25.2-174.4-26.5-13.4-53.6-26.6-75.7-46.9-17.9-14.7-32.6-32.7-48.4-49.5-17.6-19.1-33.7-39.6-52.4-57.6-20-20.4-43.7-38.5-71.5-46.4-15.1-3.2-30.6-8.2-46-4.3-31.9,4-60.9,20.5-83.7,42.6ZM171,1999.1c170.6,0,341.2.4,511.7-.1,1.3-8.2,2.7-16.4,3.3-24.7-4.7-.3-9.4-.5-14.1-.4-168,.3-336.1-.4-504.1.3,0,8.4,1.6,16.7,3.1,24.9ZM860.7,2003.6c31.1.8,62.2.1,93.3.3h360c19.7-.4,39.5.9,59.1-.6.8-8.2,3-16.3,2.6-24.6-172.5,0-345,.2-517.5,0-.6,8.4,1.7,16.6,2.4,25Z"/>
  </g>
  <g id="Accent">
    <path class="st2" d="M548.3,1590.8c-1.9.7-3.9,1.4-5.8,2,1.8-.8,3.5-1.7,5.2-2.6l.6.6ZM451.1,1528.7l-4.7-.9c-1.4,1-2.9,1.9-4.3,2.9,3.2-.6,6.4-1.2,9.6-1.8h-.6ZM487.7,1589.1c2.8-.4,5.6-.7,8.5-1.1-4.4,3.9-8.3,8.3-11.5,13.3,3.9-2.2,8.2-3.8,12.6-4.6-10.2,8.5-16,22.1-21.7,34.1,1.6-1.3,3.3-2.5,4.9-3.8-4.5,7.9-10,14.9-16.5,21.3-.1,0-.2.2-.3.3-8.2,8-18.1,15.8-29.3,18.2,5.5.6,10.3.2,16.1-2.2,9.7-4,18.6-9.6,26.5-16.3,9.1-7.7,16.8-17,23.1-27.4-3.2,1.9-6.2,4.1-8.9,6.7,7.2-13,17.9-24.1,30.8-31.7-4.5.3-8.8,1.4-12.9,3.3,6.8-7.8,13.7-14.2,21.5-18-5.8.2-8.7,2-11.9,3.6,3.2-4.6,6.9-8.7,11-12.4l-.9-.8-6.8-5.8c-11.9,5.8-25.5,13.6-34.2,23.3ZM571.3,1616.5l-1.1-1.2c-.7.1-1.4.3-2,.8.5-.4,1-.9,1.5-1.3l-6.5-7.5c-7.1,6.5-13.4,13.8-17.8,21.7,2.1-1.6,4.2-3.3,6.3-4.9-5.5,6.3-9.7,14.2-12.1,22.3,7.8-12.3,18.9-22.9,31.7-29.8ZM700.9,1872.2s0,0,.1,0l.9-5.9c-4.4,2.2-8.7,4-12.7,5.4,3.5,1,8.1.6,11.7.5ZM657.6,1945.9h40.8l-3.7-25.3c-12.8,7.5-25.4,16.4-37.1,25.3ZM637.9,1927.5c3.7-9.2,10.7-17,19.3-21.8-21.6,7.7-40.4,22.2-55,39.8-.1.2-.3.3-.4.5h29.6c15-15.8,32.9-28.9,52.6-38.3-16.9,1.1-32.1,10.3-46.1,19.8ZM686.9,1815.7c.7-.6,1.5-1.2,2.2-1.8-.8.4-1.6,1-2.2,1.8ZM686.9,1815.7c-7.4,5.9-15.1,11.4-23.2,16.4,2.2-2.4,4.3-4.8,6.5-7.2-5.7,3.1-11.4,6.3-17.1,9.4,1-1.9,1.9-3.7,2.9-5.6-7,3.5-13.3,8.5-18.2,14.6,1.6-3.4,3.2-6.8,4.7-10.2-5.8,3.2-11,7.6-15.2,12.7.9-4,1.9-7.9,2.8-11.9-10.1,12.4-19.4,25.4-28,38.9-.2-3,.1-6,.9-8.9-3.2,3.9-6.2,8-8.9,12.3,3-6,5.5-12.2,7.6-18.6-14.5,16.7-28.5,33.9-41.9,51.4.4-3.7.8-7.5,1.2-11.2-3.1,4.7-6.3,9.5-9.4,14.2.5-3,1-6.1,1.5-9.1-3.8,5.9-7.6,11.7-11.4,17.6.1-3.3.3-6.6.4-9.9-6.9,9.7-8.3,23.3-5,35.2h5.3c-.4-7.1.7-14.3,3.6-20.9,0,3.6.5,7.3,1.2,10.8,2-6.7,5.3-13,9.5-18.6-.5,5.7-.5,11.5,0,17.2,7-15.5,17.7-29.3,30.9-39.9-3,4.2-4.9,9.2-5.5,14.4,6.2-9,13.8-17.1,22.4-23.9-3,6.5-6.5,12.8-10.6,18.8,13.3-12.8,24.5-27.9,32.9-44.3-.8,4.4-1.6,8.8-2.4,13.1,4.4-6.8,10.3-12.7,17.1-17.1-2.4,3.5-3.9,7.6-4.1,11.8,12.3-15.4,30.2-25.1,47.6-34.4-2,2.6-4,5.1-6,7.7,7.8-6.4,15.6-12.9,23.4-19.3-1.9,2.8-3.7,5.6-5.6,8.4,3.8-2.4,7.7-4.8,11.5-7.2l2.5-17.3c-2,1.5-3.9,3.1-5.9,4.6,2-4.1,4.3-8,6.9-11.7v-.7c-8.1,8-17.1,15.3-26.7,21.6.3-1.2.9-2.4,1.7-3.4ZM587.3,1670.8c1-1.6,1.9-3.3,2.9-4.9-1.6,7-2,24.1,1.9,30.1-1-4.4.6-18,2.2-22.2,2.6-6.7,6.7-12.7,11.9-17.6l-7.1-8-4.5-5.1c-1.3,1.6-2.4,3.3-3.5,5.1-2.4,3.8-4.3,8-5.6,12.5,1.6-1.6,3.2-2.5,4.8-4.1-1.8,4.5-2.8,9.3-2.9,14.1ZM614,1761.7c9.7-9.9,20-20.2,27.5-28.5,7.5-8.3,18.4-14.3,27.8-20.3-2.5,2.7-4,6.4-4.1,10.1,2.9-3.5,6.1-6.9,9.5-9.9l-7.5-4.5-8.6-5.5c-1,1.4-2,2.8-3.1,4.2.5-1.7,1.1-3.4,1.6-5.1h-.1c0,0-1.4-1.1-1.4-1.1-10.7,9.9-17,19.1-28.3,35.3-5.7,8.2-8.2,13.4-13.4,25.3ZM449.5,1945.9h5.8c1.4-2.7,2.5-5.6,3.3-8.7-2.8,3.1-5.9,5.9-9,8.7ZM507.2,1684.9c1.1-2.5,1.8-5.3,1.9-8-7,8.1-13.1,16.9-18.1,26.3.4-4.7,1.4-9.3,2.9-13.8-10,14.7-17,31.4-20.5,48.8-.7-2.9-1.4-5.9-2.2-8.8-1.8,9-4.8,17.8-8.9,26,.8-3.7.6-7.6-.5-11.3-1.5,7-3.9,13.8-7.3,20.1-3,5.6-6.6,10.8-10.9,15.5-1.3,1.5-7.8,7.3-7.8,7.3,0,0,9.2-2.1,14.5-5.2,5.5-3.2,11.2-6.2,15.9-10.5,3.8-3.5,10.1-9.3,11.5-14.4-1,3.7-2,7.4-3,11.1,7.6-11.9,20.5-20.3,26.1-33.2-2.4,1.5-4.7,3.1-7.1,4.6,6.4-6.4,12.2-13.3,17.3-20.8-2,.8-3.9,2-5.5,3.5,3.8-6,7.6-11.9,11.4-17.9-3.1,2.5-6.1,5-9.2,7.5,9.5-10.8,20-20.6,31.5-29.2-3.8,5.4-7.7,10.9-11.5,16.3,12.2-12.1,29.7-19.7,36.6-35.4-2.7,2.3-5.7,4.2-8.9,5.7,4.9-6.6,9.9-13.5,13.7-20.8,3.8-7.3,6.5-15,6.6-23.3-4.9,8.4-10.8,16.2-17.5,23.3-7.8,8.1-16.8,15.2-26.6,20.8.8-2.6,1-5.4.7-8.1-8,8.3-16.4,16.3-25.2,23.9ZM716.5,1766.7l1.2-8.1c-2.1,3.8-3.7,7.9-4.8,12.1,1.1-1.4,2.3-2.7,3.6-4ZM708.7,1731.3c-3.6,1.9-7.3,4.1-11,6.6l15.4-1.8c-28,16.1-62.4,19.1-89.2,37.2,5-1.7,9.4-2.6,15.7-2.3,0,0-38.8,10.7-48.1,20.3,1.9-.4,4.6-.4,7.3.1-25.6,14.5-32.3,17.4-51.6,44.5,4.2-2.8,10.9-8.3,16.5-11.2-9.1,28.5-32.4,50.7-35.3,55.8,22.5-13.6,47.8-44,54.8-57.7-1.9,6-2.9,7.1-5,15.9,11.3-17.2,27.2-31.3,45.5-40.5l-8.9,13c13.9-9,28-17.8,42.2-26.3-2.3,5.7-5.9,10.8-10.4,14.9l32.9-20.9c-1.7,5.3-5,10-9.4,13.4,16.7-11.1,32.7-23.1,47.9-36.1l2.7-18.6-8.9-4.6-3.2-1.7ZM505.9,1804.5c14.8-16,23.7-40.6,29.1-53.8-2.6,2.4-5.3,4.8-7.9,7.2,4.3-9.9,10.4-19.1,17.9-27-3.4,1.9-6.8,3.8-10.1,5.6,10.6-12.2,25.5-19.8,40-27.1-2,2.8-4,5.7-6,8.5,11.3-7.7,22.5-15.5,33.8-23.2-2.6,4.6-5.1,9.1-7.6,13.7,9.5-9.5,18.5-13.6,28-23.1-.9,6.6-2.5,10-5.9,18.8,5.1-3.4,14.6-10.5,20.2-17.3l2.3,2c-1.3,5.1-3.8,12.1-9.9,22.3-7.3,12.3-17.4,22.3-25.8,33.7-1,1.4-4.4,5-4.4,6.7,0-2.9.6-5.8,1.9-8.4-5,4.3-9.9,8.7-14.9,13,0-1.7,0-3.4-.1-5-5.1,6.1-11.1,11.4-17.8,15.8.6-1.4,1.1-2.9,1.7-4.3-10.6,8.5-20.5,13-33.5,16.9,4.1-3.1,5.1-4.9,7.8-9.3-16.3,4.8-23.4,28.2-38.6,34.3ZM542,1764c8.2-7.8,17.3-14.6,27.1-20.3-1.5,2.2-2.5,4.7-2.9,7.4,5.3-3.9,10.3-8.2,14.9-12.9-.5,2.9-1.6,5.8-3.4,8.2,7.8-5,14.6-11.4,20-18.9-1.1,3.1-2.2,6.3-3.3,9.4,7.8-5,14.1-12.2,18.1-20.5-2.4,2.1-5.2,3.4-7.6,5.5.1-4.6,1.9-9.2,4.8-12.7-9.5,6.2-18.5,13.2-26.7,21,.9-2.5,1.7-5,2.6-7.5-5.2,5.6-15,10.1-21.5,14.2,1.2-2.9,2.4-5.8,3.6-8.7-11.8,9.1-20.8,21.8-25.6,36ZM443.6,1917.2c19.5-12.7,29.1-23.5,34.2-35.3-4.7,5.2-6.3,6.4-10.8,8.2,9.9-9.4,17.8-29.7,27.3-42.7-3,2.6-6,5.1-8.9,7.7,6-12.1,11.5-24.4,16.4-36.9-4.3,3-8.7,6.1-13,9.1.7-.5,1.2-2.6,1.6-3.3.6-1.2,1.3-2.4,2-3.5,1.3-2.2,2.8-4.3,4.4-6.3.6-.7,1.1-1.4,1.7-2.2,2.1-2.8,4.5-5.7,7.4-7.3-6.8,2.1-16.3,8.2-22.1,12.4,2.1-3.8,4.3-7.7,6.4-11.5-10.4,2.4-20.2,7.2-28.4,14,1.1-4.1,2.3-8.1,3.4-12.2-10.8,10.8-21.5,21.7-32.3,32.5,1.8-3.3,3.2-6.9,4.2-10.5-3.1,2.7-6,5.5-8.8,8.4-4.1,4.2-8,8.6-11.6,13.2.8-3.9,1.7-7.7,2.5-11.6-15.9,14.2-31.9,39.1-37.8,64.7,6.6-13.2,19.5-33.4,29.1-41.5-1.2,4.3-2.8,10.1-3.7,15.7,4.4-8.4,12.9-24.3,21.1-29.1-2.1,4.6-4.1,11.7-5.3,19,1.9-3.3,3.8-6.3,5.8-9.2,7.6-11,16.2-19.3,25.5-25.5-1.8,3.6-3.5,9.7-3.2,13.4,5.7-8.8,14.9-16.5,21.4-19.3-8.2,27.4-21.7,51.5-41.5,72.2,4.2-2.1,5.9-3.3,9.3-5.6-3.1,5.3-7,10.1-11.4,14.4-5.4,5.1-11.7,9.3-18.6,12.2,2.2-4.7,4.7-9.1,7.6-13.4-7.6,6.4-16.4,11.3-25.8,14.5,3.3-5.4,6.6-10.8,10-16.3-17.6,11.2-33.7,15.5-50.8,19.5,9.5-.7,19.1-1.3,28.6-2-2.4,3.6-4.8,7.2-7.2,10.8,5.1-2.5,10.5-4.2,16.1-5-.9,4.5-3,8.7-6.1,12.1,8-5.7,20.2-8.8,29.7-11.5-1.1,4.7-4.5,8.4-9.3,12.3,9.7-5.1,18.2-9.7,25.8-14.9,7.6-5.2,14.3-11,20.4-18.8-1.7,2.6-2.7,7.2-5,9.2ZM505.8,1897.9c2.4-6.4,4.4-8.4,8.4-12.7-10.6,7.5-13.5,11.2-23.8,26.2.3-4.5.8-7,1.1-11.6-4.4,6.6-8.1,11.6-12.5,18.2,1.6-3.7,1.9-6.3,1.1-10.1-1.7,5.6-4.6,9.3-6.1,12.3-1.3,2.6-9.4,16.6-9.4,16.6,0,0,19.2-18,20.6-20.3-1.6,6.1-1,11.9.2,16.8,2.2-9.5,10.9-22,16.8-30-2.3,5.7-3.4,13.6-3.3,19.8,5-16.2,16.6-30.9,24.6-34.6-6.4,1.7-13.9,4-17.9,9.3ZM428.2,1567.6c4.2-1.9,8.4-4.1,12.5-6.6-3.3,4.1-6.7,8.2-10,12.3,8.8-5.5,17.6-11,26.5-16.5-2.9,4.4-5.8,8.7-8.7,13.1,9.3-5.9,18.9-11.2,28.8-16-3.7,4.7-7.5,9.5-11.2,14.2,10.7-6.3,22.1-12.5,33-19.2l-8.2-5-6.5-3.3c-.6.2-1.1.4-1.7.6.4-.3.7-.6,1.1-.9l-3.4-1.8-11-4.6-8.7-2.9-7.4-1.9c-7.7,8.3-16.1,15.9-25.1,22.8-15,11.6-31.7,21.2-49.3,28.3,17.3-1.6,33.8-5.7,49.3-12.8ZM397.7,1528.7l-9.2,2.4c-9.6,7.5-22.6,14.6-29.3,17.8,15.3-4.4,29.8-11.6,42.7-21l-4.3.8ZM275.8,1633c-2.4,5.6-4.7,10.4-7.8,15.2-1.8,2.8-3.9,5.7-6.4,8.6,4.3-2.8,8.5-5.7,12.7-8.6,5.6-4,11.2-8.1,16.6-12.4-1,2.8-3.2,7.6-5.5,12.4-2.5,5.2-5.2,10.4-7,13,5.5-3.7,11.1-8.2,16.5-13,6.5-5.8,12.6-12.1,17.8-18.1-1.1,3.9-1.2,5.8-3.2,10.5,4.1-3.8,15.3-14.9,19.3-18.7-1.5,6.6-9.4,19-13.2,26.4-.4.8-.8,1.6-1.1,2.3.9-.8,1.7-1.6,2.6-2.3,4.4-4,8.3-7.9,12.9-11.9-1,4.1-1.8,8.1-3.1,11.9-.4,1-.7,2-1.2,2.9,2-1,3.5-1.9,4.9-2.9,2-1.5,3.9-3.1,6.6-5.1-.3,1.7-.7,3.4-1.1,5.1-3.6,16.1-9.6,32.1-19.4,45.2,14-13.3,26.1-28.6,35.9-45.2,4.9-8.3,9.1-17,12.8-26-5.7,5-11.7,9.5-17.9,13.7,4-7.4,8-14.7,12-22.1-5.8,5.1-11.7,10.2-17.5,15.3,3.4-5.3,6.9-10.7,10.3-16-5.9,4.9-11.8,9.8-17.7,14.8,8.5-12.5,15.2-26.2,19.8-40.6-6,5.5-12.1,10.9-18.1,16.4,5.6-9,9.9-18.9,12.6-29.2-8.4,12-19,22.4-31.1,30.5,2.6-3.9,4.3-8.5,4.7-13.3-6.5,6.6-13.4,12.9-20.6,18.7,2.1-5.8,4.1-11.6,6.2-17.3-10.8,6.5-19.9,15.9-25.9,26.9.2-3.2.4-6.4.6-9.6l-26.7,30.7-2.9,3.3c-.2,1.3-.5,2.6-.9,3.8-.5,1.4-1.1,2.8-1.9,4.1,1.3-1.2,2.9-2.6,4.6-4.1,6.4-5.6,15-12.2,21-15.2ZM197.2,1835.9c-3.6,1.3-5.7,1.3-9.6,1.5,14.5-8.5,28.9-17,43.4-25.4-3.6.6-7,1.6-10.3,3.1,17.5-15.5,39.5-24.7,61.1-33.6-4.5-.3-9.1.5-13.3,2.4,10.2-8.6,23.3-13.1,36.3-16.2,13-3,26.4-4.8,39.2-8.8-3-1.1-6.3-1.6-9.6-1.2,16.5-2.5,32.6-7.6,47.5-15.1-3.5.3-7,.6-10.4.8,15.6-2.8,29.7-12.1,39.1-24.8-7.1,6.7-15.8,11.7-25.1,14.4-2.4.7-18.5,3.9-18.5,3.9l5.4-5.6s-17.5,8.4-24.1,11.6c1.5-1.5,2.9-3,4.4-4.5-12.1,4.8-27.3,9.6-39.7,13.4,4.3-3.1,8-5.5,9.6-8-8.4,2.7-16.8,5.3-25.2,8,2.6-1.9,5.2-3.8,7.8-5.8-21.1,5.4-41.4,13.7-60.3,24.5,1.5-3,3.6-5.8,6.1-8.1-6.5,3.1-12.5,7.1-17.9,11.8,2.1-3.7,4.1-7.3,6.2-11-12.6,11.8-25.2,23.5-37.9,35.3,1.3-4.4,4-8.3,7.7-11-18.2,11-34.1,25.6-46.5,42.8.9-2.8,1.8-5.6,2.7-8.5-7.5,6.2-13.9,13.9-18.5,22.4.8-3.5,1.5-7,2.3-10.4-1.8,2.2-3.8,4.4-5.9,6.5l3.5,24c10.4-3.5,20.4-7.6,29.9-13.3,7.4-4.4,14.3-9.4,20.8-15ZM212,1910.9c8.2-5.9,16.4-11.8,24.6-17.7-8.7,3.7-17.5,7.4-26.2,11.1,20-13.9,41.3-26.1,63.4-36.2-5.5-1.6-11.7-.9-16.7,2,17.4-17.3,42.6-24.8,61.3-40.6,18.4-15.6,26.7-31.3,31.7-51-19.5,31.4-42.3,47.7-86.9,68.4,2.3-5.6,4.5-11.3,6.8-16.9-14.9,13-27.3,28.5-43.1,40.5,1.7-4,3.5-8,5.2-12-17.5,12.5-33.5,26.6-51,39.1,4.9-5.7,9.1-12,12.4-18.7-9.8,8.1-24.9,17.8-40.9,26.6l1.8,12.3-4.1,28.1h14.2c3.8-2.4,7.4-4.8,11-7.5-4.5.5-9,1-13.5,1.4,18.3-6.3,34.3-17.7,50-29ZM351.1,1945.9h6.8c2.2-3.3,3.8-7,4.5-10.9-3.3,4.2-7.1,7.7-11.3,10.9ZM135.5,1789l.6,3.8c1.6-2.9,3.2-5.8,4.8-8.6-1.8,1.6-3.6,3.2-5.4,4.8ZM136.6,1796l1.7,11.4c15.3-15.2,28.9-32,40.6-50-11.6,14.1-26.5,28.9-42.3,38.6ZM308.7,1913.9l7.6-5.1-11.3,1.6s35.2-18.3,47.9-30.6c6.2-6,11.4-16.9,11.7-19.2-8.9,12.3-24.6,24-41.1,28.9,1.4-1.6,4.3-3.4,5.7-5-4.3,1.6-8.5,3.1-12.8,4.6,2.6-1.7,5-3.7,7.2-5.8-10.4,4.6-20.9,8.8-31.7,12.5,1.2-1,2.4-2.1,3.6-3.1-7.1,1.1-14.2,2.6-21.2,5.4.5-.8,8.9-6,9.4-6.8-36.2,7.6-53.2,23.6-70.7,38.7,2.9-1,5.7-2,8.6-3-8.3,5.5-16,11.9-23,19h26.1c5.4-3.7,10.3-6.8,11-6.9-5.2.1-9.9,1.8-14.4,4.2,4.4-4.7,9.1-9.1,14.1-13-2,.9-3.9,1.8-5.9,2.7,10.9-10.4,23.4-18.9,37-25-3.1,1.5-5.8,3.9-7.8,6.9,5.3-2.3,10.7-4.3,16.2-5.8-1.4,1.8-3.1,3.4-5,4.7,13.7-5.3,27.7-9.8,41.9-13.4-10.9,5.4-21.6,11.3-32,17.7,3.5-1.1,7.1-2.1,10.6-3.2-3.7,1.7-7.1,4-10.1,6.7,3.9-.6,7.7-1.7,11.3-3.2-5.4,4.1-11,7.9-16.9,11.3,3-.3,6-1,8.9-2.1-9.5,6-19.9,10.4-30.8,12.9,2.6,0,5.2-.1,7.8-.2-6.9,2-13,4.2-19.6,5.7h37.2c.8-.6,1.6-1.2,2.5-1.9-2.3.6-4.7,1.2-7,1.8,8.7-2.3,16.9-6.6,23.7-12.4-1.9.3-3.8.6-5.7.9,4.6-2.7,8.9-5.7,13-9.1-1.7,0-3.3,0-5,0,7.1-3.3,13.7-7.3,20-12.5-4.1,1.3-10.9,1.1-10.9,1.1ZM188.4,1734l-17.4-.2c9-6.3,15.4-6.7,21.3-9.2-9.4-.9-30.4,4.4-33.1,4.6,40.9-14.1,50.9-29.3,54.5-35.8-10.3,9.3-22.4,13.8-35.8,17.3l-5.7,3.4-9.5,5.3-25.9,13.5-8.9,4.6,3.1,21.1c2.6-1.8,5.4-3.5,8.3-4.9l-4.1,9.8c15.9-12.7,34-22.7,53.1-29.6ZM413.7,1799.1c-9.7,1.5-21,4-27.7,11.3,4.5-9.1,7.7-11.8,14.2-17.6-16.6,9.6-21.5,14.6-38.8,35.3,1.1-6.6,2.2-10.3,3.3-16.9-7.4,9.2-13.6,16-21,25.2,2.8-5.2,3.7-9,3.1-14.7.2,1.5-2.3,4.8-3.1,6.1-1.1,1.8-2.2,3.5-3.4,5.3-8.7,12.9-22.4,22.4-34.4,32.1,5.1-1.8,10-4.1,14.9-6.6,4.6-2.4,9.1-5,13.4-7.9,2.3-1.6,4.6-3.2,6.7-5,.4-.4,4.8-4.6,4.8-4.6,0,0-3,6.3-3.3,6.9-.7,1.6-1.6,3.1-2.5,4.5,2.2-1.7,4.3-3.6,6.2-5.6-1,3.8-2.5,7.5-4.4,10.9,3.4-3.2,6.8-6.4,10.1-9.6-1,.9-1.6,3.8-2.2,5-.9,1.9-1.9,3.7-3,5.5-1.9,3.2-4,6.2-6,9.3,19.1-15.7,29.7-39,39.5-50.1-4.2,8.1-6.9,19.7-7.6,28.8,9.7-23.2,28.8-43.3,41.1-47.6ZM428.2,1757.6c6.3-7.6,10.9-16.1,12.4-24.4-3.7,5.5-7.8,10.6-12.4,15.2-7.9,7.8-17.2,14.2-28.6,18.5,1.2-4.2,2.3-5.3,4.5-7.8-8.7,4.5-16.5,9.1-22.1,17.2,1.1-4.4,2.7-6.5,4.3-10.7-10.6,8.9-18.8,20.7-23.2,33.9,5.1-7.1,9.5-13.2,17.3-17.1-1.2,2.4-2.4,8.4-2.9,13.8,6.3-9.9,12.5-17.1,19.1-21.7-.6,2.7-2.1,5.3-4.2,7.2,12.8-3.2,26.3-12.5,35.8-24ZM222.6,1748.2c-1.3,3.5-3.2,6.7-5.6,9.4,5.3-4.1,10.6-8.2,15.9-12.4-1.5,4-3.6,7.8-6.3,11.2,11.4-11.2,22.7-22.3,34.1-33.5-2.6,4.6-5.2,9.3-7.8,13.9,4-3.7,10.6-6.8,15.3-9.6-2.1,7.1-7.3,14.6-14.4,18,28.5-6.8,77-24.6,97.3-39.4-3.7,3.9-7.3,7.9-11,11.8,6.4-3.5,18.2-8.9,25.2-11-6.7,6.7-24.4,17.2-36.3,22.6,34.6-6.2,66.3-27.3,85.3-57-10,4.3-12.2,4.6-12.2,4.6,0,0,13.9-11.8,26.1-26.8.5-.6.9-1.1,1.4-1.7,5.7-7.2,11-15.1,14-22.7-5.8,7-10.6,12.7-15.3,17.7-1.6,1.7-3.3,3.3-4.9,4.9-6.7,6.3-14.2,11.8-25.2,18,6.1-7.9,6.9-12.1,6.3-15.9-4,10.7-17.3,13.5-36.3,25.7,1.8-3.4,2.8-11.7,4.6-15.1-25.6,23.5-59.1,48-88.8,56.6,10.3-10.2,20.1-26.9,22.1-37.8-6.8,7.4-15.9,14.2-23.9,20.4,3-5.6,5.7-11.3,8.1-17.2-11.2,7.9-21.5,17.1-30.7,27.3,1.2-6.7,3.6-13.1,7.1-19-16,10.6-22.8,23.2-38.1,42.3,1.1-4.4,1.7-8.9,1.8-13.4-4.1,7-8.5,13.8-13.2,20.4,1.5-3.9,2-8.2,1.6-12.3-5,13.7-23.5,38.2-35.1,50.3,8.5-5.9,31.3-23.4,39-30.3ZM1044.1,1616.9c1.7-2.3,2.8-5,3.2-7.9-6.3,4.8-12,10.4-17,16.6,1.1-2.9,2.1-5.7,3.2-8.6-8.8,7.1-17.6,14.8-23.6,24.4-2.4,3.8-4.3,8-5.6,12.5,1.6-1.6,3.2-2.5,4.8-4.1-1.8,4.5-2.8,9.3-2.9,14.1,1-1.6,1.9-3.3,2.9-4.9-1.6,7-2,24.1,1.9,30.1-1-4.4.6-18,2.2-22.2,4-10.5,11.9-19.4,21.8-24.7.6-.3,1.1-.6,1.7-.9,3.1-1.5,6.3-2.7,9.5-3.9,2.1-.8,4.3-1.6,6.4-2.4-1.7,0-3.5-.2-5.2-.2,6.8-2.7,13.5-5.4,20.3-8.1-1.3-.4-2.3-1.1-3.7-1,7.2-5.3,13.6-11.6,19-18.7,3.8-5.1,7.2-10.7,12.1-14.7-1.5,2.4-2.4,5.5-2.2,8.3,7.2-9.2,17-16.1,27.4-21.4,10.4-5.3,21.5-9,32.6-12.7-3.2-1.1-6.6-1.6-9.9-1.3,12.1-2.3,23.7-7,34-13.6l-.9-.5c-1.4.3-2.9.7-4.3,1,1-.6,2.1-1.1,3.1-1.8l-3-1.8-10.5-5.4-10.5-4.4c-1.8,1.6-3.6,3.2-5.5,4.7,1.3-1.7,2.4-3.5,3.4-5.4h-.3c-7,4.2-13.8,8.8-20.4,13.7,1.7-2,3.1-4.3,4-6.8-10.8,5-21.6,11.5-31,18.9,1.5-3.3,3.8-6.2,6.7-8.4-18.7,9.9-34.1,26-43.2,45.2.8-3.3,1.6-6.6,2.4-9.9-6.4,9.7-14.2,18.5-23.1,26ZM1105.6,1529.1l-2.1.3-6.1.9c-4.7,6.7-9.6,13-13.9,17.8,7.8-6,15.7-12.1,22.7-18.9h-.6ZM992.5,1608.5c-1.8-.1-4-.3-5.4.8,4.2-3.8,9.1-7.9,13.2-9.4-1.9-.5-4.9.2-6.9,1.6,10.6-8.6,23.1-9.7,35.9-21.4-1,2.6-2.1,4-4.1,5.7,10.2-4.6,16.6-10.2,23.4-19-3.6,2.8-6.1,4.1-8.9,5.6,8.2-9.2,15.7-20.5,21.1-31.6-5.3,7.6-11.5,14.4-18.3,20.8-5.2,4.9-10.6,10.4-16.8,14,.9-1.7,2.4-5,3.9-6.2-10.1,7.8-20.7,15-31.8,21.4,1.2-1.2,3.1-5,4.4-6.2-14.2,9.7-29.5,22.4-37.9,37.4,2.1-1.6,4.2-3.3,6.3-4.9-5.5,6.3-9.7,14.2-12.1,22.3,8.3-13,20.2-24.1,34-31ZM1212.6,1578.9c-1.6,7.9-3.9,15.3-6.3,19.7,2.4-2.6,5.4-3.9,7.1-6.9-1.6,6.4-4.6,11-7.4,17,3.9-3.9,7.9-7.9,11.8-11.8-3.4,15.3-11.3,29.5-22.3,40.6,4-1.1,8.7-1.7,12.7-.9-3.5,1.2-6.8,2.9-9.7,5-3.5,2.5-6.6,5.7-9,9.2,3.6-1.1,7-2.8,10-5-3.9,9.7-10.4,18.9-19.3,24.3-8.9,5.4-20.4,9.6-30.3,10.3,4.6-1.5,9-4,12.6-7.3-6.6,1.4-12.9,3.7-18.9,6.8.7-1.3,3.9-5.7,4.6-7-8.6,3.8-17.6,8-24.3,14.6,2.5-2,6.9-2.2,9.3-2.3-8.7,3.3-17.8,9-25.9,18.5,1.5-4.1,3.6-7.9,6.4-11.3-11.3,5.9-21.4,14.1-29.6,24,0-3.7,1.6-7.4,4.1-10.1-9.5,6-20.4,12-27.8,20.3-7.5,8.3-17.9,18.6-27.5,28.5,5.2-11.9,7.7-17.1,13.4-25.3,12.2-17.5,18.6-26.8,31-37.7-.9,2.9-1.8,5.7-2.7,8.6,7.3-9.3,13.6-21.1,20.1-31-.3,3.2-.7,7.7-1.9,11.1,5.5-12.9,11.7-28.7,17.7-39.2,2.4-4.2,4.8-7.4,7.2-9.4-.7,3.1-1,6.2-1,9.4,0,1.2,0,2.3.2,3.5.5-1.2,1.1-2.3,1.7-3.5,3.6-7.2,7.8-14.2,12.5-20.7-.5,2.8-1,5.7-1.5,8.5,7.4-17.3,24.2-28.4,40.1-38.5-.9,2.2-1.8,4.3-2.7,6.5,11.4-7,23.9-17.7,33.6-29l.6.4,8.9,7.7,2.6,2.4ZM1187.6,1618.7c8.4-11.1,13.8-24.6,15.3-38.4-4.7,10.7-11.5,20.6-19.8,28.8,3-5.4,5.3-11.2,6.9-17.1-6.7,9.4-14.7,18-23.7,25.2.7-2.3,1.5-4.6,2.2-6.8-4.3,2.8-8.6,7.6-11.1,15.1,1-4.1-.3-6.4,2.6-11.2-6.9,3.3-12.3,9.1-16.2,15.6-2.2,3.7-4.1,7.7-5.7,11.7-1.2,3-2.3,6.1-3.4,9.2,0-3.1,0-6.1-.2-9.2,0-.5,0-1.1-.1-1.6-.2.5-.5,1.1-.7,1.6-1.9,4.7-4.1,9.4-6.3,13.9,1.2-2.7,1.3-5.8.4-8.6-3.7,10.6-17.4,29.4-24.9,37.8,11.8-5.4,25.6-17.1,32.2-25.4-.7,4.4-1.6,6.8-3.8,10.7,5.1-3.6,7.1-5.6,11.9-9.7-1.8,4.1-1.3,6.4-3.1,10.5,4.9-5.6,13.7-11.7,20.3-15.2,6.2-3.3,12.5-7.7,15.3-14,.2-.4.3-.8.5-1.2-1.1.4-2.2.8-3.4,1.2-1.9.7-3.7,1.4-5.6,2,1.2-.6,2.3-1.3,3.4-2,12-7.5,21.8-18.4,28-31.2-3.4,3.1-7.2,5.9-11.2,8.3ZM1255.2,1624.3c-5.6,5.3-10.7,11-15.2,17.3-7.8,10.8-13.9,22.8-17.8,35.6,5.8-12.2,15.4-22,25.5-30.9-1.3,4.3-2.7,8.7-4,13,4.9-6.7,10.7-12.6,17.2-17.7,1.8-1.4,3.8-2.8,5.7-4.1l-7.5-8.6c-.8.9-1.6,1.8-2.4,2.8.6-1.2,1.1-2.5,1.6-3.8l-3.1-3.6ZM1265.8,1641.5c-.5,1.4-1.1,2.8-1.9,4.1,1.3-1.2,2.9-2.6,4.6-4.1.3-.3.6-.5.9-.8l-2.7-3.1c-.2,1.3-.5,2.6-.9,3.9ZM1326.6,1745c4.3-3.1,8-5.5,9.6-8-8.4,2.7-16.8,5.3-25.2,8,2.6-1.9,5.2-3.8,7.8-5.8-21.1,5.4-41.4,13.7-60.3,24.5,1.5-3,3.6-5.8,6.1-8.1-6.4,3.1-12.5,7.1-17.9,11.8,2.1-3.7,4.1-7.3,6.2-11-12.6,11.8-25.2,23.5-37.9,35.3,1.3-4.4,4-8.3,7.7-11-18.2,11-34.1,25.6-46.5,42.8.9-2.8,1.8-5.6,2.7-8.5-7.5,6.2-13.9,13.9-18.5,22.4.8-3.5,1.5-7,2.3-10.4-14,17.2-36.6,31.8-54.6,38,3.5,1,8.1.6,11.7.5,4,0,8-.4,12-1,7.6-1,15.2-2.8,22.4-5,12.6-3.8,24.8-8.5,36.1-15.2,7.4-4.4,14.3-9.4,20.8-15-3.6,1.3-5.7,1.3-9.6,1.5,14.5-8.5,28.9-17,43.4-25.4-3.6.6-7,1.6-10.3,3.1,17.5-15.5,39.5-24.7,61.1-33.6-4.5-.3-9.2.5-13.3,2.4,10.2-8.6,23.3-13.1,36.3-16.2,13-3,26.4-4.8,39.2-8.8-3-1.1-6.3-1.6-9.6-1.2,15.3-2.3,30.3-6.9,44.3-13.5l-2.2-1.1c-1.7.1-3.4.3-5,.4,1.4-.2,2.7-.6,4.1-.9l-12.8-6.7c-5.2,2.5-11.3,5.4-14.6,7,1.5-1.5,2.9-3,4.4-4.5-12.1,4.8-27.3,9.7-39.7,13.4ZM1056.7,1920.7c3.7-9.2,10.7-17,19.3-21.8-21.6,7.7-40.4,22.2-55,39.8-3.2,3.9-6.3,7.9-9.1,12.1h28.2c16.8-21,38.4-38.3,62.7-49.9-16.9,1.1-32.1,10.3-46.1,19.8ZM1225.7,1904.2c8.2-5.9,16.4-11.8,24.6-17.7-8.7,3.7-17.5,7.4-26.2,11.1,20-13.9,41.3-26.1,63.4-36.2-5.5-1.6-11.7-.9-16.7,2,17.4-17.3,42.6-24.8,61.3-40.6,18.4-15.6,26.7-31.3,31.7-51-19.5,31.4-42.3,47.7-86.9,68.4,2.3-5.6,4.5-11.3,6.8-16.9-14.9,13-27.3,28.5-43.1,40.5,1.7-4,3.5-8,5.2-12-17.5,12.5-33.5,26.6-51,39.1,4.9-5.7,9.1-12,12.4-18.7-15.7,13-45.2,30.2-69.7,41.1,1.3-3.1,16.8-16.4,19.3-18.6-30.8,7.9-67.2,33.2-94.9,56h94.8c11.4-5.2,22.3-11.6,32.4-19-4.5.5-9,1-13.5,1.4,18.3-6.3,34.3-17.7,50-29ZM1327.7,1950.8c.3-.6.6-1.1.9-1.7-.6.6-1.1,1.1-1.7,1.7h.8ZM1340,1950.8c.7-1,1.4-2,2-3.1-2.1,1-4.1,2-6.1,3.1h4.1ZM1345.2,1950.8h15.6c2.4-1.9,4.7-4,6.7-6.2,4.2-4.6,7.6-10.1,8.7-16.2-7.9,10.2-19.3,16.8-31,22.5ZM1105.8,1809c.7-.6,1.4-1.2,2.2-1.8-.8.4-1.6,1-2.2,1.8ZM1023.4,1878.4c-3,6.5-6.5,12.8-10.6,18.8,13.3-12.8,24.5-27.9,32.9-44.3-.8,4.4-1.6,8.8-2.4,13.1,4.4-6.8,10.3-12.7,17.1-17.1-2.4,3.5-3.9,7.6-4.1,11.8,12.3-15.4,30.2-25.1,47.6-34.4-2,2.6-4,5.1-6,7.7,7.8-6.4,15.6-12.9,23.4-19.3-1.9,2.8-3.7,5.6-5.6,8.4,8.3-5.2,16.6-10.5,24.9-15.7-1.2,2.4-2.4,4.8-3.6,7.2,21.4-18.6,40.2-40.1,55.6-63.9-12.4,15.1-28.7,31-45.7,40.6,2.6-4.6,5.1-9.2,7.7-13.8-9.9,9-20.2,17.6-30.8,25.7,2.4-4.9,5.2-9.5,8.5-13.8-8.6,8.6-18.1,16.3-28.2,23,.3-1.2.9-2.4,1.7-3.4-7.4,5.9-15.1,11.4-23.2,16.4,2.2-2.4,4.3-4.8,6.5-7.2-5.7,3.1-11.4,6.3-17.1,9.4,1-1.9,1.9-3.7,2.9-5.6-7,3.5-13.3,8.5-18.2,14.6,1.6-3.4,3.2-6.8,4.7-10.2-5.8,3.2-11,7.6-15.2,12.7.9-4,1.9-7.9,2.8-11.9-10.1,12.4-19.4,25.4-28,38.9-.2-3,.1-6,.9-8.9-3.2,3.9-6.2,8-8.9,12.3,3-6,5.5-12.2,7.6-18.6-14.5,16.7-28.5,33.9-41.9,51.4.4-3.7.8-7.5,1.2-11.2-3.1,4.7-6.3,9.5-9.4,14.2.5-3,1-6.1,1.5-9.1-3.8,5.9-7.6,11.7-11.4,17.6.1-3.3.3-6.6.4-9.9-9.3,13.1-8.7,33.1.2,46.7h2.3c-3.4-10.5-3-22.3,1.4-32.4,0,3.6.5,7.3,1.2,10.8,2-6.7,5.3-13,9.5-18.6-.5,5.7-.5,11.5,0,17.2,7-15.5,17.7-29.3,30.9-39.9-3,4.2-4.9,9.2-5.5,14.4,6.2-9,13.8-17.1,22.4-23.9ZM1337.2,1882.8c1.4-1.6,4.3-3.4,5.7-5-4.3,1.6-8.5,3.1-12.8,4.6,2.6-1.7,5-3.7,7.2-5.8-10.4,4.6-20.9,8.8-31.7,12.5,1.2-1,2.4-2.1,3.6-3.1-7.1,1.1-14.2,2.6-21.2,5.4.5-.8,8.9-6,9.4-6.8-36.2,7.6-53.2,23.6-70.7,38.7,2.9-1,5.7-2,8.6-3-10,6.6-19.1,14.4-27,23.3,3.5-1.2,7.1-2.5,10.6-3.7-4.8,4-9.6,7.3-14.3,11h19.5c3.8-4.9,23.7-18.3,25.3-18.4-5.2.1-9.9,1.8-14.4,4.2,4.4-4.7,9.1-9.1,14.1-13-2,.9-3.9,1.8-5.9,2.7,10.9-10.4,23.4-18.9,37-25-3.1,1.5-5.8,3.9-7.8,6.9,5.3-2.3,10.7-4.3,16.2-5.8-1.4,1.8-3.1,3.4-5,4.7,13.7-5.3,27.7-9.8,41.9-13.4-10.9,5.4-21.6,11.3-32,17.7,3.5-1.1,7.1-2.1,10.6-3.2-3.7,1.7-7.1,4-10.1,6.7,3.9-.6,7.7-1.7,11.3-3.2-5.4,4.1-11,7.9-16.9,11.3,3-.3,6-1,8.9-2.1-9.5,6-19.9,10.4-30.8,12.9,2.6,0,5.2-.1,7.8-.2-7.2,2.1-13.4,4.4-20.3,5.8,2.6,0,5.4.2,7.9,0-5.3,2.2-22.2,3.9-37.2,11.3h48.1c7.6-3.7,14.8-8.2,21.5-13.4-2.3.6-4.7,1.2-7,1.8,8.7-2.3,16.9-6.6,23.7-12.4-1.9.3-3.8.6-5.7.9,4.6-2.7,8.9-5.7,13-9.1-1.7,0-3.3,0-5,0,7.1-3.3,13.7-7.3,20-12.5-4.1,1.3-10.9,1.1-10.9,1.1l7.6-5.1-11.3,1.6s35.2-18.3,47.9-30.6c6.2-6,11.4-16.9,11.7-19.2-8.9,12.3-24.6,24-41.1,28.9ZM852.3,1950.8h13.9c5.1-6,9.2-12.6,11.1-20.2-7.3,7.9-15.8,14.7-25,20.2ZM869.3,1775c5.5-3.2,11.2-6.2,15.9-10.5,3.8-3.5,10.1-9.3,11.5-14.4-1,3.7-2,7.4-3,11.1,7.6-11.9,20.5-20.3,26.1-33.2-2.4,1.5-4.7,3.1-7.1,4.6,6.4-6.4,12.2-13.3,17.3-20.8-2,.8-3.9,2-5.5,3.5,3.8-6,7.6-11.9,11.4-17.9-3.1,2.5-6.1,5-9.2,7.5,9.5-10.8,20-20.6,31.5-29.2-3.8,5.4-7.7,10.9-11.5,16.3,12.2-12.1,29.7-19.7,36.6-35.4-2.7,2.3-5.7,4.2-8.9,5.7,4.9-6.6,9.9-13.5,13.7-20.8,3.8-7.3,6.5-15,6.6-23.3-4.9,8.4-10.8,16.2-17.5,23.3-7.8,8.1-16.8,15.2-26.6,20.8.8-2.6,1-5.4.7-8.1-8,8.3-16.4,16.3-25.2,23.9,1.1-2.5,1.8-5.3,1.9-8-7,8.1-13.1,16.9-18.1,26.3.4-4.7,1.4-9.3,2.9-13.8-10,14.7-17,31.4-20.5,48.8-.7-2.9-1.4-5.9-2.2-8.8-1.8,9-4.8,17.8-8.9,26,.8-3.7.6-7.6-.5-11.3-1.5,7-3.9,13.8-7.3,20.1-3,5.6-6.6,10.8-10.9,15.5-1.3,1.5-7.8,7.3-7.8,7.3,0,0,9.2-2.1,14.5-5.2ZM1275.3,1650.2c.5-.3,1.1-.7,1.6-1l-.4-.4c-.4.5-.8,1-1.2,1.4ZM1002.1,1816.1c-1.9,6-2.9,7.1-5,15.9,11.3-17.2,27.2-31.3,45.5-40.5l-8.9,13c13.9-9,28-17.8,42.2-26.3-2.3,5.7-5.9,10.8-10.4,14.9l32.9-20.9c-1.7,5.3-5,10-9.4,13.4,17.5-11.6,34.3-24.3,50.2-38-3.4,5-5.9,10.6-7.4,16.4,5.8-7.1,13.1-12.9,21.4-16.9l-4.1,9.8c15.9-12.7,34-22.7,53.1-29.6l-17.4-.2c9-6.3,15.4-6.7,21.3-9.2-9.4-.9-30.4,4.4-33.1,4.6,40.9-14.1,50.9-29.3,54.5-35.8-27.4,24.7-67.2,15.5-110.9,44.4l15.4-1.8c-28,16.1-62.4,19.1-89.2,37.2,5-1.7,9.4-2.6,15.7-2.3,0,0-38.8,10.7-48.1,20.3,1.9-.4,4.6-.4,7.3.1-25.6,14.5-32.3,17.4-51.6,44.5,4.2-2.8,10.9-8.3,16.5-11.2-9.1,28.5-32.4,50.7-35.3,55.8,22.5-13.6,47.8-44,54.8-57.7ZM924.8,1797.8c14.8-16,23.7-40.6,29.1-53.8-2.6,2.4-5.3,4.8-7.9,7.2,4.3-9.9,10.4-19.1,17.9-27-3.4,1.9-6.8,3.8-10.1,5.6,10.6-12.2,25.5-19.8,40-27.1-2,2.8-4,5.7-6,8.5,11.3-7.7,22.5-15.5,33.8-23.2-2.6,4.6-5.1,9.1-7.6,13.7,9.5-9.5,18.5-13.6,28-23.1-.9,6.6-2.5,10-5.9,18.8,6.9-4.6,22.1-16.2,24.5-24.4-1.6,5.3-1.1,13.2-11.9,31.4-7.3,12.3-17.4,22.3-25.8,33.7-1,1.4-4.4,5-4.4,6.7,0-2.9.6-5.8,1.9-8.4-5,4.3-9.9,8.7-14.9,13,0-1.7,0-3.4-.1-5-5.1,6.1-11.1,11.4-17.8,15.8.6-1.4,1.1-2.9,1.7-4.3-10.6,8.5-20.5,13-33.5,16.9,4.1-3.1,5.1-4.9,7.8-9.3-16.3,4.8-23.4,28.2-38.6,34.3ZM960.9,1757.3c8.2-7.8,17.3-14.6,27.1-20.3-1.5,2.2-2.5,4.7-2.9,7.4,5.3-3.9,10.3-8.2,14.9-12.9-.5,2.9-1.6,5.8-3.4,8.2,7.8-5,14.6-11.4,20-18.9-1.1,3.1-2.2,6.3-3.3,9.4,7.8-5,14.1-12.2,18.1-20.5-2.4,2.1-5.2,3.4-7.6,5.5.1-4.6,1.9-9.2,4.8-12.7-9.5,6.2-18.5,13.2-26.7,21,.9-2.5,1.7-5,2.6-7.5-5.2,5.6-15,10.1-21.5,14.2,1.2-2.9,2.4-5.8,3.6-8.7-11.8,9.1-20.8,21.8-25.6,36ZM867.5,1901.3c-1.7,2.6-2.7,7.2-5,9.2,19.5-12.7,29.1-23.5,34.2-35.3-4.7,5.2-6.3,6.4-10.8,8.2,9.9-9.4,17.8-29.7,27.3-42.7-3,2.6-6,5.1-8.9,7.7,6-12.1,11.5-24.4,16.4-36.9-4.3,3-8.7,6.1-13,9.1.7-.5,1.2-2.6,1.6-3.3.6-1.2,1.3-2.4,2-3.5,1.3-2.2,2.8-4.3,4.4-6.3.6-.7,1.1-1.4,1.7-2.2,2.1-2.8,4.5-5.7,7.4-7.3-6.8,2.1-16.3,8.2-22.1,12.4,2.1-3.8,4.3-7.7,6.4-11.5-10.4,2.4-20.2,7.2-28.4,14,1.1-4.1,2.3-8.1,3.4-12.2-10.8,10.8-21.5,21.7-32.3,32.5,1.8-3.3,3.2-6.9,4.2-10.5-3.1,2.7-6,5.5-8.8,8.4-4.1,4.2-8,8.6-11.6,13.2.8-3.9,1.7-7.7,2.5-11.6-4.5,4.1-9.1,9-13.4,14.5l1.7,11.5c1-1,2-1.9,3-2.7-.7,2.3-1.4,5.1-2.2,8.1l.5,3.7c4.7-8.7,12-21,19-25.1-2.1,4.6-4.1,11.7-5.3,19,1.9-3.3,3.8-6.3,5.8-9.2,7.6-11,16.2-19.3,25.5-25.5-1.8,3.6-3.5,9.7-3.2,13.4,5.7-8.8,14.9-16.5,21.4-19.3-8.2,27.4-21.7,51.5-41.5,72.2,4.2-2.1,5.9-3.3,9.3-5.6-3.1,5.3-7,10.1-11.4,14.4-3.9,3.7-8.3,6.9-13,9.5l1.7,11.4-.7,4.9c4.3-2.4,8.3-4.9,12.1-7.5,7.6-5.2,14.3-11,20.4-18.8ZM1376.3,1917.4l.3-2.2c-4.1,1.1-8.2,2.1-12.4,3.1,4-.3,8.1-.6,12.1-.8ZM924.7,1891.2c2.4-6.4,4.4-8.4,8.4-12.7-10.6,7.5-13.5,11.2-23.8,26.2.3-4.5.8-7,1.1-11.6-4.4,6.6-8.1,11.6-12.5,18.2,1.6-3.7,1.9-6.3,1.1-10.1-1.7,5.6-4.6,9.3-6.1,12.3-1.3,2.6-9.4,16.6-9.4,16.6,0,0,19.2-18,20.6-20.3-1.6,6.1-1,11.9.2,16.8,2.2-9.5,10.9-22,16.8-30-2.3,5.7-3.4,13.6-3.3,19.8,5-16.2,16.6-30.9,24.6-34.6-6.4,1.7-13.9,4-17.9,9.3ZM1388.4,1835.2l2.5-17c-2.5,7-4.1,15.1-4.7,21.8.7-1.6,1.4-3.2,2.2-4.8ZM1375.1,1821.4c1.1-6.6,2.2-10.3,3.3-16.9-7.4,9.2-13.6,16-21,25.2,2.8-5.2,3.7-9,3.1-14.7.2,1.5-2.3,4.8-3.1,6.1-1.1,1.8-2.2,3.5-3.4,5.3-8.7,12.9-22.4,22.4-34.4,32.1,5.1-1.8,10-4.1,14.9-6.6,4.6-2.4,9.1-5,13.4-7.9,2.3-1.6,4.6-3.2,6.7-5,.4-.4,4.8-4.6,4.8-4.6,0,0-3,6.3-3.3,6.9-.7,1.6-1.6,3.1-2.5,4.5,2.2-1.7,4.3-3.6,6.2-5.6-1,3.8-2.5,7.5-4.4,10.9,3.4-3.2,6.8-6.4,10.1-9.6-1,.9-1.6,3.8-2.2,5-.9,1.9-1.9,3.7-3,5.5-1.9,3.2-4,6.2-6,9.3,17.6-14.4,27.9-35.3,37.1-47.2l2-13.3c-5,4.9-10.4,11.1-18.3,20.6ZM1376.8,1792.8c5.1-7.1,9.5-13.2,17.3-17.1-1.2,2.4-2.4,8.4-2.8,13.8,1.6-2.6,3.3-5,4.9-7.2l2.4-16.3c-1,1.1-1.9,2.3-2.8,3.6,1-3.7,2.3-5.8,3.6-9l.2-1.3c-10.4,8.8-18.3,20.5-22.7,33.4ZM1342.7,1722.4c5-.9,9.9-2.1,14.7-3.6l-3.5-2.1c-3.9,2.2-7.8,4.1-11.2,5.7ZM1242.2,1726.8c1.1-4.4,1.7-8.9,1.8-13.4-4.1,7-8.5,13.8-13.2,20.4,1.5-3.9,2-8.2,1.6-12.3-5,13.7-23.5,38.2-35.1,50.3,8.5-5.9,31.3-23.4,39-30.3-1.3,3.5-3.2,6.7-5.6,9.4,5.3-4.1,10.6-8.2,15.9-12.4-1.5,4-3.6,7.8-6.3,11.2,11.4-11.2,22.7-22.3,34.1-33.5-2.6,4.6-5.2,9.3-7.8,13.9,4-3.7,10.6-6.8,15.3-9.6-2.1,7.1-7.3,14.6-14.4,18,21.2-5,53.3-16.1,76.8-27.6l-6-3.9-8.6-6.2-3.1-2.4c-9.8,5.4-19.6,9.7-29.1,12.4,6.3-6.2,12.3-14.7,16.5-22.9l-.8-.7-4.3-4.1c-4.4,3.6-8.9,7.1-13.1,10.4,2.8-5.1,5.3-10.4,7.5-15.8l-.6-.6c-10.8,7.7-20.7,16.6-29.5,26.5,1.2-6.7,3.6-13.1,7.1-19-16,10.6-22.8,23.2-38.1,42.3ZM832.8,1903.1l.3,2.1c1-1.6,1.9-3.2,3-4.7-1.1.9-2.2,1.8-3.3,2.6ZM817.1,1796l.9,6c5.2-4.7,10.3-8.1,14.5-9.6-5,.8-10.4,1.8-15.4,3.6ZM815.9,1787.9v.9c1-.8,2-1.7,3.1-2.7-1.1.6-2.1,1.2-3.1,1.8ZM847.1,1750.9c6.3-7.6,10.9-16.1,12.4-24.4-3.7,5.5-7.8,10.6-12.4,15.2-7.9,7.8-17.2,14.2-28.6,18.5,1.2-4.2,2.3-5.3,4.5-7.8-4,2.1-7.8,4.2-11.2,6.6l1.5,10.5c.8-.6,1.5-1.2,2.3-1.7-.4,1.6-1,3.1-1.9,4.4l.3,2c12-3.7,24.3-12.6,33.2-23.3ZM1850.3,119.2l-23.9,7.7-12.2,4-10,2.7-8.5,1.6-5.2.6-5.7.2-11-1-4.2-.9-3.1-.9-3.3-1.3-4-1.9-7.6-4.4-18.6-12.4L1604.9,5.7l1.6,32.2.7,14.4.4,15.7-.2,13.5-.8,13.4-.7,6.5-.9,6.7-1.9,10.4-2.4,10.3-2.9,10.2-3.4,10.2-3.8,10-4.2,9.9-6.5,13.4-7.4,13.6-8.5,14-13.2,20.4-6.3,7.8-4.1,4.7-3.3,3.2-3.8,3.2-7.8,4.9-8.7,3.9-9.6,3.1-10.3,2.3-3.7.6-8,1.1-9.3.8-10.8.5-9.4.2h-40.9s-40.9,0-40.9,0l-9.4-.2-10.8-.5-9.3-.8-8-1.1-3.7-.6-10.3-2.3-9.6-3.1-8.7-3.9-7.8-4.9-3.9-3.2-3.2-3.2-4.1-4.7-6.4-7.8-13.2-20.4-8.4-14-7.4-13.6-6.5-13.4-4.2-9.9-3.8-10-3.4-10.1-2.9-10.3-2.4-10.3-1.9-10.4-.9-6.7-.6-6.5-.8-13.4-.2-13.5.4-15.7.7-14.4,1.7-32.2-128.2,107.6-18.6,12.4-7.6,4.4-4,1.9-3.3,1.3-3.1.9-4.2.9-11,1-5.7-.2-5.2-.6-8.6-1.6-10-2.7-12.2-4-23.9-7.7-8.5,14.6,18.6,16.9,6.8,6.1,8.1,8.2,7.9,8.6,7.6,9,7.3,9.4,7,9.7,6.6,9.9,6.3,10,5.9,10.1,5.4,10.1,5.2,10.4,4.6,10,4.4,10.1,4.1,10.1,8.9,22.7,7.8,23.1,3.3,10.4,3.1,10.5,2.9,10.7,2.7,11.3,2.3,11.2,2,11.5,1.6,11.7,1.3,11.8.8,11.9.4,11.9v11.8s-.2,3.2-.2,3.2l-.6,14.6h603.6l-.7-14.6v-3.2c-.1,0-.2-11.8-.2-11.8l.4-11.9.9-11.9,1.2-11.8,1.7-11.7,2-11.5,2.3-11.2,2.7-11.3,2.9-10.7,3.1-10.5,3.3-10.4,7.8-23.1,8.9-22.7,4.1-10.1,4.4-10.1,4.7-10,5.2-10.4,5.4-10.1,5.8-10.1,6.3-10,6.6-9.8,7-9.7,7.3-9.4,7.6-9,7.9-8.6,8.2-8.2,6.8-6.1,18.5-16.9-8.5-14.6Z"/>
  </g>
  <g id="Neck">
    <path class="st3" d="M151,109c-17,18-29.9,41.7-28.5,67.1,3.5,53.6,14.3,108.9,46,153.5,22,32,48.7,60.5,76.9,87,8.1,7.9,16,16,24.9,22.9h1.3c13.8-10.7,25.3-24,38.5-35.3,33.5-34.5,67.1-70.8,86.5-115.5,14.3-33,19.8-69,23.2-104.5.8-11.2,0-22.4-2.7-33.3-4.4-14.1-12.3-26.8-21.6-38.2-17.7-19.4-37.7-36.7-58.7-52.4-7.3,10.3-16.6,18.9-23.3,29.6,18.2,16,37.9,30.5,53.8,48.9,9.3,11.6,16.4,26.1,14.3,41.4-6.9,45.8-16.4,93.3-44,131.6-16.9,24.3-40.1,43.4-64.8,59.3-2.1,1.8-4.3-.5-6.1-1.5-14.1-9.8-28.3-19.6-40.3-32-21.5-21.3-37.5-47.8-47.9-76.1-10-26.8-13.8-55.3-18.4-83.4-.6-11.3,3.2-22.8,9.9-32,15.4-22.9,40.4-36.4,59.1-56.2-7-10.6-16.3-19.4-23.8-29.6-8.5,5.6-15.5,13.2-23.5,19.4-10.2,9.8-21.8,18.2-30.7,29.4ZM527.1,165.1c-5,19.7-.4,40,2.1,59.6,3.7,26,9.8,51.8,19.9,76.1,13.7,33.1,37.4,60.6,61,87,19.6,22.5,42.2,42.1,63.9,62.5,8.9-7.9,16.9-16.7,26.1-24.3,29.4-27.4,56.9-57.2,79.4-90.5,21.3-32.6,33.8-70.4,39.1-108.9,3.2-22.5,6.9-45.9.9-68.3-7.4-22.1-22.7-40.7-40.6-55.3-12.7-11.3-25.6-22.4-38.7-33.2-8.3,9.7-16.9,19.2-24.3,29.6,18.5,17.7,40.1,32.3,56.3,52.3,4.4,6.6,9.3,13.2,10.7,21.2,3.3,12.7.1,25.8-1.7,38.4-6.3,41.9-20.6,83.4-46.5,117.3-16.5,21.7-38,38.9-60.8,53.3-24.9-15.8-48.4-34.5-65.4-58.8-27.4-37.5-39.3-83.8-45-129.2-4.2-17.1,5-34.1,15.9-46.7,14.4-15.7,30.8-29.4,47.1-43,1.5-1.9,4.6-3.2,4.7-5.9-7.7-9.5-15.7-18.9-23.7-28.2-16,12.2-30.6,26-45.7,39.4-15,15.8-30.3,33.3-34.8,55.3ZM1284.1,139.9c19.3.7,38.6.1,57.9.3,61.3-.2,122.6.3,183.9-.3,0-4.3.2-8.7-.8-13-34.4-.6-68.7,0-103.1-.3-46,.5-92-.7-137.9.6,0,4.2,0,8.4,0,12.6Z"/>
  </g>
</svg>