<?xml version="1.0" encoding="utf-8"?>
<!-- Generator: Adobe Illustrator 28.2.0, SVG Export Plug-In . SVG Version: 6.00 Build 0)  -->
<svg version="1.1" id="Layer_1" xmlns="http://www.w3.org/2000/svg" xmlns:xlink="http://www.w3.org/1999/xlink" x="0px" y="0px"
	 viewBox="0 0 2048 2048" style="enable-background:new 0 0 2048 2048;" xml:space="preserve">
<style type="text/css">
	.st0{fill:#E6E6E6;}
	.st1{fill:#FFE400;}
	.st2{fill:#FFFFFF;}
	.st3{fill:#CCCCCC;}
	.st4{fill:#B3B3B3;}
</style>
<g id="color01">
	<path id="cut" class="st0" d="M621.9,50.2c236.7-0.3,473.4-0.1,710.1-0.1c0.5,10.6,0.4,21.1,0,31.7c-236.7,0.1-473.4,0.1-710,0
		C621.5,71.3,621.6,60.7,621.9,50.2z M454.3,218.3c-3.6,1.3-1.7,5.7-0.9,8.2c9,24.2,17.7,48.9,21.4,74.6c5.1,31.5,4.2,64.1-4.7,94.9
		c-6.3,20.5-16.6,40.8-33.5,54.5c-9.4,7.9-21.5,11.6-32.8,16c-0.1,8.1,2.4,15.9,3.8,23.9c8.8,48.2,19,96.4,22.3,145.5
		c0.6,17.4,0.4,34.8,0.2,52.1c-2.4,46.8-11.7,93-21.1,138.8c-6.4,34.9-13.3,69.6-19.1,104.6c52.6,5.7,105.3,9.8,158.1,12.5
		c26.7-0.4,53.3,1.6,80,1.3c49.3,1,98.7,0.3,148-1.1c13.4-0.5,26.8,0.4,40.1-1.2c47.4-2.5,94.6-6.3,141.8-11.6
		c-5.9-34.8-12.6-69.5-19.1-104.3c-8.9-43.3-17.5-86.8-20.8-131c-1.1-30.9-1.1-61.9,3-92.6c5-39.1,12.6-77.9,19.9-116.6
		c1.2-6.7,3-13.4,3.2-20.3c-9.1-3.5-18.6-6.4-26.9-11.6c-15.2-9.6-25.6-25.1-32.9-41.2c-14.3-33-17.1-70.2-12.3-105.6
		c3.3-30.5,14.5-59.1,24.3-87.9c-29.1-15.5-59.4-28.9-88.8-43.8c-4.1-1.8-8-4.8-12.7-3.9c-8.6,39.7-16.3,79.9-30,118.3
		c-8.1,22.1-18.6,43.9-35.3,60.8c-11.8,11.1-26.8,20.1-43.4,20.6c-15.2,0.2-31.2,1.7-45.3-5c-22.7-10.4-37.9-31.7-48.2-53.7
		c-16.1-33.4-23.9-69.9-32.1-105.9c-2.5-11.8-5.5-23.5-7.3-35.5c-5.2,0.2-9.6,3-14.2,5.1C510.8,190.9,482.5,204.5,454.3,218.3z
		 M1161.2,356.9c-2.9,29.9-11.6,60-30.1,84.1c-9.1,12.5-23.3,19.7-37,25.9c10.2,62.8,25.7,125.3,26.6,189.2c0.8,33.6-3,67-8.6,100.1
		c-8.5,47.4-17.8,94.6-26,142c-1.3,11.2-4.7,22.2-4.7,33.6c54.8,5.3,109.6,9.9,164.6,12.2c32-0.4,64,1.8,96,1.3
		c43.3,1,86.7-0.8,130-1.3c17.4,0.7,34.7-2,52.1-2.1c40.9-2.7,81.8-6.3,122.6-10.2c-0.1-5.5-0.9-10.9-2.1-16.3
		c-5.1-31.8-10.9-63.6-17-95.3c-10.1-52.9-21.2-106.1-20.5-160.1c0.4-65.3,16.2-129.1,26.8-193.2c-13.5-5.7-27.1-12.8-36.2-24.6
		c-21.8-27.7-30.6-63.5-32-98.2c-1.6-42.2,8.7-83.5,20.1-123.7c-33-17.1-66.8-32.4-100.2-48.7c-14.4,17-29.9,34.1-50.5,43.8
		c-22.1,10.9-47.3,11.1-71.4,12.5c-25.1-1.4-51.3-1.8-74-13.9c-19.3-9.7-33.9-26.2-47.8-42.3c-33.5,16-67.1,31.8-100.2,48.5
		C1154.5,264.5,1165.9,310.5,1161.2,356.9z M754,984c-52.7,0.1-105.3,0-158,0c-20.7,0.1-41.3-2.2-62-2.1
		c-32.1-1.8-64.1-4.2-96.1-7.1c-14.6-1.1-29.1-3.6-43.7-3.5c-1.7,7.4-2.6,15-4.2,22.5c11.8,2.9,24.1,2.5,36.1,4.1
		c51.9,5.1,103.9,8.3,156,9.9c59.3,0.1,118.7,0,178,0c19.4,0.3,38.7-2.1,58.1-1.9c40.7-2.6,81.3-5.5,121.8-9.8
		c6-0.2,12-0.6,17.9-2.1c-1.4-7.8-2.3-15.7-4.5-23.3c-47,4.7-94.1,8.8-141.3,11.4C792.6,981.9,773.4,984.1,754,984z M1081,994.6
		c40.9,3.6,81.9,7.9,122.9,9.9c20.6,2.1,41.4,1.1,62.1,3c56.7,0.8,113.4,0.2,170,0.4c24.1,0.4,48-2.3,72.1-2.1
		c46.4-3.1,92.8-6,138.9-11.6c-0.9-7.9-2.3-15.7-4-23.4c-48.9,4.7-97.9,9-147,11.4c-16.7-0.4-33.3,1.4-49.9,1.7
		c-49.4,0.6-98.7,0.1-148.1,0.3c-22.7,0.2-45.3-2.2-68-2c-48.4-2.4-96.7-6.9-145-11.2C1083,978.6,1081.3,986.5,1081,994.6z
		 M604.3,1138.4c-22.6,15.7-40.8,36.6-59.7,56.4c-8.3,10.3-18,19.3-26.5,29.4c-21.1,23.8-45.9,43.8-71.4,62.6
		c-5,2.4-2.3,8.1-1.6,12.2c8.9,35.5,17.2,71.1,25.3,106.8c33.1,149.7,52,302,68.1,454.2c3,21.9,3.7,44.2,7.6,65.9
		c39.3,0.9,78.6-0.3,117.9,0.3c38.5-0.8,77.1,0.4,115.6-0.2c3.7-30.6,6.3-61.3,10-91.9c16.6-156.6,37.5-313.1,73.8-466.5
		c5.8-26.3,13.2-52.3,18.5-78.7c-8.9-4.4-17.5-9.6-26-14.7c-28.4-18.6-48.9-46.1-70.1-72.1c-19.7-24.1-40.4-48.3-67.3-64.6
		c-21.4-13.3-47.6-20.6-72.7-15.5C630.8,1123.4,616.7,1129.8,604.3,1138.4z M1146.4,1180.4c-16.5,18.3-30.9,38.3-47.5,56.5
		c-17.9,22.1-41.4,39-66.7,51.6c20.6,82.7,39.4,165.9,53.4,249.9c21.9,128.3,35.8,257.7,48.9,387.1c21.1,1.1,42.3,0.1,63.4,0.3
		c54,0.3,108.1-0.2,162.1,0.3c3.5-0.2,10,1,9.5-4.5c18.3-178.3,38.1-357,78.1-532c7.2-33.7,16.3-67.1,23.6-100.8
		c-8.9-7.2-18.3-13.7-27.2-20.9c-41.9-32.7-73.1-76.3-111.6-112.4c-12.7-10.9-25.6-22.3-41.5-28.4c-22.5-9.2-48.5-9.9-71.5-1.6
		C1190.3,1136,1166.5,1157.4,1146.4,1180.4z M1135,1991.1c78,0,156,0.5,234-0.2c0.9-8,1.9-16,2.1-24.1c-79.4-0.2-158.9-0.2-238.3,0
		C1132.6,1975,1133.8,1983.1,1135,1991.1z M546.1,1991.7c77.8,0.3,155.6,0.2,233.4,0c0.8-7.9,2.5-15.7,2.6-23.7
		c-79.5-0.5-159-0.3-238.4-0.1C543.8,1975.9,544.2,1983.9,546.1,1991.7z"/>
</g>
<g id="color02">
	<path class="st1" d="M674.6,554.4L444.1,422.6l1.9-2.8l4.7-9l4.1-9.7l3.4-10.3l2.8-10.6l2.1-10.9l1.1-7.1l0.9-8.1l0.4-5.2l0.4-10.6
		l-0.2-10.5l-0.7-10.4l-1.2-10.3l-1.6-10.2l-2-10.2l-2.4-10.1l-2.8-10.1l-3.1-10.1l-2.7-8.1l-9.1-24.7l-4.3-11.6l125.4-61l3.6,17.1
		l8.3,39.1l5.3,23.4l2.9,11.9l3.1,12l3.5,11.9l3.7,11.7l4.1,11.3l4.4,10.9l4.8,10.3l5.2,9.5l5.5,8.7l5.9,7.7l6.2,6.7l6.5,5.5
		l6.9,4.4l7.5,3.4l3.6,1.1l2.9,0.7l3.6,0.6l4.4,0.4l11.5,0.4l11.5-0.4l4.4-0.4l3.6-0.6l2.9-0.7l3.6-1.1l7.5-3.4l6.9-4.4l6.5-5.5
		l6.2-6.7l5.9-7.7l5.5-8.7l5.2-9.5l4.8-10.3l4.4-10.9l4.1-11.3l3.7-11.7l3.5-11.9l3.1-12l2.9-11.9l5.3-23.4l8.3-39.1l3.6-17.1
		l125.4,61l-4.3,11.6l-9.1,24.7l-2.7,8.1l-3.1,10.1l-2.8,10.1l-2.4,10.1l-2,10.1l-1.6,10.2l-1.2,10.3l-0.7,10.4l-0.2,10.5l0.4,10.6
		l0.4,5.2l0.9,8.1l1,7.1l2.1,10.9l2.8,10.6l3.4,10.3l4.1,9.7l4.7,9l1.9,2.8L674.6,554.4z"/>
</g>
<g id="color03">
	<path class="st2" d="M674.6,609.1l-272-155.5l6-2l6.8-2.7l4.8-2.4l3.6-2.2l4.3-3.1l0.7-0.7l245.8,140.5l245.8-140.5l0.7,0.7
		l4.3,3.1l3.6,2.2l4.8,2.4l6.8,2.7l6.1,2L674.6,609.1z"/>
</g>
<g id="color06">
	<path class="st3" d="M604.3,1138.4c-22.6,15.7-40.8,36.6-59.7,56.4c-8.3,10.3-18,19.3-26.5,29.4c-21.1,23.8-45.9,43.8-71.4,62.6
		c-5,2.4-2.3,8.1-1.6,12.2c8.9,35.5,17.2,71.1,25.3,106.8c33.1,149.7,52,302,68.1,454.2c3,21.9,3.7,44.2,7.6,65.9
		c39.3,0.9,78.6-0.3,117.9,0.3c38.5-0.8,77.1,0.4,115.6-0.2c3.7-30.6,6.3-61.3,10-91.9c16.6-156.6,37.5-313.1,73.8-466.5
		c5.8-26.3,13.2-52.3,18.5-78.7c-8.9-4.4-17.5-9.6-26-14.7c-28.4-18.6-48.9-46.1-70.1-72.1c-19.7-24.1-40.4-48.3-67.3-64.6
		c-21.4-13.3-47.6-20.6-72.7-15.5C630.8,1123.4,616.7,1129.8,604.3,1138.4z M1146.4,1180.4c-16.5,18.3-30.9,38.3-47.5,56.5
		c-17.9,22.1-41.4,39-66.7,51.6c20.6,82.7,39.4,165.9,53.4,249.9c21.9,128.3,35.8,257.7,48.9,387.1c21.1,1.1,42.3,0.1,63.4,0.3
		c54,0.3,108.1-0.2,162.1,0.3c3.5-0.2,10,1,9.5-4.5c18.3-178.3,38.1-357,78.1-532c7.2-33.7,16.3-67.1,23.6-100.8
		c-8.9-7.2-18.3-13.7-27.2-20.9c-41.9-32.7-73.1-76.3-111.6-112.4c-12.7-10.9-25.6-22.3-41.5-28.4c-22.5-9.2-48.5-9.9-71.5-1.6
		C1190.3,1136,1166.5,1157.4,1146.4,1180.4z M1135,1991.1c78,0,156,0.5,234-0.2c0.9-8,1.9-16,2.1-24.1c-79.4-0.2-158.9-0.2-238.3,0
		C1132.6,1975,1133.8,1983.1,1135,1991.1z M546.1,1991.7c77.8,0.3,155.6,0.2,233.4,0c0.8-7.9,2.5-15.7,2.6-23.7
		c-79.5-0.5-159-0.3-238.4-0.1C543.8,1975.9,544.2,1983.9,546.1,1991.7z"/>
</g>
<g id="color12">
	<path class="st4" d="M621.9,50.2c236.7-0.3,473.4-0.1,710.1-0.1c0.5,10.6,0.4,21.1,0,31.7c-236.7,0.1-473.4,0.1-710,0
		C621.5,71.3,621.6,60.7,621.9,50.2z"/>
</g>
</svg>
