<svg id="SvgjsSvg1391" width="2048" height="2048" xmlns="http://www.w3.org/2000/svg" version="1.1" xmlns:xlink="http://www.w3.org/1999/xlink" xmlns:svgjs="http://svgjs.com/svgjs"><defs id="SvgjsDefs1392"></defs><!--?xml version="1.0" encoding="iso-8859-1"?-->
<!-- Generator: Adobe Illustrator 16.0.0, SVG Export Plug-In . SVG Version: 6.00 Build 0)  -->

<svg version="1.1" xmlns="http://www.w3.org/2000/svg" xmlns:xlink="http://www.w3.org/1999/xlink" x="0px" y="0px" width="2048px" height="2048px" viewBox="0 0 2048 2048" xml:space="preserve">
<g id="color01" opacity="100" fill="#2e7e45">
	<path id="cut" d="M55.8,153.62c22.3-10.16,45.24-18.98,68.02-28.02c1.1,2.7,2.06,5.46,2.26,8.38
		c3.46,23.36,8.2,46.72,17.28,68.6c11.12,25.68,26.84,49.58,47.14,68.92c17.76,18.42,38.88,33.1,58.46,49.48
		c20.2,14.32,30.1,38.74,33.84,62.48c5.76,29.94,2.8,60.5,3.08,90.78c-23.24,0.82-46.54,0.76-69.78,0.02
		c-0.74-24.52,1.54-49.26-3.02-73.479c-2.94-8.44-4.86-17.82-11.6-24.2c-11.36-12.84-25.94-22.06-38.54-33.54
		c-18.1-15.9-34.82-33.5-49.02-53c-22.98-30.74-38.06-66.64-48.46-103.4C61.9,175.72,59.56,164.46,55.8,153.62z M498.72,164.74
		c-6.56,31.22-20.22,60.92-40.1,85.88c-7.18,10.02-16.52,18.14-25.08,26.92c-22.66,22.82-52.1,38.5-71.5,64.5
		c-3.02,6.3-6.04,12.62-8.92,18.98c-4.84,16.58-7.5,33.72-9.16,50.86c0.3,20.7-0.74,41.44,0.84,62.1c12.02,1.48,24.14,0.3,36.2,0.88
		c11-0.8,22.16,1,33.06-0.84c-0.06-12-0.02-24-0.04-36.02c-0.16-11.3,2.14-22.46,2.28-33.76c1.72-6.62,4.24-13.02,6.56-19.44
		c4.06-6.4,9.6-11.72,14.78-17.2c16.06-13.2,32.74-25.76,47.04-40.96c24.94-24,45.14-52.78,59.98-84
		c12.96-28.86,21.66-59.38,29.62-89.94c-22.86-8.48-45.06-18.7-67.96-26.98C503.04,138.58,501.84,151.84,498.72,164.74z
		 M688.72,277.24c16.32,25.68,37.58,47.72,60.221,67.82c13.899,12.72,30.8,22.58,41.5,38.44c4.18,9.62,8.199,19.76,7.779,30.44
		c2.88,19.98,1.32,40.2,1.84,60.3c23.061,0.4,46.24,1.1,69.28-0.3c1.38-18.62,0.4-37.3,0.74-55.94c0.479-10.98-1.88-21.78-3.4-32.58
		c-3.14-22.08-11.5-44.52-28.359-59.8c-12.86-10.44-25.84-20.78-38.761-31.14c-28.38-23.26-54.18-50.92-69.279-84.78
		c-12.98-26.3-16.92-55.64-22.46-84.08c-22.96,8.36-45.181,18.66-68.101,27.08C650.98,195.9,663.6,239.8,688.72,277.24z
		 M1075.56,205.48c-8.579,20.08-20.819,38.5-35.06,55c-10.061,9.92-19.52,20.52-30.64,29.32c-13.7,11.74-28.221,22.46-42,34.12
		c-4.46,4.88-8.7,9.92-13.341,14.64C940.16,359.44,936.9,385.32,934,409.92c-0.06,21.44-0.36,42.9,0.42,64.32
		c23.14,0.58,46.36,0.74,69.521-0.06c0.64-20-1.141-40.14,1.72-60.04c-0.24-11.26,3.859-22.02,8.58-32.06
		c15.399-19.96,38.34-32.08,55.279-50.56c22.28-20.78,41.461-44.96,56.24-71.62c18.48-33.42,28.8-70.46,38.48-107.16
		c-22.86-8.52-45.101-18.64-68-27.1C1090.7,152.52,1087.28,180.34,1075.56,205.48z M1308.439,199.6
		c18.681,21.48,39.461,42.04,65.221,54.8c30.12,13.64,63.859,13.78,96.3,14.22c37.1-0.5,74.62,1.92,111.18-5.58
		c9.98-1.44,18.8-6.68,28.36-9.6c30.18-16.2,52.96-42.48,75.42-67.72c-22.02-9.9-44.74-18.22-67-27.52
		c-9.34,6-15.32,16.74-24.98,22.78c-17.899,15.28-42.3,17.96-64.859,19.04c-25.4-0.08-50.78-0.06-76.16,0
		c-8.04,0.18-15.88-1.92-23.9-2.18c-26.14-3.06-48.06-19.96-64-40.06c-22.14,9.02-44.34,17.82-66.479,26.84
		C1299,190.92,1304.4,194.96,1308.439,199.6z M1301.439,340.56c18.601,21.3,38.101,42.66,62.541,57.4
		c7.899,5.68,17.56,7.96,26.459,11.6c41.58,10.98,84.961,8.08,127.561,8.48c14.1,0.38,28.02-2,42.08-2.44
		c22.26-3.18,45.04-8.56,63.52-22.06c10.761-6.22,19.141-15.5,28.66-23.34c10.641-12.04,22.44-23.06,32.101-35.94
		c-19.301-8.5-39.08-15.939-58.58-23.979c-3.08-1.021-6.16-3.08-9.48-2.2c-6.62,4.76-10.54,12.36-17.12,17.2
		c-8.22,5.92-15.979,13-25.939,15.86c-14.301,5.88-29.98,7.06-45.301,7.08c-18.64,0.72-37.3-0.4-55.939,0.34
		c-21.24-0.7-43.32,1.12-63.44-7.04c-18.56-5.84-31.3-21.34-44.72-34.46c-22.52,8.58-44.92,17.54-67.08,27.02
		C1298.04,336.42,1299.56,338.62,1301.439,340.56z M1127.06,450.9c12.98,51.54,14.801,107.54-4.46,157.8
		c-8.46,22.06-21.439,43.06-40.38,57.62c-21.979,16.939-49.399,23.88-75.42,32.06c1.94,9.3,1.641,19.2,5.22,28.061
		c36.181-11,75.521-21.58,101.721-50.761c8.72-6.84,13.8-16.84,20.42-25.5c14.22-24.68,23.58-52.04,27.88-80.18
		c2.46-11.9,1.94-24.08,3.78-36.04c-0.061-21.46-1.74-42.96-5.721-64.08c-6.14-36.44-19.26-71.18-32.319-105.6
		c-8.88,2.96-17.32,7.1-26.101,10.34C1110.7,399.84,1120.48,424.86,1127.06,450.9z M1836.26,534.28
		c-15.32,42.8-25.859,88.04-24.32,133.72c-0.88,15.42,2.12,30.58,4.32,45.76c7.061,32.66,19.021,65.26,41.141,90.88
		c8.22,7.82,15.18,17.2,25.279,22.82c9.74,7.58,21.16,12.26,32.181,17.54c16.72,5.76,33.359,12.44,50.819,15.52
		c2.78-8.939,3.28-18.42,4.24-27.68c-24.04-6.439-48.3-13.899-69.46-27.359c-18.78-12.801-32.72-31.461-41.96-52.04
		c-18.5-41.82-22.44-89.101-15.2-133.98c5-35.42,16.88-69.38,29.7-102.62c1.12-2.58,1.26-5.38,1.28-8.14
		c-8.74-2.28-16.561-7.3-25.48-8.82C1844.92,511.46,1840.04,522.68,1836.26,534.28z M174.24,605.76
		c12.74,44,13.64,91.62,1.36,135.82c-6.22,20.08-15.5,40.3-31.82,54.16c-19.76,19.6-47.08,27.939-72.06,38.62
		c1.68,9.279,3.14,18.6,5,27.84c29.82-10.48,60.06-22.36,84.46-43.04c20.88-18.96,35.1-44.7,42.28-71.84
		c7.18-24.38,9.56-49.96,8.62-75.301c1.28-51.64-17.48-101.14-40.4-146.54c-8.96,2.64-17.16,7.22-25.74,10.82
		C156.22,559.08,167.04,581.74,174.24,605.76z M1228.06,649.92c4.7,19.7,6.221,39.88,7.82,59.98
		c-0.56,27.359-3.6,55.04-13.02,80.899c-8.301,24.34-22,47.62-42.66,63.42c-21.8,16.66-48.92,23.28-74.46,31.8
		c0.08,2.601,0.22,5.2,0.42,7.82c7.479,48.18,14.5,96.5,18.779,145.04c1.541,10.38,0.881,20.98,2.82,31.36
		c0.08,28.2,3.78,56.399,1.24,84.62c-1.3,13.699-0.54,27.5-1.54,41.22c-2.24,11.3-0.7,22.9-3.14,34.18
		c-0.601,17.3-3.32,34.4-4.561,51.641c-9.2,77.06-17.899,154.14-26.92,231.199c-0.92,11.48-3.72,22.78-2.96,34.36
		c12.48,3.24,24.58,7.84,36.8,11.96c34.681,11.92,67,29.48,101.061,42.92c48.84,19.18,101,28.66,153.14,32.46
		c9.98,2.08,20.26,0.46,30.32,2.061c15.54,1.979,31.239,0.68,46.859,1.479c13.28,0.42,26.54,2.2,39.82,0.74
		c20.28-1.92,40.68-0.021,60.96-2.12c10.36-1.7,20.98-0.1,31.32-2.2c43.02-3.08,85.96-10.24,127.2-23.3
		c43.6-13.5,83.18-37.04,126.279-51.9c12.7-5,26.24-7.819,38.58-13.68c-2.939-13.28-3.14-26.96-5.239-40.38
		c-8.181-71.84-16.66-143.68-24.961-215.5c-3.34-32.66-7.319-65.26-8.439-98.08c-2.5-15.88-1.141-31.96-1.68-47.939
		c-0.48-18.021,0.359-36,0.119-54c3.48-68.301,13.32-136.12,23.48-203.761c-29.82-9.739-62.1-17.76-85-40.68
		c-28.32-29-40.4-69.94-44.36-109.38c-0.439-15.4-0.46-30.84,0.04-46.26c1.98-14.82,3.9-29.7,7.48-44.261
		c6.38-28.52,17.279-55.68,26.779-83.22c-28.42-12.28-57.479-23.06-86.079-34.96c-2.421-0.68-5.16-2.54-7.601-1.12
		c-4.66,4.84-8.52,10.38-13.279,15.14c-15.4,15.34-30.261,31.72-49,43.1c-16.101,10.82-34.98,16.939-54.08,19.7
		c-11.301,2.62-22.98,1.239-34.42,2.54c-18.08,1.74-36.16-1.84-54.221,0c-17.3,1.54-34.54-0.98-51.82-1.08
		c-14.1-2.12-28.479-4.28-41.68-9.9c-22.399-8.14-40.64-24.3-57.7-40.42c-10.199-9.24-17.579-21.58-28.72-29.64
		c-30.96,11.36-61.3,24.44-91.96,36.58C1210.56,591.1,1221.6,619.86,1228.06,649.92z M947.18,585.26
		c-7.72,20.12-11.96,41.38-14.819,62.7c-1.761,33-2.181,66.68,7.04,98.7c8.96,37.06,31.479,71.8,65.279,90.6
		c15.08,9.16,31.48,15.801,47.9,22.141c4.82,1.779,9.479,4.46,14.76,4.6c1.26-9.18,3.12-18.24,4.82-27.34
		c-24.04-9.74-49.2-18.54-69.48-35.3c-16.54-14.061-27.14-33.841-33.72-54.261c-6.64-22.38-9.96-45.739-9.06-69.08
		c-0.92-27.979,4.319-55.959,13.6-82.319c6.44-19.76,16.46-38.12,23.8-57.5c-8.939-3.12-17.02-8.88-26.46-10.26
		C963.42,547.22,953.54,565.54,947.18,585.26z M279.62,586.78c3.46,10.54,9.1,20.18,13.12,30.5c12.96,29.16,22.56,60.28,24,92.34
		c2.76,17.2,0,34.52-1.36,51.7c-4.46,33.02-15.76,67.779-42.44,89.56c-19.62,15.98-43.64,25.021-67.12,33.72
		c0.02,3.04,0.04,6.12,0.46,9.16c9.38,52.521,18.24,105.2,23.76,158.28c3.16,24.52,3.62,49.22,5.74,73.84
		c2.72,84.66-11.72,168.34-21.78,252.101c-5.72,45.939-10.68,91.979-15.86,137.96c-0.7,9.939-2.9,19.72-2.34,29.76
		c16.3,3.359,32.8,5.68,49.06,9.3c38.98,8.02,77.52,18.58,117.16,23.06c15.84,1.881,31.7,3.66,47.66,4.521
		c13.3,2.479,26.92,0.46,40.22,2.92c21.38,1.16,42.8,0.16,64.18,0.88c33.96,0.98,67.939-0.66,101.9,0.26
		c26.68,0.28,53.34-0.439,80.02-0.6c14.6-0.16,29.32,0.66,43.82-1.64c23.859-0.44,47.58-2.98,71.3-5.46
		c40.24-4.04,79.479-14.261,118.899-22.86c18.4-4.061,37.141-6.48,55.48-10.76c-9.86-92.54-20.82-184.96-33.1-277.24
		c-2.9-28.64-6.561-57.2-6.721-86.021c-2.84-23.939-0.96-48.04,0.32-72c-0.8-12.159,2.12-24.06,2.12-36.18
		c5.86-63.12,16.12-125.8,27.6-188.14c-25.3-11.44-53.62-19.521-73.46-40.08c-13.8-12.6-22.84-29.58-28.819-47.08
		c-9.881-29.76-11.681-61.58-9.46-92.64c1.939-35.28,14.38-69,29.159-100.761c2.62-6.08,6.101-11.88,7.2-18.479
		c-23.42-10.181-46.74-20.56-70.06-30.92c-7.221-2.68-13.88-7.14-21.66-8.12c-6.42,23.34-13.9,46.58-24.98,68.16
		c-17.72,34.92-45.14,63.939-75.22,88.56c-23.38,19.4-52.14,30.98-74.86,51.22c-4.079,6.521-8.42,12.98-11.88,19.86
		c-2.96,22.7-1.18,45.64-1.739,68.46c-19.96,0.061-39.921,0.08-59.88,0.021c-0.48-22.44,0.8-44.94-0.68-67.32
		c-3.34-7-7.74-13.54-11.98-20.06c-5.78-6.261-13.18-10.82-19.92-15.98c-19.66-12.14-40-23.4-57.92-38.1
		c-29.62-24.66-56.44-53.66-73.68-88.42c-10.72-21.12-17.38-43.94-24.46-66.46c-2.1,0.3-4.14,0.84-6.1,1.6
		C336.62,561.42,308.34,574.62,279.62,586.78z M1094.7,1612.76c-0.78,8.88-1.82,17.74-2.88,26.601
		c33.399,9.899,66.08,22.3,97.52,37.319c32.061,15.12,65.18,28.34,99.82,36.24c38.96,9.34,78.96,13.86,118.92,15.78
		c14.56,2.56,29.4,0.62,44.1,1.66c23.801,2.14,47.82,2.159,71.66,0.02c15.34-1.06,30.86,0.96,46.061-1.899
		c63.5-2.74,127.58-13.04,186.42-38.101c21.479-8.88,42.199-19.52,63.739-28.3c20.86-8.7,42.36-15.84,63.94-22.561
		c0.9-9.539-2.08-18.72-2.34-28.18c-2.38,0.061-4.7,0.44-6.94,1.16c-24.319,7.92-48.64,15.92-72.12,26.12
		c-34.66,15.3-68.68,32.66-105.46,42.5c-44.08,12.18-89.779,17.52-135.34,19.58c-15.88,2.24-31.939,0.62-47.88,1.66
		c-18.62,0.58-37.26,0.64-55.88-0.181c-14.38-0.68-28.82,0.62-43.12-1.46c-53.12-2.439-106.66-9.06-157.22-26.38
		c-24.681-8.22-48.021-19.78-71.74-30.32c-28.94-13.319-59.14-23.84-89.62-32.979C1095.939,1611.46,1095.12,1612.32,1094.7,1612.76z
		 M769.98,1673.82c-14.08-0.46-27.94,2.6-42,2.16c-20.021-0.32-39.961,1.619-59.961,1.779c-46.659,0.16-93.339,0-140.02,0.08
		c-25.36,0.22-50.66-2.38-76.02-1.88c-35.92-2.32-71.9-4.479-107.48-10.5c-42.34-7.26-83.76-19.24-126.24-25.78
		c-5.98-0.979-11.92-2.779-18.02-2.08c0.12,9.341-2.8,18.44-2.18,27.82c46.82,6.061,92.38,19,138.72,27.7
		c29.5,4.32,59.08,8.24,88.86,9.439c17.48,2.721,35.24,0.381,52.78,2.58c51.16,1.86,102.38,0.48,153.58,0.9
		c28.62-0.18,57.3,0.76,85.86-1.74c13.6-0.74,27.319,0.521,40.84-1.64c47.12-2.32,94.1-8.88,140.04-19.96
		c29.359-6.92,58.96-13.061,88.8-17.5c0.64-9.46-1.88-18.82-2.3-28.26c-61.5,7.76-120.721,28.319-182.601,33.579
		C791.82,1672.3,780.82,1672.16,769.98,1673.82z M2026.533,2023.532h-695.265v-273.026h695.265V2023.532z"></path>
	<path id="ChestUpperLeftChest" d="M832.454,796.169H670.179v-41.213h162.274V796.169z"></path>
	<path id="ChestLeftChest" d="M889.981,1042.302h-254.25V856.853h254.25V1042.302z"></path>
	<path id="ChestRightChest" d="M530.821,918.954H327.773v-144.24h203.048V918.954z"></path>
	<path id="ChestCenterFrontUpper" d="M903.582,1059.921H278.841V895.077h624.741V1059.921z"></path>
	<path id="ChestCenterFrontCenter" d="M903.582,1142.346H278.841V895.077h624.741V1142.346z"></path>
	<path id="ChestCenterFrontLower" d="M903.582,1180.846H278.874v-144.239h624.708V1180.846z"></path>
	<path id="ChestCenterFront" d="M903.582,1226.261h-624.74V896.569h624.74V1226.261z"></path>
	<path id="ChestLowerLeft" d="M917.127,1257.735H618.476v-164.844h298.651V1257.735z"></path>
	<path id="ChestLowerLeftCenter" d="M917.127,1347.384H618.476V1182.54h298.651V1347.384z"></path>
	<path id="ChestLowerRight" d="M562.541,1257.25H263.89v-164.844h298.651V1257.25z"></path>
	<path id="BackUpperBack" d="M1719.156,797.398h-467.418V694.371h467.418V797.398z"></path>
	<path id="BackCenterBack" d="M1719.156,1227.433h-467.42V856.531h467.42V1227.433z"></path>
</g>
<g id="color02" opacity="100" fill="#ef60ae">
	<path d="M1102.59,1429.045v122.156c-0.982-0.316-1.965-0.631-2.949-0.938v-95.678
		C1100.625,1446.072,1101.607,1437.559,1102.59,1429.045z M1130.429,878.062v682.688c0.983,0.352,1.971,0.693,2.95,1.053V877.078
		C1132.396,877.408,1131.414,877.736,1130.429,878.062z M1161.219,865.896v707.186c0.983,0.428,1.969,0.855,2.95,1.287V864.382
		C1163.191,864.898,1162.209,865.404,1161.219,865.896z M1192.008,843.62v743.313c0.983,0.447,1.967,0.893,2.951,1.338V840.438
		C1193.998,841.52,1193.011,842.577,1192.008,843.62z M1222.799,553.133v75.78c1.039,3.678,2.024,7.373,2.948,11.085V551.93
		C1224.764,552.331,1223.781,552.732,1222.799,553.133z M1222.86,790.8c-0.02,0.058-0.042,0.115-0.062,0.173v809.377
		c0.98,0.398,1.965,0.793,2.948,1.188V782.145C1224.855,785.049,1223.903,787.938,1222.86,790.8z M1253.588,540.613v1070.895
		c0.982,0.313,1.965,0.625,2.95,0.932V539.421C1255.554,539.816,1254.571,540.216,1253.588,540.613z M1284.377,528.574V1620.15
		c0.982,0.238,1.967,0.473,2.951,0.707V527.469C1286.344,527.836,1285.359,528.204,1284.377,528.574z M1315.166,550.04v1076.617
		c0.984,0.178,1.967,0.355,2.951,0.527V553.09C1317.113,552.095,1316.129,551.079,1315.166,550.04z M1345.956,577.513v1053.84
		c0.983,0.123,1.968,0.244,2.951,0.361V579.709C1347.916,578.988,1346.933,578.256,1345.956,577.513z M1378.26,595.84
		c-0.51-0.186-1.008-0.396-1.514-0.59v1039.234c0.982,0.078,1.967,0.152,2.949,0.225V596.425
		C1379.217,596.231,1378.736,596.042,1378.26,595.84z M1407.535,603.782V1636.41c0.985,0.09,1.969,0.209,2.95,0.35V604.276
		C1409.502,604.116,1408.518,603.951,1407.535,603.782z M1438.326,606.472v1031.573c0.983-0.002,1.967-0.002,2.949-0.002V606.642
		C1440.293,606.585,1439.31,606.529,1438.326,606.472z M1471.76,606.82c-0.882,0.079-1.764,0.14-2.646,0.198v1031.888
		c0.983,0.061,1.968,0.121,2.951,0.182V606.795C1471.963,606.805,1471.861,606.81,1471.76,606.82z M1499.904,606.834v1032.078
		c0.983-0.082,1.967-0.156,2.951-0.223V606.976C1501.871,606.93,1500.889,606.882,1499.904,606.834z M1530.694,606.422V1638.08
		c0.983-0.004,1.966-0.01,2.949-0.016V606.28C1532.66,606.318,1531.676,606.363,1530.694,606.422z M1561.483,604.111v1032.49
		c0.981-0.113,1.965-0.205,2.95-0.275V603.642C1563.451,603.809,1562.468,603.963,1561.483,604.111z M1592.273,596.071v1038.524
		c0.983-0.072,1.967-0.15,2.949-0.229V594.884C1594.245,595.293,1593.262,595.687,1592.273,596.071z M1623.064,578.835v1052.733
		c0.982-0.121,1.965-0.254,2.948-0.379V576.636C1625.039,577.382,1624.057,578.114,1623.064,578.835z M1653.853,551.18v1075.771
		c0.985-0.176,1.968-0.361,2.951-0.543V548.198C1655.821,549.192,1654.838,550.186,1653.853,551.18z M1684.643,527.576v1092.954
		c0.984-0.238,1.967-0.477,2.95-0.719V528.788C1686.609,528.383,1685.624,527.984,1684.643,527.576z M1715.432,540.02v1072.033
		c0.643-0.201,1.287-0.389,1.929-0.592c0.342-0.107,0.681-0.219,1.022-0.326V541.192
		C1717.398,540.802,1716.416,540.41,1715.432,540.02z M1749.171,624.579v-71.067c-0.981-0.4-1.967-0.794-2.95-1.193v82.812
		C1747.148,631.596,1748.136,628.08,1749.171,624.579z M1746.221,786.227v814.824c0.984-0.398,1.969-0.799,2.95-1.203V794.727
		C1748.118,791.922,1747.142,789.085,1746.221,786.227z M1777.012,841.799v745.891c0.983-0.445,1.967-0.893,2.949-1.34V844.971
		C1778.957,843.93,1777.976,842.871,1777.012,841.799z M1807.801,864.999v708.804c0.982-0.43,1.966-0.855,2.949-1.281V866.477
		C1809.762,865.994,1808.777,865.502,1807.801,864.999z M1838.59,877.559v683.791c0.981-0.355,1.965-0.703,2.949-1.051V878.542
		C1840.555,878.218,1839.572,877.89,1838.59,877.559z M1869.38,1439.412v111.564c0.987-0.336,1.971-0.68,2.951-1.033v-84.953
		C1871.349,1456.463,1870.367,1447.938,1869.38,1439.412z M205.82,884.6c0.02,3.04,0.04,6.12,0.46,9.16
		c0.311,1.74,0.619,3.48,0.929,5.221v-14.896C206.746,884.256,206.282,884.428,205.82,884.6z M204.26,1461.232v86.121
		c0.983,0.184,1.965,0.369,2.949,0.551v-112.723C206.216,1443.865,205.234,1452.549,204.26,1461.232z M235.049,873.08v243.494
		c0.224,3.104,0.464,6.205,0.73,9.307c0.656,20.412,0.308,40.768-0.73,61.08v366.008c0.984,0.193,1.967,0.383,2.949,0.582V871.764
		C237.018,872.209,236.035,872.648,235.049,873.08z M265.838,856.233v703.288c0.983,0.219,1.967,0.438,2.949,0.658V854.103
		C267.813,854.828,266.83,855.537,265.838,856.233z M296.628,579.444v46.926c1.008,2.438,1.998,4.885,2.95,7.347v-55.561
		C298.596,578.588,297.611,579.015,296.628,579.444z M296.628,822.182v744.24c0.983,0.217,1.968,0.432,2.95,0.646V816.592
		C298.642,818.482,297.658,820.348,296.628,822.182z M327.417,565.813v1006.95c0.983,0.184,1.967,0.365,2.951,0.543V564.5
		C329.385,564.937,328.4,565.375,327.417,565.813z M358.206,552.262v1025.33c0.983,0.121,1.966,0.248,2.95,0.361V550.992
		C360.173,551.415,359.189,551.837,358.206,552.262z M388.996,599.038v981.968c0.983,0.092,1.967,0.189,2.95,0.277V605.85
		C390.925,603.595,389.946,601.322,388.996,599.038z M419.785,651.858v931.882c0.982,0.059,1.967,0.102,2.951,0.139V655.6
		C421.74,654.362,420.758,653.114,419.785,651.858z M450.576,685.616v899.913c0.982,0.051,1.967,0.082,2.949,0.125V688.403
		C452.533,687.483,451.558,686.547,450.576,685.616z M481.365,711.476v874.63c0.983-0.002,1.967-0.002,2.95-0.004V713.554
		C483.327,712.869,482.345,712.174,481.365,711.476z M512.155,731.27v855.063c0.642,0.02,1.283,0.027,1.925,0.049
		c0.342,0.01,0.684,0.016,1.024,0.023V733.052C514.121,732.458,513.139,731.864,512.155,731.27z M542.944,752.281v834.416
		c0.983-0.004,1.968-0.004,2.951-0.008V755.033C544.94,754.086,543.962,753.163,542.944,752.281z M573.734,843.956v742.491
		c0.983-0.008,1.967-0.018,2.949-0.025V843.96C575.701,843.959,574.718,843.957,573.734,843.956z M604.522,843.948v742.476
		c0.983,0.012,1.968,0.027,2.951,0.041V843.943C606.49,843.945,605.506,843.947,604.522,843.948z M635.313,754.102v832.586
		c0.983-0.004,1.966-0.012,2.948-0.018V751.606C637.266,752.418,636.29,753.261,635.313,754.102z M666.104,732.5v853.874
		c0.982-0.014,1.966-0.025,2.949-0.039v-855.63C668.068,731.302,667.084,731.898,666.104,732.5z M696.893,713.094v872.939
		c0.982-0.008,1.967-0.012,2.95-0.014V711.008C698.867,711.715,697.88,712.404,696.893,713.094z M727.683,687.596v898.082
		c0.983-0.059,1.968-0.129,2.95-0.207V684.815C729.654,685.748,728.672,686.675,727.683,687.596z M758.471,654.603v929.057
		c0.984-0.059,1.967-0.129,2.951-0.191v-932.64C760.45,652.096,759.467,653.354,758.471,654.603z M789.262,604.062v977.11
		c0.983-0.096,1.967-0.188,2.949-0.285V597.179C791.258,599.486,790.279,601.782,789.262,604.062z M820.051,551.259v1026.674
		c0.984-0.121,1.967-0.25,2.95-0.377V552.616C822.02,552.158,821.037,551.702,820.051,551.259z M853.792,1572.615V566.219
		c-0.983-0.436-1.968-0.872-2.951-1.308v1008.251C851.825,1572.982,852.809,1572.799,853.792,1572.615z M884.58,1566.27V823.366
		c-1.027-1.763-2.014-3.551-2.949-5.366v748.914C882.613,1566.699,883.598,1566.486,884.58,1566.27z M884.58,624.567v-44.755
		c-0.982-0.432-1.967-0.862-2.949-1.293v53.347C882.59,629.423,883.574,626.99,884.58,624.567z M915.37,1559.338V856.814
		c-0.995-0.703-1.98-1.42-2.951-2.16v705.352C913.402,1559.783,914.387,1559.559,915.37,1559.338z M946.16,1552.871v-353.682
		c-0.274-5.701-0.449-11.41-0.48-17.129c-2.84-23.939-0.96-48.041,0.32-72c-0.256-3.895-0.129-7.76,0.16-11.615v-225.18
		c-0.986-0.425-1.97-0.855-2.951-1.288v681.438C944.191,1553.23,945.176,1553.051,946.16,1552.871z M975.72,885.74
		c-0.571-0.258-1.146-0.514-1.722-0.769v10.185C974.57,892.018,975.143,888.878,975.72,885.74z M976.949,1547.178v-79.514
		c-0.977-8.605-1.954-17.211-2.951-25.814v105.922C974.982,1547.576,975.967,1547.379,976.949,1547.178z"></path>
</g>
<g id="color11" opacity="100" fill="#2e7e45">
	<path d="M55.8,153.62c22.3-10.16,45.24-18.98,68.02-28.02c1.1,2.7,2.06,5.46,2.26,8.38
		c3.46,23.36,8.2,46.72,17.28,68.6c11.12,25.68,26.84,49.58,47.14,68.92c17.76,18.42,38.88,33.1,58.46,49.48
		c20.2,14.32,30.1,38.74,33.84,62.48c5.76,29.94,2.8,60.5,3.08,90.78c-23.24,0.82-46.54,0.76-69.78,0.02
		c-0.74-24.52,1.54-49.26-3.02-73.479c-2.94-8.44-4.86-17.82-11.6-24.2c-11.36-12.84-25.94-22.06-38.54-33.54
		c-18.1-15.9-34.82-33.5-49.02-53c-22.98-30.74-38.06-66.64-48.46-103.4C61.9,175.72,59.56,164.46,55.8,153.62z M498.72,164.74
		c-6.56,31.22-20.22,60.92-40.1,85.88c-7.18,10.02-16.52,18.14-25.08,26.92c-22.66,22.82-52.1,38.5-71.5,64.5
		c-3.02,6.3-6.04,12.62-8.92,18.98c-4.84,16.58-7.5,33.72-9.16,50.86c0.3,20.7-0.74,41.44,0.84,62.1c12.02,1.48,24.14,0.3,36.2,0.88
		c11-0.8,22.16,1,33.06-0.84c-0.06-12-0.02-24-0.04-36.02c-0.16-11.3,2.14-22.46,2.28-33.76c1.72-6.62,4.24-13.02,6.56-19.44
		c4.06-6.4,9.6-11.72,14.78-17.2c16.06-13.2,32.74-25.76,47.04-40.96c24.94-24,45.14-52.78,59.98-84
		c12.96-28.86,21.66-59.38,29.62-89.94c-22.86-8.48-45.06-18.7-67.96-26.98C503.04,138.58,501.84,151.84,498.72,164.74z
		 M688.72,277.24c16.32,25.68,37.58,47.72,60.221,67.82c13.899,12.72,30.8,22.58,41.5,38.44c4.18,9.62,8.199,19.76,7.779,30.44
		c2.88,19.98,1.32,40.2,1.84,60.3c23.061,0.4,46.24,1.1,69.28-0.3c1.38-18.62,0.4-37.3,0.74-55.94c0.479-10.98-1.88-21.78-3.4-32.58
		c-3.14-22.08-11.5-44.52-28.359-59.8c-12.86-10.44-25.84-20.78-38.761-31.14c-28.38-23.26-54.18-50.92-69.279-84.78
		c-12.98-26.3-16.92-55.64-22.46-84.08c-22.96,8.36-45.181,18.66-68.101,27.08C650.98,195.9,663.6,239.8,688.72,277.24z
		 M1075.56,205.48c-8.579,20.08-20.819,38.5-35.06,55c-10.061,9.92-19.52,20.52-30.64,29.32c-13.7,11.74-28.221,22.46-42,34.12
		c-4.46,4.88-8.7,9.92-13.341,14.64C940.16,359.44,936.9,385.32,934,409.92c-0.06,21.44-0.36,42.9,0.42,64.32
		c23.14,0.58,46.36,0.74,69.521-0.06c0.64-20-1.141-40.14,1.72-60.04c-0.24-11.26,3.859-22.02,8.58-32.06
		c15.399-19.96,38.34-32.08,55.279-50.56c22.28-20.78,41.461-44.96,56.24-71.62c18.48-33.42,28.8-70.46,38.48-107.16
		c-22.86-8.52-45.101-18.64-68-27.1C1090.7,152.52,1087.28,180.34,1075.56,205.48z M1308.439,199.6
		c18.681,21.48,39.461,42.04,65.221,54.8c30.12,13.64,63.859,13.78,96.3,14.22c37.1-0.5,74.62,1.92,111.18-5.58
		c9.98-1.44,18.8-6.68,28.36-9.6c30.18-16.2,52.96-42.48,75.42-67.72c-22.02-9.9-44.74-18.22-67-27.52
		c-9.34,6-15.32,16.74-24.98,22.78c-17.899,15.28-42.3,17.96-64.859,19.04c-25.4-0.08-50.78-0.06-76.16,0
		c-8.04,0.18-15.88-1.92-23.9-2.18c-26.14-3.06-48.06-19.96-64-40.06c-22.14,9.02-44.34,17.82-66.479,26.84
		C1299,190.92,1304.4,194.96,1308.439,199.6z M1301.439,340.56c18.601,21.3,38.101,42.66,62.541,57.4
		c7.899,5.68,17.56,7.96,26.459,11.6c41.58,10.98,84.961,8.08,127.561,8.48c14.1,0.38,28.02-2,42.08-2.44
		c22.26-3.18,45.04-8.56,63.52-22.06c10.761-6.22,19.141-15.5,28.66-23.34c10.641-12.04,22.44-23.06,32.101-35.94
		c-19.301-8.5-39.08-15.939-58.58-23.979c-3.08-1.021-6.16-3.08-9.48-2.2c-6.62,4.76-10.54,12.36-17.12,17.2
		c-8.22,5.92-15.979,13-25.939,15.86c-14.301,5.88-29.98,7.06-45.301,7.08c-18.64,0.72-37.3-0.4-55.939,0.34
		c-21.24-0.7-43.32,1.12-63.44-7.04c-18.56-5.84-31.3-21.34-44.72-34.46c-22.52,8.58-44.92,17.54-67.08,27.02
		C1298.04,336.42,1299.56,338.62,1301.439,340.56z M2026.533,2023.532h-695.265v-273.026h695.265V2023.532z"></path>
</g>
<g id="color101" opacity="100" fill="#000000">
	<path d="M2031.167,85.02h-32V51.686h32V85.02z"></path>
</g>
<g id="color102" opacity="100" fill="#404040">
	<path d="M2031.167,42.5h-32V9.167h32V42.5z"></path>
</g>
<g id="color103" opacity="100" fill="#ffffff">
	<path d="M1988.647,42.5h-32V9.167h32V42.5z"></path>
</g>
</svg>
</svg>