<svg id="SvgjsSvg1171" width="2048" height="2048" xmlns="http://www.w3.org/2000/svg" version="1.1" xmlns:xlink="http://www.w3.org/1999/xlink" xmlns:svgjs="http://svgjs.com/svgjs"><defs id="SvgjsDefs1172"></defs><!--?xml version="1.0" encoding="iso-8859-1"?-->
<!-- Generator: Adobe Illustrator 16.0.0, SVG Export Plug-In . SVG Version: 6.00 Build 0)  -->

<svg version="1.1" xmlns="http://www.w3.org/2000/svg" xmlns:xlink="http://www.w3.org/1999/xlink" x="0px" y="0px" width="2048px" height="2048px" viewBox="0 0 2048 2048" xml:space="preserve">
<g id="color01" opacity="100" fill="#2e7e45">
	<path id="cut" d="M55.8,153.62c22.3-10.16,45.24-18.98,68.02-28.02c1.1,2.7,2.06,5.46,2.26,8.38
		c3.46,23.36,8.2,46.72,17.28,68.6c11.12,25.68,26.84,49.58,47.14,68.92c17.76,18.42,38.88,33.1,58.46,49.48
		c20.2,14.32,30.1,38.74,33.84,62.48c5.76,29.94,2.8,60.5,3.08,90.78c-23.24,0.82-46.54,0.76-69.78,0.02
		c-0.74-24.52,1.54-49.26-3.02-73.479c-2.94-8.44-4.86-17.82-11.6-24.2c-11.36-12.84-25.94-22.06-38.54-33.54
		c-18.1-15.9-34.82-33.5-49.02-53c-22.98-30.74-38.06-66.64-48.46-103.4C61.9,175.72,59.56,164.46,55.8,153.62z M498.72,164.74
		c-6.56,31.22-20.22,60.92-40.1,85.88c-7.18,10.02-16.52,18.14-25.08,26.92c-22.66,22.82-52.1,38.5-71.5,64.5
		c-3.02,6.3-6.04,12.62-8.92,18.98c-4.84,16.58-7.5,33.72-9.16,50.86c0.3,20.7-0.74,41.44,0.84,62.1c12.02,1.48,24.14,0.3,36.2,0.88
		c11-0.8,22.16,1,33.06-0.84c-0.06-12-0.02-24-0.04-36.02c-0.16-11.3,2.14-22.46,2.28-33.76c1.72-6.62,4.24-13.02,6.56-19.44
		c4.06-6.4,9.6-11.72,14.78-17.2c16.06-13.2,32.74-25.76,47.04-40.96c24.94-24,45.14-52.78,59.98-84
		c12.96-28.86,21.66-59.38,29.62-89.94c-22.86-8.48-45.06-18.7-67.96-26.98C503.04,138.58,501.84,151.84,498.72,164.74z
		 M688.72,277.24c16.32,25.68,37.58,47.72,60.221,67.82c13.899,12.72,30.8,22.58,41.5,38.44c4.18,9.62,8.199,19.76,7.779,30.44
		c2.88,19.98,1.32,40.2,1.84,60.3c23.061,0.4,46.24,1.1,69.28-0.3c1.38-18.62,0.4-37.3,0.74-55.94c0.479-10.98-1.88-21.78-3.4-32.58
		c-3.14-22.08-11.5-44.52-28.359-59.8c-12.86-10.44-25.84-20.78-38.761-31.14c-28.38-23.26-54.18-50.92-69.279-84.78
		c-12.98-26.3-16.92-55.64-22.46-84.08c-22.96,8.36-45.181,18.66-68.101,27.08C650.98,195.9,663.6,239.8,688.72,277.24z
		 M1075.56,205.48c-8.579,20.08-20.819,38.5-35.06,55c-10.061,9.92-19.52,20.52-30.64,29.32c-13.7,11.74-28.221,22.46-42,34.12
		c-4.46,4.88-8.7,9.92-13.341,14.64C940.16,359.44,936.9,385.32,934,409.92c-0.06,21.44-0.36,42.9,0.42,64.32
		c23.14,0.58,46.36,0.74,69.521-0.06c0.64-20-1.141-40.14,1.72-60.04c-0.24-11.26,3.859-22.02,8.58-32.06
		c15.399-19.96,38.34-32.08,55.279-50.56c22.28-20.78,41.461-44.96,56.24-71.62c18.48-33.42,28.8-70.46,38.48-107.16
		c-22.86-8.52-45.101-18.64-68-27.1C1090.7,152.52,1087.28,180.34,1075.56,205.48z M1308.439,199.6
		c18.681,21.48,39.461,42.04,65.221,54.8c30.12,13.64,63.859,13.78,96.3,14.22c37.1-0.5,74.62,1.92,111.18-5.58
		c9.98-1.44,18.8-6.68,28.36-9.6c30.18-16.2,52.96-42.48,75.42-67.72c-22.02-9.9-44.74-18.22-67-27.52
		c-9.34,6-15.32,16.74-24.98,22.78c-17.899,15.28-42.3,17.96-64.859,19.04c-25.4-0.08-50.78-0.06-76.16,0
		c-8.04,0.18-15.88-1.92-23.9-2.18c-26.14-3.06-48.06-19.96-64-40.06c-22.14,9.02-44.34,17.82-66.479,26.84
		C1299,190.92,1304.4,194.96,1308.439,199.6z M1301.439,340.56c18.601,21.3,38.101,42.66,62.541,57.4
		c7.899,5.68,17.56,7.96,26.459,11.6c41.58,10.98,84.961,8.08,127.561,8.48c14.1,0.38,28.02-2,42.08-2.44
		c22.26-3.18,45.04-8.56,63.52-22.06c10.761-6.22,19.141-15.5,28.66-23.34c10.641-12.04,22.44-23.06,32.101-35.94
		c-19.301-8.5-39.08-15.939-58.58-23.979c-3.08-1.021-6.16-3.08-9.48-2.2c-6.62,4.76-10.54,12.36-17.12,17.2
		c-8.22,5.92-15.979,13-25.939,15.86c-14.301,5.88-29.98,7.06-45.301,7.08c-18.64,0.72-37.3-0.4-55.939,0.34
		c-21.24-0.7-43.32,1.12-63.44-7.04c-18.56-5.84-31.3-21.34-44.72-34.46c-22.52,8.58-44.92,17.54-67.08,27.02
		C1298.04,336.42,1299.56,338.62,1301.439,340.56z M1127.06,450.9c12.98,51.54,14.801,107.54-4.46,157.8
		c-8.46,22.06-21.439,43.06-40.38,57.62c-21.979,16.939-49.399,23.88-75.42,32.06c1.94,9.3,1.641,19.2,5.22,28.061
		c36.181-11,75.521-21.58,101.721-50.761c8.72-6.84,13.8-16.84,20.42-25.5c14.22-24.68,23.58-52.04,27.88-80.18
		c2.46-11.9,1.94-24.08,3.78-36.04c-0.061-21.46-1.74-42.96-5.721-64.08c-6.14-36.44-19.26-71.18-32.319-105.6
		c-8.88,2.96-17.32,7.1-26.101,10.34C1110.7,399.84,1120.48,424.86,1127.06,450.9z M1836.26,534.28
		c-15.32,42.8-25.859,88.04-24.32,133.72c-0.88,15.42,2.12,30.58,4.32,45.76c7.061,32.66,19.021,65.26,41.141,90.88
		c8.22,7.82,15.18,17.2,25.279,22.82c9.74,7.58,21.16,12.26,32.181,17.54c16.72,5.76,33.359,12.44,50.819,15.52
		c2.78-8.939,3.28-18.42,4.24-27.68c-24.04-6.439-48.3-13.899-69.46-27.359c-18.78-12.801-32.72-31.461-41.96-52.04
		c-18.5-41.82-22.44-89.101-15.2-133.98c5-35.42,16.88-69.38,29.7-102.62c1.12-2.58,1.26-5.38,1.28-8.14
		c-8.74-2.28-16.561-7.3-25.48-8.82C1844.92,511.46,1840.04,522.68,1836.26,534.28z M174.24,605.76
		c12.74,44,13.64,91.62,1.36,135.82c-6.22,20.08-15.5,40.3-31.82,54.16c-19.76,19.6-47.08,27.939-72.06,38.62
		c1.68,9.279,3.14,18.6,5,27.84c29.82-10.48,60.06-22.36,84.46-43.04c20.88-18.96,35.1-44.7,42.28-71.84
		c7.18-24.38,9.56-49.96,8.62-75.301c1.28-51.64-17.48-101.14-40.4-146.54c-8.96,2.64-17.16,7.22-25.74,10.82
		C156.22,559.08,167.04,581.74,174.24,605.76z M1228.06,649.92c4.7,19.7,6.221,39.88,7.82,59.98
		c-0.56,27.359-3.6,55.04-13.02,80.899c-8.301,24.34-22,47.62-42.66,63.42c-21.8,16.66-48.92,23.28-74.46,31.8
		c0.08,2.601,0.22,5.2,0.42,7.82c7.479,48.18,14.5,96.5,18.779,145.04c1.541,10.38,0.881,20.98,2.82,31.36
		c0.08,28.2,3.78,56.399,1.24,84.62c-1.3,13.699-0.54,27.5-1.54,41.22c-2.24,11.3-0.7,22.9-3.14,34.18
		c-0.601,17.3-3.32,34.4-4.561,51.641c-9.2,77.06-17.899,154.14-26.92,231.199c-0.92,11.48-3.72,22.78-2.96,34.36
		c12.48,3.24,24.58,7.84,36.8,11.96c34.681,11.92,67,29.48,101.061,42.92c48.84,19.18,101,28.66,153.14,32.46
		c9.98,2.08,20.26,0.46,30.32,2.061c15.54,1.979,31.239,0.68,46.859,1.479c13.28,0.42,26.54,2.2,39.82,0.74
		c20.28-1.92,40.68-0.021,60.96-2.12c10.36-1.7,20.98-0.1,31.32-2.2c43.02-3.08,85.96-10.24,127.2-23.3
		c43.6-13.5,83.18-37.04,126.279-51.9c12.7-5,26.24-7.819,38.58-13.68c-2.939-13.28-3.14-26.96-5.239-40.38
		c-8.181-71.84-16.66-143.68-24.961-215.5c-3.34-32.66-7.319-65.26-8.439-98.08c-2.5-15.88-1.141-31.96-1.68-47.939
		c-0.48-18.021,0.359-36,0.119-54c3.48-68.301,13.32-136.12,23.48-203.761c-29.82-9.739-62.1-17.76-85-40.68
		c-28.32-29-40.4-69.94-44.36-109.38c-0.439-15.4-0.46-30.84,0.04-46.26c1.98-14.82,3.9-29.7,7.48-44.261
		c6.38-28.52,17.279-55.68,26.779-83.22c-28.42-12.28-57.479-23.06-86.079-34.96c-2.421-0.68-5.16-2.54-7.601-1.12
		c-4.66,4.84-8.52,10.38-13.279,15.14c-15.4,15.34-30.261,31.72-49,43.1c-16.101,10.82-34.98,16.939-54.08,19.7
		c-11.301,2.62-22.98,1.239-34.42,2.54c-18.08,1.74-36.16-1.84-54.221,0c-17.3,1.54-34.54-0.98-51.82-1.08
		c-14.1-2.12-28.479-4.28-41.68-9.9c-22.399-8.14-40.64-24.3-57.7-40.42c-10.199-9.24-17.579-21.58-28.72-29.64
		c-30.96,11.36-61.3,24.44-91.96,36.58C1210.56,591.1,1221.6,619.86,1228.06,649.92z M947.18,585.26
		c-7.72,20.12-11.96,41.38-14.819,62.7c-1.761,33-2.181,66.68,7.04,98.7c8.96,37.06,31.479,71.8,65.279,90.6
		c15.08,9.16,31.48,15.801,47.9,22.141c4.82,1.779,9.479,4.46,14.76,4.6c1.26-9.18,3.12-18.24,4.82-27.34
		c-24.04-9.74-49.2-18.54-69.48-35.3c-16.54-14.061-27.14-33.841-33.72-54.261c-6.64-22.38-9.96-45.739-9.06-69.08
		c-0.92-27.979,4.319-55.959,13.6-82.319c6.44-19.76,16.46-38.12,23.8-57.5c-8.939-3.12-17.02-8.88-26.46-10.26
		C963.42,547.22,953.54,565.54,947.18,585.26z M279.62,586.78c3.46,10.54,9.1,20.18,13.12,30.5c12.96,29.16,22.56,60.28,24,92.34
		c2.76,17.2,0,34.52-1.36,51.7c-4.46,33.02-15.76,67.779-42.44,89.56c-19.62,15.98-43.64,25.021-67.12,33.72
		c0.02,3.04,0.04,6.12,0.46,9.16c9.38,52.521,18.24,105.2,23.76,158.28c3.16,24.52,3.62,49.22,5.74,73.84
		c2.72,84.66-11.72,168.34-21.78,252.101c-5.72,45.939-10.68,91.979-15.86,137.96c-0.7,9.939-2.9,19.72-2.34,29.76
		c16.3,3.359,32.8,5.68,49.06,9.3c38.98,8.02,77.52,18.58,117.16,23.06c15.84,1.881,31.7,3.66,47.66,4.521
		c13.3,2.479,26.92,0.46,40.22,2.92c21.38,1.16,42.8,0.16,64.18,0.88c33.96,0.98,67.939-0.66,101.9,0.26
		c26.68,0.28,53.34-0.439,80.02-0.6c14.6-0.16,29.32,0.66,43.82-1.64c23.859-0.44,47.58-2.98,71.3-5.46
		c40.24-4.04,79.479-14.261,118.899-22.86c18.4-4.061,37.141-6.48,55.48-10.76c-9.86-92.54-20.82-184.96-33.1-277.24
		c-2.9-28.64-6.561-57.2-6.721-86.021c-2.84-23.939-0.96-48.04,0.32-72c-0.8-12.159,2.12-24.06,2.12-36.18
		c5.86-63.12,16.12-125.8,27.6-188.14c-25.3-11.44-53.62-19.521-73.46-40.08c-13.8-12.6-22.84-29.58-28.819-47.08
		c-9.881-29.76-11.681-61.58-9.46-92.64c1.939-35.28,14.38-69,29.159-100.761c2.62-6.08,6.101-11.88,7.2-18.479
		c-23.42-10.181-46.74-20.56-70.06-30.92c-7.221-2.68-13.88-7.14-21.66-8.12c-6.42,23.34-13.9,46.58-24.98,68.16
		c-17.72,34.92-45.14,63.939-75.22,88.56c-23.38,19.4-52.14,30.98-74.86,51.22c-4.079,6.521-8.42,12.98-11.88,19.86
		c-2.96,22.7-1.18,45.64-1.739,68.46c-19.96,0.061-39.921,0.08-59.88,0.021c-0.48-22.44,0.8-44.94-0.68-67.32
		c-3.34-7-7.74-13.54-11.98-20.06c-5.78-6.261-13.18-10.82-19.92-15.98c-19.66-12.14-40-23.4-57.92-38.1
		c-29.62-24.66-56.44-53.66-73.68-88.42c-10.72-21.12-17.38-43.94-24.46-66.46c-2.1,0.3-4.14,0.84-6.1,1.6
		C336.62,561.42,308.34,574.62,279.62,586.78z M1094.7,1612.76c-0.78,8.88-1.82,17.74-2.88,26.601
		c33.399,9.899,66.08,22.3,97.52,37.319c32.061,15.12,65.18,28.34,99.82,36.24c38.96,9.34,78.96,13.86,118.92,15.78
		c14.56,2.56,29.4,0.62,44.1,1.66c23.801,2.14,47.82,2.159,71.66,0.02c15.34-1.06,30.86,0.96,46.061-1.899
		c63.5-2.74,127.58-13.04,186.42-38.101c21.479-8.88,42.199-19.52,63.739-28.3c20.86-8.7,42.36-15.84,63.94-22.561
		c0.9-9.539-2.08-18.72-2.34-28.18c-2.38,0.061-4.7,0.44-6.94,1.16c-24.319,7.92-48.64,15.92-72.12,26.12
		c-34.66,15.3-68.68,32.66-105.46,42.5c-44.08,12.18-89.779,17.52-135.34,19.58c-15.88,2.24-31.939,0.62-47.88,1.66
		c-18.62,0.58-37.26,0.64-55.88-0.181c-14.38-0.68-28.82,0.62-43.12-1.46c-53.12-2.439-106.66-9.06-157.22-26.38
		c-24.681-8.22-48.021-19.78-71.74-30.32c-28.94-13.319-59.14-23.84-89.62-32.979C1095.939,1611.46,1095.12,1612.32,1094.7,1612.76z
		 M769.98,1673.82c-14.08-0.46-27.94,2.6-42,2.16c-20.021-0.32-39.961,1.619-59.961,1.779c-46.659,0.16-93.339,0-140.02,0.08
		c-25.36,0.22-50.66-2.38-76.02-1.88c-35.92-2.32-71.9-4.479-107.48-10.5c-42.34-7.26-83.76-19.24-126.24-25.78
		c-5.98-0.979-11.92-2.779-18.02-2.08c0.12,9.341-2.8,18.44-2.18,27.82c46.82,6.061,92.38,19,138.72,27.7
		c29.5,4.32,59.08,8.24,88.86,9.439c17.48,2.721,35.24,0.381,52.78,2.58c51.16,1.86,102.38,0.48,153.58,0.9
		c28.62-0.18,57.3,0.76,85.86-1.74c13.6-0.74,27.319,0.521,40.84-1.64c47.12-2.32,94.1-8.88,140.04-19.96
		c29.359-6.92,58.96-13.061,88.8-17.5c0.64-9.46-1.88-18.82-2.3-28.26c-61.5,7.76-120.721,28.319-182.601,33.579
		C791.82,1672.3,780.82,1672.16,769.98,1673.82z M2026.533,2023.532h-695.265v-273.026h695.265V2023.532z"></path>
	<path id="ChestUpperLeftChest" d="M832.454,796.169H670.179v-41.213h162.274V796.169z"></path>
	<path id="ChestLeftChest" d="M889.981,1042.302h-254.25V856.853h254.25V1042.302z"></path>
	<path id="ChestRightChest" d="M530.821,918.954H327.773v-144.24h203.048V918.954z"></path>
	<path id="ChestCenterFrontUpper" d="M903.582,1059.921H278.841V895.077h624.741V1059.921z"></path>
	<path id="ChestCenterFrontCenter" d="M903.582,1142.346H278.841V895.077h624.741V1142.346z"></path>
	<path id="ChestCenterFrontLower" d="M903.582,1180.846H278.874v-144.239h624.708V1180.846z"></path>
	<path id="ChestCenterFront" d="M903.582,1226.261h-624.74V896.569h624.74V1226.261z"></path>
	<path id="ChestLowerLeft" d="M917.127,1257.735H618.476v-164.844h298.651V1257.735z"></path>
	<path id="ChestLowerLeftCenter" d="M917.127,1347.384H618.476V1182.54h298.651V1347.384z"></path>
	<path id="ChestLowerRight" d="M562.541,1257.25H263.89v-164.844h298.651V1257.25z"></path>
	<path id="BackUpperBack" d="M1719.156,797.398h-467.418V694.371h467.418V797.398z"></path>
	<path id="BackCenterBack" d="M1719.156,1227.433h-467.42V856.531h467.42V1227.433z"></path>
</g>
<g id="color02" opacity="100" fill="#ef60ae">
	<path d="M65.46,186.641c-3.56-10.92-5.899-22.181-9.66-33.021c22.3-10.16,45.24-18.979,68.021-28.021
		c1.1,2.7,2.06,5.461,2.26,8.381c3.46,23.359,8.199,46.72,17.279,68.6c5.648,13.043,12.488,25.622,20.508,37.383
		c-14.271,3.797-28.748,8.727-42.938,15.091c-7.614,3.417-15.143,7.254-22.509,11.54C83.842,241.666,73.313,214.4,65.46,186.641z
		 M531.84,266.72c4.633-7.831,8.917-15.868,12.82-24.079c12.96-28.86,21.66-59.381,29.619-89.94
		c-22.859-8.479-45.06-18.7-67.959-26.979c-3.28,12.859-4.48,26.119-7.6,39.02c-5.66,26.936-16.617,52.732-32.281,75.338
		c20.158,5.371,40.729,13.013,60.303,23.75C528.451,264.766,530.148,265.734,531.84,266.72z M1618.261,633.385
		c16.796,7.344,33.401,16.539,48.878,28.033c20.632,15.318,39.259,34.756,53.457,59.189c8.113,13.957,14.771,29.533,19.555,46.835
		c5.467,19.774,8.48,41.796,8.48,66.247v314.479c4.717,145.098,20.129,290.076,37.911,435.187
		c18.777-8.553,37.577-17.064,57.098-23.795c12.7-5,26.24-7.819,38.58-13.68c-2.939-13.28-3.14-26.96-5.239-40.38
		c-8.181-71.84-16.66-143.68-24.961-215.5c-3.34-32.66-7.319-65.26-8.439-98.08c-2.5-15.88-1.141-31.96-1.68-47.939
		c-0.48-18.021,0.359-36,0.119-54c3.48-68.301,13.32-136.12,23.48-203.761c-29.82-9.739-62.1-17.76-85-40.68
		c-28.32-29-40.4-69.94-44.36-109.38c-0.439-15.4-0.46-30.84,0.04-46.26c1.98-14.82,3.9-29.7,7.48-44.261
		c6.38-28.52,17.279-55.68,26.779-83.22c-28.42-12.279-57.479-23.061-86.079-34.96c-2.421-0.68-5.16-2.54-7.601-1.12
		c-4.66,4.84-8.52,10.381-13.279,15.141c-15.4,15.34-30.261,31.72-49,43.1c-16.101,10.82-34.98,16.939-54.08,19.7
		c-11.301,2.62-22.98,1.239-34.42,2.54c-3.795,0.365-7.592,0.488-11.387,0.484c9.204,0.873,19.227,2.187,29.811,4.082
		C1567.439,615.514,1593.064,622.371,1618.261,633.385z M1223.338,833.689c-0.002-30.945,4.832-58.002,13.344-81.529
		c8.505-23.528,20.689-43.498,35.196-60.285c9.671-11.193,20.368-20.979,31.692-29.514c15.099-11.383,31.309-20.548,47.74-27.914
		c21.914-9.823,44.226-16.456,64.939-20.85c14.801-3.136,28.762-5.123,41.218-6.3c-12.514-0.149-25.011-1.485-37.528-1.558
		c-14.1-2.12-28.479-4.28-41.68-9.9c-22.399-8.14-40.64-24.3-57.7-40.42c-10.199-9.24-17.579-21.58-28.72-29.64
		c-30.96,11.36-61.3,24.44-91.96,36.579c10.68,28.74,21.72,57.501,28.18,87.561c4.7,19.7,6.221,39.88,7.82,59.98
		c-0.56,27.359-3.6,55.04-13.02,80.899c-8.301,24.34-22,47.62-42.66,63.42c-21.8,16.66-48.92,23.28-74.46,31.8
		c0.08,2.601,0.22,5.2,0.42,7.82c7.479,48.18,14.5,96.5,18.779,145.04c1.541,10.38,0.881,20.98,2.82,31.36
		c0.08,28.2,3.78,56.399,1.24,84.62c-1.3,13.699-0.54,27.5-1.54,41.22c-2.24,11.3-0.7,22.9-3.14,34.18
		c-0.601,17.3-3.32,34.4-4.561,51.641c-9.2,77.06-17.899,154.14-26.92,231.199c-0.92,11.48-3.72,22.78-2.96,34.36
		c12.48,3.24,24.58,7.84,36.8,11.96c20.086,6.904,39.381,15.699,58.68,24.49c17.81-145.292,33.258-290.465,37.979-435.742V833.689z
		 M825.217,722.603c8.111,13.958,14.771,29.534,19.553,46.836c5.469,19.774,8.482,41.794,8.482,66.247v314.479
		c4.5,138.428,18.736,276.754,35.477,415.186c13.775-3.067,27.522-6.266,41.291-9.27c18.4-4.061,37.141-6.48,55.48-10.76
		c-9.86-92.54-20.82-184.96-33.1-277.24c-2.9-28.64-6.561-57.2-6.721-86.021c-2.84-23.939-0.96-48.04,0.32-72
		c-0.8-12.159,2.12-24.06,2.12-36.18c5.86-63.12,16.12-125.8,27.6-188.14c-25.3-11.44-53.62-19.521-73.46-40.08
		c-13.8-12.6-22.84-29.58-28.819-47.08c-9.881-29.76-11.681-61.58-9.46-92.64c1.939-35.28,14.38-69,29.159-100.761
		c2.62-6.08,6.101-11.88,7.2-18.479c-23.42-10.181-46.74-20.56-70.06-30.92c-7.221-2.681-13.88-7.14-21.66-8.12
		c-6.42,23.34-13.9,46.58-24.98,68.16c-6.971,13.737-15.447,26.557-24.991,38.56c4.443,2.842,8.821,5.848,13.111,9.034
		C792.391,678.731,811.018,698.169,825.217,722.603z M327.959,835.686c-0.002-30.945,4.83-58.003,13.342-81.531
		c8.506-23.527,20.691-43.496,35.197-60.283c9.67-11.194,20.369-20.979,31.691-29.514c4.525-3.41,9.15-6.616,13.85-9.641
		c-10.057-12.619-18.953-26.128-26.159-40.656c-10.72-21.12-17.38-43.94-24.46-66.461c-2.1,0.301-4.141,0.84-6.1,1.601
		c-28.7,12.22-56.98,25.42-85.7,37.58c3.46,10.54,9.101,20.18,13.12,30.5c12.96,29.16,22.56,60.28,24,92.34
		c2.76,17.2,0,34.52-1.36,51.7c-4.46,33.02-15.76,67.779-42.44,89.56C253.32,866.86,229.3,875.9,205.82,884.6
		c0.02,3.04,0.039,6.12,0.459,9.16c9.381,52.521,18.24,105.2,23.761,158.28c3.16,24.52,3.62,49.22,5.739,73.84
		c2.721,84.66-11.719,168.34-21.779,252.101c-5.721,45.939-10.68,91.979-15.859,137.96c-0.701,9.939-2.9,19.72-2.341,29.76
		c16.3,3.359,32.8,5.68,49.06,9.3c15.906,3.272,31.74,6.965,47.605,10.498c16.748-138.481,30.993-276.855,35.494-415.334V835.686z"></path>
</g>
<g id="color03" opacity="100" fill="#c9002d">
	<path d="M120.93,255.054c14.189-6.364,28.666-11.294,42.938-15.091c3.404,4.992,7.029,9.83,10.859,14.498
		c-0.271,0.066-0.541,0.125-0.813,0.191c-22.424,5.489-45.361,13.837-66.57,26.094c-3.127-4.625-6.108-9.34-8.923-14.152
		C105.787,262.308,113.315,258.471,120.93,255.054z M522.912,280.877c3.109-4.633,6.086-9.355,8.928-14.157
		c-1.691-0.985-3.389-1.954-5.098-2.892c-19.574-10.737-40.145-18.379-60.303-23.75c-2.492,3.595-5.092,7.117-7.819,10.542
		c-0.968,1.352-1.981,2.663-3.021,3.952c15.589,3.781,31.452,8.936,46.812,15.826C509.372,273.521,516.227,277.009,522.912,280.877z
		 M1240.063,1148.434V833.689c0-23.08,2.839-43.568,7.875-61.791c4.409-15.944,10.5-30.162,17.895-42.888
		c12.942-22.261,29.893-39.993,48.97-54.167c14.303-10.623,29.798-19.225,45.606-26.135c23.708-10.369,48.118-16.924,70.105-20.861
		c21.98-3.94,41.558-5.265,55.471-5.262c0.015,0,0.032,0,0.047,0c16.155,0,39.91,1.789,66.218,7.372
		c19.755,4.188,40.963,10.511,61.566,19.749c15.455,6.928,30.568,15.494,44.516,26.01c10.462,7.887,20.27,16.868,29.104,27.092
		c13.248,15.342,24.318,33.465,32.125,55.039c7.801,21.575,12.343,46.629,12.346,75.842v314.744l0.004,0.136
		c4.801,147.71,20.592,294.952,38.671,442.019c5.329-2.389,10.645-4.813,15.961-7.233c-17.782-145.11-33.194-290.089-37.911-435.187
		V833.689c0-24.451-3.014-46.473-8.48-66.247c-4.783-17.302-11.441-32.878-19.555-46.835
		c-14.198-24.434-32.825-43.871-53.457-59.189c-15.477-11.494-32.082-20.689-48.878-28.033
		c-25.196-11.014-50.821-17.871-73.856-21.998c-10.584-1.896-20.606-3.209-29.811-4.082c-14.283-0.017-28.564-1.938-42.834-0.484
		c-4.768,0.424-9.531,0.534-14.292,0.478c-12.456,1.177-26.417,3.164-41.218,6.3c-20.714,4.394-43.025,11.026-64.939,20.85
		c-16.432,7.366-32.642,16.531-47.74,27.914c-11.324,8.535-22.021,18.32-31.692,29.514c-14.507,16.787-26.691,36.757-35.196,60.285
		c-8.512,23.527-13.346,50.584-13.344,81.529v314.479c-4.721,145.277-20.169,290.45-37.979,435.742
		c5.314,2.422,10.631,4.84,15.963,7.221c18.106-147.244,33.931-294.672,38.736-442.562L1240.063,1148.434z M792.057,704.805
		c13.248,15.341,24.316,33.465,32.125,55.039c7.801,21.576,12.342,46.628,12.344,75.842v314.742l0.006,0.137
		c4.543,139.789,18.929,279.153,35.782,418.35c5.479-1.153,10.948-2.348,16.415-3.564c-16.74-138.432-30.977-276.758-35.477-415.186
		V835.686c0-24.453-3.014-46.473-8.482-66.247c-4.781-17.302-11.441-32.878-19.553-46.836
		c-14.199-24.434-32.826-43.871-53.457-59.188c-4.29-3.187-8.668-6.192-13.111-9.034c-3.504,4.405-7.149,8.7-10.92,12.889
		c5.195,3.249,10.285,6.72,15.225,10.443C773.414,685.599,783.223,694.58,792.057,704.805z M344.684,1150.436v-314.75
		c0-23.082,2.84-43.568,7.877-61.791c4.408-15.945,10.498-30.162,17.895-42.889c12.941-22.261,29.893-39.994,48.967-54.166
		c4.403-3.271,8.92-6.347,13.523-9.243c-3.77-4.183-7.4-8.481-10.906-12.88c-4.699,3.024-9.324,6.23-13.85,9.641
		c-11.322,8.535-22.021,18.319-31.691,29.514c-14.506,16.787-26.691,36.756-35.197,60.283
		c-8.512,23.528-13.344,50.586-13.342,81.531v314.479c-4.501,138.479-18.746,276.853-35.494,415.334
		c5.466,1.217,10.937,2.414,16.415,3.568c16.859-139.245,31.256-278.665,35.8-418.502L344.684,1150.436z"></path>
</g>
<g id="color11" opacity="100" fill="#2e7e45">
	<path d="M688.72,277.24c16.32,25.68,37.58,47.72,60.221,67.82c13.899,12.72,30.8,22.58,41.5,38.44
		c4.18,9.62,8.199,19.76,7.779,30.44c2.88,19.98,1.32,40.2,1.84,60.3c23.061,0.4,46.24,1.1,69.28-0.3
		c1.38-18.62,0.4-37.3,0.74-55.94c0.479-10.98-1.88-21.78-3.4-32.58c-3.14-22.08-11.5-44.52-28.359-59.8
		c-12.86-10.44-25.84-20.78-38.761-31.14c-28.38-23.26-54.18-50.92-69.279-84.78c-12.98-26.3-16.92-55.64-22.46-84.08
		c-22.96,8.36-45.181,18.66-68.101,27.08C650.98,195.9,663.6,239.8,688.72,277.24z M1075.56,205.48
		c-8.579,20.08-20.819,38.5-35.06,55c-10.061,9.92-19.52,20.52-30.64,29.32c-13.7,11.74-28.221,22.46-42,34.12
		c-4.46,4.88-8.7,9.92-13.341,14.64C940.16,359.44,936.9,385.32,934,409.92c-0.06,21.44-0.36,42.9,0.42,64.32
		c23.14,0.58,46.36,0.74,69.521-0.06c0.64-20-1.141-40.14,1.72-60.04c-0.24-11.26,3.859-22.02,8.58-32.06
		c15.399-19.96,38.34-32.08,55.279-50.56c22.28-20.78,41.461-44.96,56.24-71.62c18.48-33.42,28.8-70.46,38.48-107.16
		c-22.86-8.52-45.101-18.64-68-27.1C1090.7,152.52,1087.28,180.34,1075.56,205.48z M1308.439,199.6
		c18.681,21.48,39.461,42.04,65.221,54.8c30.12,13.64,63.859,13.78,96.3,14.22c37.1-0.5,74.62,1.92,111.18-5.58
		c9.98-1.44,18.8-6.68,28.36-9.6c30.18-16.2,52.96-42.48,75.42-67.72c-22.02-9.9-44.74-18.22-67-27.52
		c-9.34,6-15.32,16.74-24.98,22.78c-17.899,15.28-42.3,17.96-64.859,19.04c-25.4-0.08-50.78-0.06-76.16,0
		c-8.04,0.18-15.88-1.92-23.9-2.18c-26.14-3.06-48.06-19.96-64-40.06c-22.14,9.02-44.34,17.82-66.479,26.84
		C1299,190.92,1304.4,194.96,1308.439,199.6z M1301.439,340.56c18.601,21.3,38.101,42.66,62.541,57.4
		c7.899,5.68,17.56,7.96,26.459,11.6c41.58,10.98,84.961,8.08,127.561,8.48c14.1,0.38,28.02-2,42.08-2.44
		c22.26-3.18,45.04-8.56,63.52-22.06c10.761-6.22,19.141-15.5,28.66-23.34c10.641-12.04,22.44-23.06,32.101-35.94
		c-19.301-8.5-39.08-15.939-58.58-23.979c-3.08-1.021-6.16-3.08-9.48-2.2c-6.62,4.76-10.54,12.36-17.12,17.2
		c-8.22,5.92-15.979,13-25.939,15.86c-14.301,5.88-29.98,7.06-45.301,7.08c-18.64,0.72-37.3-0.4-55.939,0.34
		c-21.24-0.7-43.32,1.12-63.44-7.04c-18.56-5.84-31.3-21.34-44.72-34.46c-22.52,8.58-44.92,17.54-67.08,27.02
		C1298.04,336.42,1299.56,338.62,1301.439,340.56z M2026.533,2023.532h-695.265v-273.026h695.265V2023.532z M107.344,280.746
		c2.123,3.141,4.301,6.25,6.576,9.294c14.2,19.5,30.92,37.101,49.02,53c12.601,11.479,27.181,20.7,38.541,33.54
		c6.74,6.38,8.66,15.76,11.6,24.2c4.561,24.22,2.279,48.96,3.02,73.479c23.24,0.74,46.541,0.801,69.78-0.02
		c-0.28-30.28,2.681-60.84-3.08-90.78c-3.739-23.739-13.64-48.16-33.84-62.479c-19.58-16.381-40.7-31.061-58.46-49.48
		c-5.612-5.347-10.861-11.053-15.773-17.039c-0.271,0.066-0.541,0.125-0.813,0.191C151.49,260.142,128.553,268.489,107.344,280.746z
		 M502.41,270.398c-15.359-6.891-31.223-12.045-46.812-15.826c-6.67,8.266-14.653,15.371-22.059,22.968
		c-22.66,22.819-52.101,38.5-71.5,64.5c-3.021,6.3-6.04,12.62-8.92,18.979c-4.841,16.58-7.5,33.721-9.16,50.86
		c0.3,20.7-0.739,41.44,0.84,62.101c12.021,1.479,24.14,0.3,36.2,0.879c11-0.799,22.16,1,33.061-0.84
		c-0.061-12-0.021-24-0.041-36.02c-0.16-11.3,2.141-22.46,2.28-33.76c1.72-6.62,4.24-13.02,6.56-19.44
		c4.061-6.399,9.601-11.72,14.781-17.2c16.06-13.199,32.739-25.76,47.039-40.959c14.358-13.816,27.135-29.225,38.232-45.764
		C516.227,277.009,509.372,273.521,502.41,270.398z"></path>
</g>
<g id="color101" opacity="100" fill="#000000">
	<path d="M2031.167,85.02h-32V51.686h32V85.02z"></path>
</g>
<g id="color102" opacity="100" fill="#404040">
	<path d="M2031.167,42.5h-32V9.167h32V42.5z"></path>
</g>
<g id="color103" opacity="100" fill="#ffffff">
	<path d="M1988.647,42.5h-32V9.167h32V42.5z"></path>
</g>
</svg>
</svg>